<?xml version="1.0" standalone="no"?>
<!DOCTYPE svg PUBLIC "-//W3C//DTD SVG 20010904//EN"
 "http://www.w3.org/TR/2001/REC-SVG-20010904/DTD/svg10.dtd">
<svg version="1.0" xmlns="http://www.w3.org/2000/svg"
 width="15000.000000pt" height="6600.000000pt" viewBox="0 0 15000.000000 6600.000000"
 preserveAspectRatio="xMidYMid meet">

<g transform="translate(0.000000,6600.000000) scale(0.100000,-0.100000)"
fill="#000000" stroke="none">
<path d="M141550 40855 c0 -921 -3 -1675 -6 -1675 -4 0 -59 40 -123 89 -641
488 -1350 758 -2164 822 -194 15 -724 6 -907 -15 -666 -78 -1178 -247 -1691
-558 -510 -309 -1039 -818 -1376 -1323 -497 -747 -753 -1610 -753 -2547 0
-1344 482 -2481 1418 -3344 740 -684 1624 -1058 2677 -1135 231 -17 697 -6
890 20 681 93 1285 339 1820 741 72 54 145 110 163 125 l32 26 0 -370 0 -371
940 0 940 0 0 5595 0 5595 -930 0 -930 0 0 -1675z m-2220 -2586 c441 -47 869
-229 1240 -526 118 -94 339 -317 440 -443 304 -380 492 -814 566 -1302 22
-145 30 -536 14 -695 -58 -594 -316 -1119 -775 -1578 -227 -228 -452 -392
-705 -519 -236 -117 -453 -185 -715 -222 -146 -21 -479 -24 -640 -5 -604 69
-1091 306 -1525 741 -150 150 -232 250 -351 429 -207 310 -337 657 -401 1064
-19 123 -22 183 -23 447 0 312 5 374 46 580 78 387 250 752 506 1070 152 190
402 418 612 559 485 326 1085 467 1711 400z"/>
<path d="M76685 42194 c-1041 -66 -1894 -340 -2685 -863 -586 -388 -1194 -997
-1601 -1606 -404 -605 -697 -1327 -824 -2030 -68 -379 -90 -675 -82 -1130 11
-666 97 -1186 297 -1785 229 -688 560 -1269 1037 -1819 139 -160 426 -452 568
-576 838 -735 1783 -1159 2880 -1289 341 -41 930 -46 1275 -12 1026 103 1903
437 2664 1014 443 337 864 781 1191 1257 557 812 903 1828 1000 2935 12 140
35 508 35 568 0 9 -688 12 -3405 12 l-3405 0 0 -920 0 -920 2290 0 c1260 0
2290 -4 2290 -8 0 -5 -31 -63 -70 -130 -626 -1093 -1488 -1741 -2550 -1916
-716 -118 -1361 -41 -2000 240 -419 184 -779 432 -1110 763 -240 240 -403 454
-559 734 -335 598 -511 1346 -488 2062 18 527 135 1002 369 1505 256 547 698
1078 1188 1426 693 493 1568 697 2473 579 604 -79 1138 -299 1587 -654 134
-107 420 -395 530 -533 l84 -108 1118 0 c615 0 1118 2 1118 4 0 7 -130 296
-189 420 -287 606 -728 1187 -1213 1598 -787 669 -1709 1047 -2838 1164 -148
15 -822 27 -975 18z"/>
<path d="M97280 40428 c-1 -1706 -1 -1743 -19 -1720 -11 12 -25 22 -33 22 -7
0 -20 9 -28 20 -8 11 -22 20 -32 20 -10 0 -18 5 -18 10 0 6 -8 10 -18 10 -10
0 -24 9 -32 20 -8 11 -22 20 -32 20 -10 0 -18 5 -18 10 0 6 -9 10 -20 10 -11
0 -20 5 -20 10 0 6 -9 10 -20 10 -11 0 -20 5 -20 10 0 6 -6 10 -13 10 -7 0
-19 9 -27 20 -8 12 -26 20 -42 20 -18 0 -29 6 -33 20 -4 12 -15 20 -29 20 -25
0 -76 21 -76 33 0 4 -13 7 -30 7 -16 0 -30 5 -30 10 0 6 -9 10 -20 10 -11 0
-20 5 -20 10 0 6 -8 10 -18 10 -10 0 -24 9 -32 20 -8 11 -22 20 -32 20 -10 0
-18 5 -18 10 0 6 -22 10 -50 10 -27 0 -50 5 -50 10 0 6 -11 10 -25 10 -14 0
-25 5 -25 10 0 6 -13 10 -29 10 -21 0 -32 6 -36 20 -4 14 -15 20 -36 20 -16 0
-29 5 -29 10 0 6 -13 10 -30 10 -16 0 -30 5 -30 10 0 6 -13 10 -30 10 -16 0
-30 5 -30 10 0 6 -18 10 -40 10 -22 0 -40 5 -40 10 0 6 -18 10 -40 10 -22 0
-40 5 -40 10 0 6 -16 10 -35 10 -19 0 -35 5 -35 10 0 6 -22 10 -50 10 -27 0
-50 5 -50 10 0 6 -20 10 -44 10 -27 0 -46 5 -48 13 -4 9 -151 12 -693 12 -542
0 -689 -3 -692 -12 -3 -8 -22 -13 -49 -13 -24 0 -44 -4 -44 -10 0 -5 -22 -10
-50 -10 -27 0 -50 -4 -50 -10 0 -5 -18 -10 -40 -10 -22 0 -40 -4 -40 -10 0 -5
-22 -10 -50 -10 -27 0 -50 -3 -50 -7 0 -13 -52 -33 -82 -33 -15 0 -28 -4 -28
-10 0 -5 -13 -10 -30 -10 -16 0 -30 -4 -30 -10 0 -5 -16 -10 -35 -10 -37 0
-43 -8 -23 -28 9 -9 7 -12 -10 -12 -12 0 -22 5 -22 10 0 6 -10 10 -21 10 -16
0 -20 -5 -16 -20 4 -17 0 -20 -29 -20 -19 0 -34 -4 -34 -10 0 -5 -18 -10 -40
-10 -22 0 -40 -4 -40 -10 0 -5 -7 -10 -16 -10 -9 0 -24 -8 -33 -17 -23 -25
-57 -43 -81 -43 -11 0 -20 -4 -20 -10 0 -5 -9 -10 -20 -10 -11 0 -20 -4 -20
-10 0 -5 -9 -10 -20 -10 -11 0 -20 -4 -20 -10 0 -5 -7 -10 -15 -10 -8 0 -15
-4 -15 -10 0 -5 -9 -10 -20 -10 -11 0 -20 -4 -20 -10 0 -5 -9 -10 -20 -10 -11
0 -20 -4 -20 -10 0 -5 -9 -10 -20 -10 -11 0 -20 -4 -20 -10 0 -5 -8 -10 -18
-10 -10 0 -24 -9 -32 -20 -8 -11 -22 -20 -32 -20 -10 0 -18 -4 -18 -10 0 -5
-9 -10 -20 -10 -11 0 -20 -4 -20 -10 0 -5 -8 -10 -18 -10 -9 0 -23 -9 -30 -20
-7 -11 -19 -20 -27 -20 -8 0 -15 -4 -15 -10 0 -5 -9 -10 -20 -10 -11 0 -20 -4
-20 -10 0 -5 -9 -10 -20 -10 -11 0 -20 -4 -20 -10 0 -5 -12 -10 -26 -10 -21 0
-25 -4 -21 -20 3 -13 0 -20 -9 -20 -8 0 -14 -4 -14 -10 0 -5 -9 -10 -20 -10
-11 0 -20 -4 -20 -10 0 -5 -9 -10 -20 -10 -13 0 -20 -7 -20 -20 0 -13 -7 -20
-20 -20 -11 0 -20 -4 -20 -10 0 -5 -9 -10 -20 -10 -11 0 -20 -4 -20 -10 0 -5
-9 -10 -20 -10 -12 0 -20 -7 -20 -16 0 -22 -25 -44 -50 -44 -25 0 -46 -19 -51
-46 -2 -10 -14 -23 -27 -29 -12 -5 -22 -13 -22 -17 0 -5 -8 -8 -19 -8 -10 0
-35 -18 -55 -40 -20 -22 -43 -40 -51 -40 -8 0 -15 -4 -15 -10 0 -5 -7 -10 -15
-10 -18 0 -19 -12 -3 -28 9 -9 7 -12 -10 -12 -12 0 -22 -4 -22 -10 0 -5 -7
-10 -16 -10 -18 0 -44 -23 -44 -40 0 -18 -27 -40 -50 -40 -21 0 -200 -170
-200 -190 0 -6 -8 -10 -17 -10 -27 -1 -49 -22 -57 -52 -4 -19 -13 -28 -26 -28
-11 0 -20 -4 -20 -9 0 -16 -98 -111 -114 -111 -9 0 -16 -8 -16 -18 0 -10 -9
-24 -20 -32 -11 -8 -20 -22 -20 -32 0 -10 -7 -18 -15 -18 -18 0 -105 -84 -105
-101 0 -6 -18 -28 -40 -49 -22 -21 -40 -46 -40 -54 0 -9 -8 -16 -20 -16 -11 0
-20 -4 -20 -8 0 -13 -97 -112 -110 -112 -6 0 -11 -12 -10 -27 3 -45 1 -53 -16
-53 -18 0 -44 -23 -44 -40 0 -16 -47 -60 -65 -60 -9 0 -15 -9 -15 -26 0 -26
-20 -54 -40 -54 -15 0 -40 -25 -40 -40 0 -17 -26 -40 -44 -40 -9 0 -16 -8 -16
-20 0 -11 7 -20 15 -20 18 0 65 -44 65 -61 0 -6 14 -24 30 -39 17 -15 30 -33
30 -40 0 -7 14 -25 30 -40 17 -15 30 -33 30 -40 0 -7 14 -25 30 -40 17 -15 30
-34 30 -40 0 -7 8 -20 18 -29 9 -9 28 -33 42 -53 14 -21 28 -38 33 -38 4 0 7
-6 7 -14 0 -7 14 -27 30 -44 17 -18 30 -36 30 -40 0 -5 14 -23 30 -40 17 -18
30 -37 30 -43 0 -6 14 -24 30 -39 17 -15 30 -32 30 -37 0 -5 18 -29 40 -53 22
-24 40 -48 40 -52 0 -5 14 -22 30 -40 17 -17 30 -35 30 -40 0 -4 14 -22 30
-40 17 -17 30 -35 30 -40 0 -5 11 -20 25 -34 14 -14 25 -29 25 -34 0 -5 6 -15
13 -22 7 -7 24 -29 37 -48 13 -19 30 -41 37 -48 7 -7 13 -17 13 -21 0 -5 16
-26 35 -47 19 -21 35 -42 35 -47 0 -5 14 -22 30 -37 17 -15 30 -33 30 -40 0
-7 14 -25 30 -40 17 -15 30 -33 30 -40 0 -7 14 -25 30 -40 17 -15 30 -32 30
-38 0 -5 14 -23 30 -40 17 -18 30 -39 30 -47 0 -8 7 -15 15 -15 8 0 15 5 15
10 0 6 5 10 10 10 14 0 80 66 80 80 0 7 18 29 40 50 22 21 40 43 40 49 0 7 13
26 29 44 16 17 38 42 49 55 11 12 25 22 31 22 7 0 11 8 9 18 -4 19 0 26 60 87
23 25 42 49 42 55 0 6 41 51 90 100 50 49 90 94 90 100 0 7 18 29 40 50 22 21
40 46 40 54 0 9 8 16 18 16 9 1 31 19 47 40 19 24 38 39 53 40 22 0 33 30 11
30 -6 0 -4 7 5 15 8 8 22 15 30 15 19 0 21 11 4 28 -9 9 -8 12 5 12 22 0 107
84 107 105 0 8 7 15 16 15 8 0 42 27 74 60 32 33 64 60 70 60 16 0 100 87 100
105 0 8 7 15 15 15 8 0 15 5 15 10 0 6 8 10 18 10 10 0 24 9 32 21 29 40 47
59 59 59 7 0 30 18 51 40 21 22 44 40 50 40 7 0 25 14 40 30 15 17 34 30 42
30 7 0 20 9 28 20 8 11 22 20 32 20 10 0 18 5 18 10 0 6 7 10 16 10 17 0 54
36 54 52 0 4 9 8 20 8 11 0 25 9 32 20 7 11 21 20 30 20 10 0 18 5 18 10 0 6
7 10 15 10 8 0 15 5 15 10 0 6 8 10 18 10 10 0 24 9 32 20 8 11 22 20 32 20
10 0 18 5 18 10 0 6 9 10 20 10 11 0 20 5 20 10 0 6 14 10 30 10 17 0 30 5 30
10 0 6 9 10 20 10 11 0 20 5 20 10 0 6 9 10 20 10 11 0 20 5 20 10 0 6 16 10
35 10 19 0 35 5 35 10 0 6 9 10 20 10 11 0 20 5 20 10 0 6 14 10 30 10 17 0
30 5 30 10 0 6 16 10 35 10 19 0 35 5 35 10 0 6 18 10 40 10 22 0 40 5 40 10
0 6 18 10 40 10 22 0 40 5 40 10 0 6 24 10 54 10 30 0 58 5 61 10 4 6 92 10
231 10 143 0 224 -4 224 -10 0 -5 20 -10 45 -10 25 0 45 -4 45 -10 0 -6 27
-10 60 -10 33 0 60 -4 60 -10 0 -5 18 -10 40 -10 22 0 40 -4 40 -10 0 -5 14
-10 30 -10 17 0 30 -4 30 -10 0 -5 18 -10 40 -10 22 0 40 -4 40 -10 0 -5 9
-10 20 -10 11 0 20 -4 20 -10 0 -5 11 -10 25 -10 14 0 25 -4 25 -10 0 -5 14
-10 30 -10 17 0 30 -4 30 -10 0 -5 9 -10 20 -10 11 0 20 -4 20 -8 0 -5 16 -14
35 -22 19 -8 35 -17 35 -22 0 -4 14 -8 30 -8 17 0 30 -4 30 -10 0 -5 9 -10 20
-10 11 0 20 -4 20 -10 0 -5 9 -10 20 -10 13 0 20 -7 20 -20 0 -13 7 -20 20
-20 11 0 20 -4 20 -10 0 -5 13 -10 28 -10 17 0 33 -8 42 -21 30 -43 48 -59 64
-59 9 0 16 -4 16 -10 0 -5 9 -10 19 -10 11 0 23 -9 26 -20 3 -11 11 -20 16
-20 5 0 9 -9 9 -20 0 -15 7 -20 25 -20 28 0 135 -99 135 -125 0 -8 7 -15 15
-15 20 0 85 -65 85 -85 0 -8 7 -15 16 -15 25 0 42 -24 37 -53 -4 -20 -1 -27
11 -27 9 0 16 -4 16 -10 0 -5 9 -10 20 -10 21 0 23 -7 20 -52 -1 -23 3 -28 23
-28 21 0 23 -4 19 -30 -4 -25 -1 -30 17 -30 17 0 21 -6 21 -30 0 -23 4 -30 20
-30 16 0 20 -7 20 -30 0 -16 5 -30 10 -30 6 0 10 -9 10 -20 0 -13 7 -20 20
-20 13 0 20 -7 20 -20 0 -11 5 -20 10 -20 6 0 10 -13 10 -30 0 -16 5 -30 10
-30 6 0 10 -9 10 -20 0 -11 5 -20 10 -20 6 0 10 -13 10 -28 0 -16 8 -34 20
-42 11 -8 20 -22 20 -32 0 -10 5 -18 10 -18 6 0 10 -17 10 -38 0 -26 6 -42 20
-52 12 -8 20 -26 20 -42 0 -15 5 -28 10 -28 6 0 10 -13 10 -30 0 -16 5 -30 10
-30 6 0 10 -18 10 -40 0 -22 5 -40 10 -40 6 0 10 -18 10 -40 0 -22 5 -40 10
-40 6 0 10 -27 10 -60 0 -40 4 -60 12 -60 9 0 9 -3 0 -12 -7 -7 -12 -42 -12
-85 0 -67 2 -74 23 -83 12 -5 16 -9 10 -9 -10 -1 -13 -34 -13 -131 0 -97 3
-130 13 -131 6 0 2 -4 -10 -9 -21 -9 -23 -16 -23 -83 0 -43 5 -78 12 -85 9 -9
9 -12 0 -12 -8 0 -12 -20 -12 -60 0 -33 -4 -60 -10 -60 -5 0 -10 -18 -10 -40
0 -22 -4 -40 -10 -40 -5 0 -10 -22 -10 -50 0 -27 -4 -50 -10 -50 -5 0 -10 -13
-10 -30 0 -16 -4 -30 -10 -30 -5 0 -10 -13 -10 -30 0 -23 -4 -30 -20 -30 -17
0 -20 -7 -20 -50 0 -27 -4 -50 -10 -50 -5 0 -10 -8 -10 -18 0 -10 -9 -24 -20
-32 -11 -8 -20 -22 -20 -32 0 -10 -4 -18 -10 -18 -5 0 -10 -9 -10 -20 0 -11
-4 -20 -10 -20 -5 0 -10 -9 -10 -20 0 -11 -4 -20 -10 -20 -5 0 -10 -13 -10
-28 0 -16 -8 -34 -20 -42 -11 -8 -20 -22 -20 -32 0 -10 -4 -18 -10 -18 -5 0
-10 -8 -10 -18 0 -10 -9 -24 -20 -32 -11 -8 -20 -22 -20 -32 0 -9 -8 -23 -18
-30 -10 -7 -22 -25 -26 -40 -3 -16 -13 -28 -22 -28 -11 0 -15 -6 -11 -20 3
-11 1 -20 -3 -20 -5 0 -12 -9 -15 -20 -3 -11 -15 -20 -26 -20 -10 0 -19 -7
-19 -15 0 -8 5 -15 12 -15 6 0 1 -8 -10 -19 -12 -10 -22 -26 -22 -35 0 -9 -7
-16 -15 -16 -9 0 -65 -49 -125 -110 -60 -60 -114 -110 -121 -110 -13 0 -69
-58 -69 -71 0 -5 -8 -9 -19 -9 -10 0 -29 -13 -42 -30 -13 -16 -29 -30 -34 -30
-6 0 -17 -9 -25 -20 -8 -11 -22 -20 -32 -20 -10 0 -18 -4 -18 -10 0 -5 -7 -10
-16 -10 -9 0 -29 -13 -44 -30 -17 -18 -38 -30 -54 -30 -14 0 -26 -4 -26 -10 0
-5 -9 -10 -20 -10 -11 0 -20 -4 -20 -10 0 -5 -8 -10 -18 -10 -9 0 -23 -9 -30
-20 -7 -11 -19 -20 -27 -20 -8 0 -15 -4 -15 -10 0 -5 -13 -10 -30 -10 -16 0
-30 -4 -30 -10 0 -5 -9 -10 -20 -10 -11 0 -20 -4 -20 -10 0 -5 -11 -10 -25
-10 -14 0 -25 -4 -25 -10 0 -5 -9 -10 -20 -10 -11 0 -20 -4 -20 -10 0 -5 -13
-10 -30 -10 -16 0 -30 -4 -30 -10 0 -5 -22 -10 -50 -10 -27 0 -50 -4 -50 -10
0 -5 -18 -10 -40 -10 -22 0 -40 -4 -40 -10 0 -5 -20 -10 -45 -10 -25 0 -45 -4
-45 -10 0 -5 -25 -10 -55 -10 -30 0 -55 -4 -55 -10 0 -6 -76 -10 -209 -10
-129 0 -212 4 -216 10 -3 6 -35 10 -71 10 -36 0 -64 4 -64 10 0 6 -22 10 -50
10 -27 0 -50 5 -50 10 0 6 -13 10 -30 10 -16 0 -30 5 -30 10 0 6 -16 10 -35
10 -19 0 -35 5 -35 10 0 6 -13 10 -30 10 -16 0 -30 5 -30 10 0 6 -13 10 -30
10 -16 0 -30 4 -30 8 0 5 -16 14 -35 22 -19 8 -35 17 -35 22 0 4 -13 8 -30 8
-16 0 -30 5 -30 10 0 6 -12 10 -26 10 -16 0 -37 12 -54 30 -15 17 -35 30 -44
30 -9 0 -16 5 -16 10 0 6 -13 10 -30 10 -16 0 -30 5 -30 10 0 6 -6 10 -13 10
-7 0 -19 9 -27 20 -8 11 -21 20 -30 20 -8 0 -21 9 -28 20 -7 11 -21 20 -32 20
-11 0 -20 4 -20 9 0 20 -59 71 -82 71 -13 0 -30 9 -38 20 -8 11 -21 20 -30 20
-9 0 -22 9 -30 20 -8 11 -21 20 -28 20 -7 0 -31 18 -52 40 -21 22 -45 40 -52
40 -7 0 -20 9 -28 21 -30 43 -48 59 -64 59 -9 0 -16 4 -16 8 0 13 -97 112
-109 112 -12 0 -299 287 -366 366 -22 26 -75 82 -117 126 -43 43 -78 83 -78
89 0 5 -36 45 -80 89 -58 58 -80 86 -80 105 0 17 -5 25 -17 25 -10 0 -28 13
-41 28 -12 15 -31 38 -42 51 -11 13 -20 37 -20 53 0 22 -5 28 -21 28 -27 0
-58 38 -59 73 0 22 -4 27 -25 27 -14 0 -25 4 -25 10 0 5 -11 20 -25 34 -14 14
-25 37 -25 51 0 16 -6 25 -15 25 -27 0 -90 71 -87 97 2 16 -2 23 -13 23 -23 0
-65 45 -65 70 0 23 -22 50 -40 50 -19 0 -47 33 -32 38 21 7 14 42 -8 42 -11 0
-20 5 -20 10 0 6 -7 10 -15 10 -9 0 -18 12 -21 30 -4 17 -10 30 -15 30 -5 0
-9 9 -9 20 0 15 -7 20 -25 20 -20 0 -27 6 -31 30 -4 17 -10 30 -15 30 -5 0 -9
9 -9 20 0 13 -7 20 -18 20 -26 0 -42 20 -42 52 0 19 -5 28 -15 28 -23 0 -65
46 -65 70 0 24 -42 70 -65 70 -10 0 -15 10 -15 30 0 23 -4 30 -20 30 -13 0
-20 7 -20 20 0 11 -4 20 -10 20 -5 0 -10 9 -10 20 0 14 -7 20 -21 20 -18 0
-20 2 -9 16 11 13 10 16 -8 21 -22 5 -26 13 -23 46 2 12 -5 17 -22 17 -20 0
-24 4 -20 20 4 13 0 20 -10 20 -17 0 -27 21 -27 56 0 19 -5 24 -24 24 -16 0
-27 7 -31 20 -3 11 -11 20 -16 20 -5 0 -9 7 -9 16 0 8 -18 33 -40 54 -22 21
-40 43 -40 50 0 16 -47 60 -65 60 -9 0 -15 9 -15 25 0 29 -40 75 -65 75 -9 0
-15 9 -15 25 0 29 -40 75 -66 75 -13 0 -14 3 -4 15 15 18 6 45 -15 45 -8 0
-15 4 -15 8 0 5 -9 19 -20 32 -11 13 -20 31 -20 42 0 10 -6 18 -12 18 -7 0
-22 14 -33 30 -11 16 -23 30 -27 30 -5 0 -8 7 -8 16 0 8 -27 42 -60 74 -33 32
-60 64 -60 70 0 6 -22 33 -50 60 -27 27 -50 54 -50 60 0 6 -32 42 -70 80 -39
39 -66 70 -60 70 5 0 10 7 10 15 0 8 -9 15 -20 15 -11 0 -20 4 -20 9 0 5 -17
28 -37 50 -60 64 -63 69 -63 96 0 20 -5 25 -25 25 -14 0 -25 4 -25 10 0 5 -47
57 -105 115 -58 58 -105 109 -105 115 0 6 -28 39 -62 74 -35 36 -80 84 -100
108 -68 80 -186 198 -197 198 -7 0 -56 45 -111 100 -55 55 -105 100 -112 100
-8 0 -20 10 -28 21 -30 43 -89 99 -104 99 -9 0 -16 4 -16 9 0 14 -56 71 -70
71 -6 0 -29 18 -50 40 -21 22 -44 40 -50 40 -6 0 -29 18 -50 40 -21 22 -44 40
-50 40 -7 0 -25 14 -40 30 -15 17 -34 30 -42 30 -7 0 -20 9 -28 20 -8 11 -19
20 -25 20 -6 0 -17 9 -25 20 -8 11 -22 20 -32 20 -9 0 -20 9 -23 20 -4 13 -15
20 -30 20 -15 0 -26 7 -30 20 -3 11 -14 20 -23 20 -10 0 -24 9 -32 20 -8 11
-22 20 -32 20 -10 0 -18 5 -18 10 0 6 -8 10 -18 10 -10 0 -24 9 -32 20 -8 11
-22 20 -32 20 -10 0 -18 5 -18 10 0 6 -12 10 -26 10 -16 0 -37 12 -54 30 -15
17 -37 30 -49 30 -12 0 -21 5 -21 10 0 6 -9 10 -20 10 -11 0 -20 5 -20 10 0 6
-9 10 -20 10 -11 0 -20 5 -20 10 0 6 -9 10 -20 10 -11 0 -20 4 -20 8 0 5 -16
14 -35 22 -19 8 -35 17 -35 22 0 4 -6 8 -14 8 -9 0 -12 7 -9 20 4 15 0 20 -16
20 -11 0 -21 -4 -21 -10 0 -5 -9 -10 -20 -10 -11 0 -20 5 -20 10 0 6 -8 10
-18 10 -10 0 -24 9 -32 20 -8 11 -22 20 -32 20 -10 0 -18 5 -18 10 0 6 -18 10
-40 10 -22 0 -40 5 -40 10 0 6 -11 10 -25 10 -14 0 -25 5 -25 10 0 6 -16 10
-35 10 -28 0 -35 4 -35 20 0 15 -7 20 -29 20 -17 0 -33 5 -36 10 -3 6 -17 10
-31 10 -13 0 -24 5 -24 10 0 6 -13 10 -30 10 -16 0 -30 5 -30 10 0 6 -18 10
-40 10 -22 0 -40 5 -40 10 0 6 -13 10 -30 10 -16 0 -30 5 -30 10 0 6 -16 10
-35 10 -19 0 -35 5 -35 10 0 6 -27 10 -60 10 -33 0 -60 4 -60 10 0 6 -15 10
-34 10 -19 0 -36 6 -38 13 -4 9 -149 12 -683 12 -534 0 -679 -3 -682 -12 -3
-9 -25 -13 -64 -13 -33 0 -59 -4 -59 -10 0 -5 -20 -10 -45 -10 -25 0 -45 -4
-45 -10 0 -5 -18 -10 -40 -10 -22 0 -40 -4 -40 -10 0 -5 -18 -10 -40 -10 -22
0 -40 -4 -40 -10 0 -5 -20 -10 -44 -10 -25 0 -48 -4 -51 -10 -3 -5 -17 -10
-31 -10 -13 0 -24 -4 -24 -10 0 -5 -13 -10 -30 -10 -16 0 -30 -4 -30 -10 0 -5
-16 -10 -36 -10 -31 0 -35 -3 -29 -20 5 -16 2 -20 -19 -20 -14 0 -26 -4 -26
-10 0 -5 -18 -10 -40 -10 -22 0 -40 -4 -40 -10 0 -5 -18 -10 -40 -10 -22 0
-40 -4 -40 -10 0 -5 -12 -10 -26 -10 -15 0 -34 -8 -43 -18 -9 -10 -31 -25 -48
-33 -18 -7 -33 -17 -33 -21 0 -5 -9 -8 -20 -8 -11 0 -20 -4 -20 -10 0 -5 -9
-10 -20 -10 -11 0 -20 -4 -20 -10 0 -5 -11 -10 -25 -10 -14 0 -25 -4 -25 -10
0 -5 -8 -10 -18 -10 -10 0 -24 -9 -32 -20 -8 -11 -22 -20 -32 -20 -10 0 -18
-4 -18 -10 0 -5 -9 -10 -20 -10 -11 0 -20 -4 -20 -10 0 -5 -9 -10 -20 -10 -11
0 -20 -4 -20 -10 0 -5 -9 -10 -20 -10 -11 0 -20 -4 -20 -10 0 -5 -9 -10 -20
-10 -11 0 -20 -4 -20 -10 0 -5 -7 -10 -16 -10 -17 0 -54 -36 -54 -52 0 -4 -9
-8 -20 -8 -11 0 -20 -4 -20 -10 0 -5 -16 -10 -36 -10 -31 0 -36 -3 -31 -20 4
-17 0 -20 -23 -20 -20 0 -31 -6 -35 -20 -3 -11 -13 -20 -22 -20 -8 0 -28 -13
-43 -30 -15 -16 -33 -30 -39 -30 -17 0 -61 -47 -61 -65 0 -8 -9 -15 -20 -15
-11 0 -20 -4 -20 -10 0 -5 -8 -10 -18 -10 -10 0 -24 -9 -32 -20 -8 -11 -21
-20 -28 -20 -15 0 -132 -118 -132 -132 0 -4 -8 -8 -17 -8 -10 0 -29 -14 -43
-31 -14 -17 -76 -82 -137 -145 -62 -62 -113 -119 -113 -125 0 -6 -13 -24 -30
-39 -16 -15 -30 -33 -30 -39 0 -19 -43 -61 -62 -61 -11 0 -18 -7 -18 -20 0
-11 -4 -20 -9 -20 -5 0 -11 -13 -14 -30 -5 -24 -12 -30 -32 -30 -18 0 -25 -5
-25 -20 0 -11 -5 -20 -11 -20 -6 0 -9 -9 -6 -20 4 -16 0 -20 -20 -20 -17 0
-24 -5 -22 -17 3 -33 -1 -41 -23 -46 -18 -5 -19 -8 -8 -21 8 -11 9 -16 1 -16
-6 0 -11 -9 -11 -20 0 -13 -7 -20 -20 -20 -13 0 -20 -7 -20 -20 0 -11 -4 -20
-10 -20 -5 0 -10 -8 -10 -18 0 -10 -9 -24 -20 -32 -12 -8 -20 -26 -20 -42 0
-21 -5 -28 -20 -28 -13 0 -20 -7 -20 -20 0 -11 -4 -20 -10 -20 -5 0 -10 -9
-10 -20 0 -11 -4 -20 -10 -20 -5 0 -10 -8 -10 -18 0 -10 -9 -24 -20 -32 -11
-8 -20 -22 -20 -32 0 -10 -4 -18 -10 -18 -5 0 -10 -13 -10 -30 0 -16 -4 -30
-10 -30 -5 0 -10 -9 -10 -20 0 -11 -4 -20 -10 -20 -5 0 -10 -9 -10 -20 0 -13
-7 -20 -20 -20 -17 0 -20 -7 -20 -40 0 -22 -4 -40 -10 -40 -5 0 -10 -9 -10
-20 0 -11 -5 -20 -11 -20 -6 0 -9 -9 -6 -20 4 -16 0 -20 -19 -20 -25 0 -34
-24 -11 -33 6 -3 1 -6 -12 -6 -20 -1 -23 -5 -19 -31 3 -20 0 -30 -9 -30 -17 0
-17 -37 0 -43 7 -4 3 -8 -11 -13 -16 -5 -22 -12 -19 -25 3 -10 -1 -20 -9 -23
-16 -6 -19 -52 -4 -61 7 -4 3 -14 -10 -25 -13 -11 -20 -30 -20 -54 0 -20 -4
-36 -10 -36 -5 0 -10 -13 -10 -30 0 -16 -4 -30 -10 -30 -5 0 -10 -18 -10 -40
0 -22 -4 -40 -10 -40 -5 0 -10 -13 -10 -30 0 -16 -4 -30 -10 -30 -5 0 -10 -18
-10 -40 0 -22 -4 -40 -10 -40 -5 0 -10 -18 -10 -40 0 -22 -4 -40 -10 -40 -5 0
-10 -18 -10 -40 0 -22 -4 -40 -10 -40 -5 0 -10 -22 -10 -50 0 -27 -4 -50 -10
-50 -6 0 -10 -30 -10 -69 0 -47 -4 -71 -12 -73 -10 -4 -13 -150 -13 -688 0
-538 3 -684 13 -687 8 -3 12 -25 12 -64 0 -33 4 -59 10 -59 6 0 10 -22 10 -50
0 -27 5 -50 10 -50 6 0 10 -18 10 -40 0 -22 5 -40 10 -40 6 0 10 -22 10 -50 0
-27 5 -50 10 -50 6 0 10 -18 10 -40 0 -22 5 -40 10 -40 6 0 10 -13 10 -30 0
-18 5 -30 13 -30 9 0 12 -10 9 -30 -3 -18 0 -30 7 -30 6 0 11 -17 11 -40 0
-22 5 -40 10 -40 6 0 10 -13 10 -30 0 -16 4 -30 10 -30 5 0 7 -13 4 -30 -5
-24 -3 -30 11 -30 14 0 15 -3 5 -15 -10 -12 -8 -16 11 -24 13 -5 18 -10 12
-10 -18 -1 -17 -51 1 -51 9 0 12 -7 9 -20 -4 -13 0 -20 9 -20 10 0 13 -8 10
-30 -3 -18 0 -30 7 -30 6 0 11 -9 11 -20 0 -11 7 -20 15 -20 9 0 18 -12 22
-30 3 -16 9 -30 14 -30 5 0 9 -9 9 -20 0 -11 5 -20 10 -20 6 0 10 -9 10 -20 0
-11 5 -20 10 -20 6 0 10 -9 10 -20 0 -11 5 -20 10 -20 6 0 10 -9 10 -20 0 -11
5 -20 10 -20 6 0 10 -9 10 -20 0 -11 5 -20 10 -20 6 0 10 -9 10 -20 0 -11 5
-20 10 -20 6 0 10 -9 10 -20 0 -11 5 -20 10 -20 6 0 10 -8 10 -18 0 -10 9 -24
20 -32 11 -8 20 -22 20 -32 0 -10 5 -18 10 -18 6 0 10 -8 10 -18 0 -10 9 -24
20 -32 11 -8 20 -22 20 -32 0 -10 5 -18 10 -18 6 0 10 -13 10 -30 0 -23 4 -30
20 -30 12 0 20 -7 20 -16 0 -9 13 -28 29 -44 22 -19 27 -30 19 -38 -18 -18 -1
-42 29 -42 21 0 24 -3 15 -12 -21 -21 -14 -48 12 -48 25 0 36 -16 36 -56 0
-19 5 -24 24 -24 16 0 27 -7 31 -20 3 -11 11 -20 16 -20 5 0 9 -13 9 -30 0
-21 5 -30 17 -30 17 0 103 -83 103 -101 0 -5 36 -45 80 -89 44 -44 80 -86 80
-95 0 -8 7 -15 15 -15 9 0 27 -11 41 -25 14 -14 20 -25 14 -25 -5 0 -10 -7
-10 -15 0 -9 9 -15 21 -15 12 0 34 -14 49 -30 15 -17 35 -30 43 -30 10 0 13
-7 10 -20 -4 -16 0 -20 21 -20 14 0 26 -4 26 -9 0 -14 56 -71 70 -71 6 0 29
-18 50 -40 21 -22 44 -40 50 -40 7 0 25 -13 40 -30 15 -16 33 -30 40 -30 7 0
25 -13 40 -30 15 -16 35 -30 43 -30 9 0 19 -9 22 -20 3 -11 14 -20 23 -20 9 0
28 -14 41 -30 13 -17 32 -30 42 -30 11 0 19 -4 19 -10 0 -5 7 -10 15 -10 8 0
15 -9 15 -20 0 -15 7 -20 28 -20 16 0 34 -8 42 -20 8 -11 22 -20 32 -20 10 0
18 -4 18 -10 0 -5 9 -10 20 -10 11 0 20 -4 20 -10 0 -5 9 -10 20 -10 11 0 20
-4 20 -10 0 -5 8 -10 18 -10 10 0 24 -9 32 -20 8 -11 22 -20 32 -20 10 0 18
-4 18 -10 0 -5 9 -10 20 -10 11 0 20 -4 20 -10 0 -5 7 -10 15 -10 8 0 15 -4
15 -10 0 -5 14 -10 30 -10 17 0 30 -4 30 -10 0 -5 9 -10 20 -10 11 0 20 -4 20
-8 0 -5 16 -14 35 -22 19 -8 35 -17 35 -22 0 -4 14 -8 30 -8 17 0 30 -4 30
-10 0 -5 9 -10 20 -10 11 0 20 -4 20 -10 0 -5 18 -10 40 -10 22 0 40 -4 40
-10 0 -5 14 -10 30 -10 17 0 30 -4 30 -10 0 -5 14 -10 30 -10 17 0 30 -4 30
-10 0 -5 11 -10 25 -10 14 0 25 -4 25 -10 0 -5 14 -10 30 -10 17 0 30 -4 30
-10 0 -5 11 -10 24 -10 14 0 28 -4 31 -10 3 -5 22 -10 41 -10 19 0 34 -4 34
-10 0 -5 18 -10 40 -10 22 0 40 -4 40 -10 0 -5 18 -10 40 -10 22 0 40 -4 40
-10 0 -5 25 -10 55 -10 30 0 55 -4 55 -10 0 -5 18 -10 39 -10 25 0 41 -5 45
-15 5 -13 91 -15 702 -12 547 1 698 5 702 15 4 14 52 17 52 2 0 -5 11 -10 25
-10 18 0 25 5 25 20 0 17 7 20 45 20 25 0 45 5 45 10 0 6 16 10 35 10 19 0 35
5 35 10 0 6 18 10 40 10 22 0 40 5 40 10 0 6 14 10 30 10 17 0 30 5 30 10 0 6
14 10 30 10 17 0 30 5 30 10 0 6 11 10 24 10 14 0 28 5 31 10 3 6 17 10 31 10
13 0 24 5 24 10 0 6 18 10 40 10 22 0 40 5 40 10 0 6 11 10 25 10 14 0 25 5
25 10 0 6 9 10 20 10 11 0 20 5 20 10 0 6 14 10 30 10 17 0 30 5 30 10 0 6 9
10 20 10 11 0 20 5 20 10 0 6 9 10 20 10 11 0 20 5 20 10 0 6 14 10 30 10 17
0 30 5 30 10 0 6 9 10 20 10 11 0 20 4 20 8 0 5 16 14 35 22 19 8 35 17 35 22
0 4 9 8 20 8 11 0 20 5 20 10 0 6 9 10 20 10 11 0 20 5 20 10 0 6 9 10 20 10
11 0 20 5 20 10 0 6 13 10 28 10 35 0 45 9 31 27 -9 10 -7 13 10 13 11 0 21 5
21 10 0 6 9 10 20 10 11 0 20 5 20 10 0 6 7 10 16 10 9 0 29 14 44 30 16 17
38 30 52 30 13 0 30 9 38 20 8 11 21 20 29 20 14 0 51 37 51 52 0 4 9 8 20 8
11 0 20 5 20 10 0 6 15 10 34 10 29 0 34 4 40 30 3 17 11 30 19 30 7 0 19 9
27 20 8 12 26 20 42 20 19 0 28 5 28 16 0 22 25 44 50 44 25 0 50 22 50 44 0
10 9 16 26 16 26 0 54 20 54 40 0 19 55 60 81 60 13 0 49 38 49 52 0 4 12 8
26 8 21 0 25 4 21 20 -4 14 0 20 12 20 9 0 23 9 31 20 8 11 20 20 28 20 7 0
12 8 11 18 -3 35 1 42 27 42 26 0 54 20 54 40 0 16 47 60 65 60 8 0 15 7 15
15 0 23 46 65 70 65 25 0 50 22 50 44 0 9 7 16 16 16 15 0 133 117 134 133 0
4 7 7 16 7 11 0 15 6 11 20 -3 12 0 20 7 20 6 0 18 9 26 20 8 11 21 20 28 20
9 0 12 6 8 16 -7 18 15 44 38 44 9 0 16 8 16 18 0 10 9 24 20 32 11 8 20 22
20 32 0 10 7 18 15 18 18 0 65 44 65 60 0 16 47 60 65 60 8 0 15 8 15 18 0 23
19 42 42 42 11 0 18 7 18 20 0 11 4 20 9 20 5 0 11 14 15 30 4 20 11 30 24 30
9 0 24 9 32 20 8 11 20 20 28 20 9 0 11 7 7 20 -5 16 -2 20 19 20 21 0 26 5
26 25 0 14 -5 25 -10 25 -6 0 5 16 24 35 20 19 40 35 46 35 20 0 40 28 40 54
0 14 -4 26 -10 26 -5 0 -10 6 -10 13 0 7 -16 30 -35 51 -19 21 -35 42 -35 47
0 4 -10 18 -23 31 -12 13 -33 39 -47 58 -13 19 -32 42 -42 51 -10 9 -18 21
-18 26 0 5 -16 26 -35 47 -19 21 -35 42 -35 46 0 5 -18 27 -40 50 -22 23 -40
45 -40 50 0 5 -18 27 -40 50 -22 23 -40 46 -40 50 0 5 -16 25 -35 44 -19 20
-35 39 -35 44 0 4 -18 28 -40 52 -22 24 -40 48 -40 53 0 4 -11 19 -25 33 -14
14 -25 28 -25 32 0 4 -16 25 -35 45 -19 20 -35 41 -35 46 0 5 -18 27 -40 50
-22 22 -40 46 -40 52 0 6 -18 28 -40 49 -22 21 -40 44 -40 50 0 6 -18 29 -40
50 -22 21 -40 44 -40 50 0 7 -13 25 -30 40 -16 15 -30 32 -30 38 0 5 -12 22
-28 38 -15 16 -38 45 -52 64 -13 19 -27 37 -30 40 -22 20 -69 90 -60 90 5 0
10 7 10 15 0 9 -9 15 -25 15 -14 0 -25 -4 -25 -10 0 -5 -5 -10 -11 -10 -15 0
-39 -26 -39 -42 0 -17 -74 -98 -90 -98 -8 0 -10 -8 -7 -21 4 -15 -8 -34 -49
-74 -30 -30 -54 -59 -54 -65 0 -6 -31 -42 -70 -80 -38 -38 -70 -74 -70 -80 0
-6 -36 -46 -80 -90 -44 -44 -80 -86 -80 -94 0 -15 -34 -54 -147 -171 -40 -41
-73 -81 -73 -90 0 -8 -7 -15 -15 -15 -20 0 -165 -145 -165 -165 0 -8 -7 -15
-15 -15 -23 0 -68 -48 -61 -65 4 -11 -2 -15 -22 -15 -18 0 -36 -11 -52 -31
-52 -62 -99 -109 -110 -109 -6 0 -29 -18 -50 -40 -21 -22 -44 -40 -50 -40 -7
0 -25 -13 -40 -30 -15 -16 -34 -30 -42 -30 -7 0 -24 -14 -37 -30 -13 -17 -31
-30 -41 -30 -10 0 -22 -9 -25 -20 -3 -11 -15 -20 -26 -20 -10 0 -24 -9 -31
-20 -9 -13 -24 -20 -45 -20 -35 0 -41 -8 -21 -28 9 -9 8 -12 -8 -12 -11 0 -26
-9 -34 -20 -8 -11 -21 -20 -30 -20 -9 0 -22 -9 -30 -20 -8 -11 -22 -20 -32
-20 -10 0 -18 -4 -18 -10 0 -5 -13 -10 -28 -10 -16 0 -34 -8 -42 -20 -8 -11
-26 -20 -40 -20 -14 0 -31 -9 -38 -20 -7 -11 -19 -20 -27 -20 -8 0 -15 -4 -15
-10 0 -5 -13 -10 -30 -10 -19 0 -34 -7 -42 -20 -7 -11 -23 -20 -35 -20 -13 0
-23 -4 -23 -10 0 -5 -9 -10 -20 -10 -11 0 -20 -4 -20 -10 0 -5 -18 -10 -40
-10 -22 0 -40 -4 -40 -10 0 -5 -18 -10 -40 -10 -22 0 -40 -4 -40 -10 0 -5 -9
-10 -20 -10 -11 0 -20 -4 -20 -10 0 -5 -25 -10 -55 -10 -30 0 -55 -4 -55 -10
0 -6 -27 -10 -60 -10 -33 0 -60 -4 -60 -10 0 -6 -80 -10 -220 -10 -140 0 -220
4 -220 10 0 6 -28 10 -65 10 -37 0 -65 4 -65 10 0 6 -18 10 -40 10 -22 0 -40
5 -40 10 0 6 -18 10 -40 10 -22 0 -40 5 -40 10 0 6 -13 10 -30 10 -16 0 -30 5
-30 10 0 6 -16 10 -35 10 -19 0 -35 5 -35 10 0 6 -13 10 -30 10 -16 0 -30 4
-30 8 0 5 -16 14 -35 22 -19 8 -35 17 -35 22 0 4 -18 8 -40 8 -22 0 -40 5 -40
10 0 6 -8 10 -18 10 -10 0 -24 9 -32 20 -8 11 -22 20 -32 20 -10 0 -18 5 -18
10 0 6 -9 10 -20 10 -11 0 -20 5 -20 10 0 6 -13 10 -30 10 -16 0 -30 4 -30 9
0 21 -59 71 -84 71 -14 0 -26 4 -26 8 0 16 -37 52 -54 52 -9 0 -21 9 -28 20
-7 11 -19 20 -26 20 -8 0 -27 14 -42 30 -15 17 -33 30 -39 30 -7 0 -57 46
-111 103 -161 165 -158 161 -153 191 5 23 2 26 -21 26 -14 0 -26 4 -26 10 0 5
-11 20 -25 34 -14 14 -25 30 -25 37 0 6 -13 24 -30 39 -16 15 -30 35 -30 44 0
9 -4 16 -10 16 -5 0 -10 14 -10 30 0 23 -4 30 -20 30 -13 0 -20 7 -20 18 0 10
-9 24 -20 32 -12 8 -20 26 -20 42 0 15 -4 28 -10 28 -5 0 -10 9 -10 20 0 11
-4 20 -10 20 -5 0 -10 9 -10 20 0 11 -4 20 -10 20 -5 0 -10 9 -10 20 0 11 -4
20 -10 20 -5 0 -10 14 -10 30 0 17 -4 30 -10 30 -5 0 -10 9 -10 20 0 11 -5 20
-11 20 -6 0 -8 9 -4 20 5 15 2 20 -11 20 -14 0 -15 3 -6 12 19 19 14 38 -10
48 -13 5 -17 9 -10 9 16 1 16 51 -1 51 -9 0 -12 10 -9 30 3 21 0 30 -10 30
-10 0 -13 11 -10 40 3 31 1 40 -11 40 -22 0 -27 22 -27 116 0 49 -4 84 -10 84
-6 0 -10 37 -10 90 0 86 -1 90 -22 91 -13 0 -17 3 -10 6 10 4 13 41 11 156 -1
102 3 153 10 155 7 2 11 34 11 83 0 46 4 79 10 79 15 0 13 97 -2 103 -10 4
-10 8 1 15 9 6 12 22 9 46 -4 33 -2 36 20 36 22 0 24 3 20 40 -3 29 0 40 10
40 10 0 13 9 10 30 -3 20 0 30 9 30 17 0 17 50 1 51 -7 0 -3 4 10 9 24 10 29
29 10 48 -9 9 -8 12 6 12 13 0 16 5 11 20 -4 11 -2 20 4 20 6 0 11 9 11 20 0
11 5 20 10 20 6 0 10 18 10 40 0 22 5 40 10 40 6 0 10 9 10 20 0 11 5 20 10
20 6 0 10 9 10 20 0 11 5 20 10 20 6 0 10 8 10 18 0 10 9 24 20 32 11 8 20 22
20 32 0 10 5 18 10 18 6 0 10 8 10 18 0 10 9 24 20 32 11 8 20 22 20 32 0 10
5 18 10 18 6 0 10 7 10 16 0 9 14 29 30 44 17 15 30 33 30 40 0 7 14 25 30 40
17 15 30 33 30 40 0 6 6 17 13 24 6 8 19 23 27 35 8 11 21 21 28 21 9 0 12 7
9 20 -3 11 -1 20 4 20 16 0 79 68 79 85 0 8 7 15 15 15 18 0 65 44 65 60 0 19
27 40 50 40 25 0 50 22 50 44 0 9 8 16 20 16 11 0 20 5 20 10 0 6 7 10 16 10
17 0 54 36 54 52 0 4 11 8 24 8 16 0 27 7 31 20 3 11 15 20 26 20 10 0 19 5
19 10 0 6 9 10 19 10 11 0 23 9 26 20 3 11 15 20 26 20 10 0 19 5 19 10 0 6 9
10 20 10 11 0 20 5 20 10 0 6 9 10 20 10 11 0 20 5 20 10 0 6 9 10 20 10 11 0
20 5 20 10 0 6 9 10 20 10 11 0 20 5 20 10 0 6 9 10 20 10 11 0 20 5 20 10 0
6 14 10 30 10 17 0 30 5 30 10 0 6 7 10 15 10 8 0 15 5 15 10 0 6 14 10 30 10
17 0 30 5 30 10 0 6 18 10 40 10 22 0 40 5 40 10 0 6 11 10 25 10 14 0 25 5
25 10 0 6 18 10 40 10 22 0 40 5 40 10 0 6 27 10 60 10 33 0 60 4 60 10 0 6
25 10 55 10 30 0 55 5 55 10 0 6 77 10 210 10 133 0 210 -4 210 -10 0 -6 30
-10 70 -10 40 0 70 -4 70 -10 0 -5 20 -10 45 -10 25 0 45 -4 45 -10 0 -5 18
-10 40 -10 22 0 40 -4 40 -10 0 -5 18 -10 40 -10 22 0 40 -4 40 -10 0 -5 14
-10 30 -10 17 0 30 -4 30 -10 0 -5 9 -10 20 -10 11 0 20 -4 20 -10 0 -5 11
-10 25 -10 14 0 25 -4 25 -10 0 -5 9 -10 20 -10 11 0 20 -4 20 -10 0 -5 9 -10
20 -10 11 0 20 -3 20 -7 0 -10 49 -33 70 -33 8 0 22 -9 30 -20 8 -11 26 -20
40 -20 14 0 32 -9 40 -20 8 -11 22 -20 32 -20 10 0 18 -4 18 -10 0 -5 9 -10
20 -10 11 0 20 -4 20 -10 0 -5 9 -10 20 -10 11 0 20 -4 20 -10 0 -5 10 -10 22
-10 17 0 19 -3 10 -12 -19 -19 -14 -28 13 -28 14 0 25 -4 25 -10 0 -5 9 -10
20 -10 11 0 20 -4 20 -10 0 -5 7 -10 15 -10 8 0 15 -9 15 -20 0 -15 7 -20 24
-20 16 0 27 -7 31 -20 3 -11 15 -20 26 -20 10 0 19 -4 19 -10 0 -5 9 -10 20
-10 11 0 20 -7 20 -15 0 -23 46 -65 70 -65 23 0 50 -22 50 -40 0 -17 26 -40
44 -40 9 0 16 -4 16 -10 0 -5 10 -10 21 -10 17 0 19 -3 10 -13 -13 -17 -5 -27
24 -27 22 0 45 -34 45 -65 0 -10 11 -15 35 -15 19 0 35 -4 35 -10 0 -5 89 -99
198 -209 215 -217 232 -236 232 -263 0 -10 5 -18 10 -18 6 0 10 -7 10 -16 0
-22 25 -44 49 -44 11 0 22 -9 26 -20 3 -11 11 -20 16 -20 5 0 9 -9 9 -20 0
-11 7 -20 15 -20 25 0 65 -46 65 -75 0 -16 6 -25 15 -25 20 0 65 -45 65 -65 0
-8 7 -15 16 -15 23 0 44 -25 44 -54 0 -17 6 -26 15 -26 9 0 31 -16 51 -35 19
-19 30 -35 24 -35 -5 0 -10 -7 -10 -15 0 -8 6 -15 14 -15 9 0 12 -7 9 -20 -4
-16 0 -20 17 -20 26 0 60 -35 60 -62 0 -10 5 -18 10 -18 6 0 10 -7 10 -16 0
-8 23 -37 50 -64 28 -27 50 -54 50 -60 0 -6 18 -29 40 -50 22 -21 40 -44 40
-50 0 -17 26 -40 44 -40 9 0 16 -8 16 -20 0 -11 5 -20 10 -20 6 0 10 -7 10
-16 0 -20 24 -44 44 -44 9 0 16 -8 16 -20 0 -11 5 -20 10 -20 6 0 10 -7 10
-15 0 -9 11 -27 24 -40 16 -16 22 -31 19 -45 -3 -12 0 -20 7 -20 18 0 70 -60
70 -81 0 -12 7 -19 20 -19 12 0 20 -7 20 -16 0 -9 14 -29 30 -44 17 -15 30
-33 30 -40 0 -7 14 -25 30 -40 17 -15 30 -33 30 -40 0 -6 18 -29 40 -50 22
-21 40 -44 40 -50 0 -6 18 -29 40 -50 22 -21 40 -44 40 -50 0 -7 14 -25 30
-40 17 -15 30 -33 30 -40 0 -7 14 -25 30 -40 18 -17 30 -38 30 -54 0 -14 5
-26 11 -26 22 0 69 -62 69 -91 0 -24 4 -29 24 -29 16 0 27 -7 31 -20 3 -11 11
-20 16 -20 5 0 9 -13 9 -30 0 -21 5 -30 16 -30 23 0 44 -25 44 -54 0 -17 6
-26 15 -26 18 0 85 -64 85 -80 0 -7 18 -29 40 -50 22 -21 40 -44 40 -50 0 -6
19 -30 42 -52 35 -33 42 -46 40 -74 -2 -28 1 -34 18 -34 28 0 79 -59 80 -92 0
-23 4 -28 25 -28 14 0 25 -4 25 -10 0 -5 11 -20 25 -34 14 -14 25 -37 25 -51
0 -16 6 -25 15 -25 26 0 105 -86 105 -115 0 -16 6 -25 15 -25 9 0 40 -24 69
-54 44 -44 53 -58 49 -80 -5 -23 -2 -26 21 -26 14 0 26 -4 26 -9 0 -8 62 -79
138 -157 23 -24 42 -53 42 -64 0 -23 22 -50 40 -50 16 0 60 -47 60 -65 0 -8 7
-15 15 -15 21 0 291 -277 303 -311 2 -5 15 -9 28 -9 13 0 24 -4 24 -10 0 -13
157 -170 170 -170 6 0 42 -31 80 -70 38 -38 76 -70 85 -70 8 0 15 -4 15 -8 0
-18 54 -72 71 -72 11 0 19 -4 19 -8 0 -16 37 -52 53 -52 8 0 25 -13 38 -30 13
-16 30 -30 37 -30 8 0 27 -13 42 -30 15 -16 34 -30 42 -30 7 0 20 -9 28 -20 8
-11 21 -20 28 -20 8 0 27 -13 42 -30 15 -16 34 -30 42 -30 7 0 20 -9 28 -20 8
-11 19 -20 25 -20 6 0 17 -9 25 -20 8 -11 22 -20 32 -20 10 0 18 -4 18 -10 0
-5 9 -10 20 -10 11 0 20 -4 20 -8 0 -16 37 -52 54 -52 9 0 16 -4 16 -10 0 -5
9 -10 20 -10 11 0 20 -4 20 -10 0 -5 8 -10 18 -10 10 0 24 -9 32 -20 8 -11 22
-20 32 -20 10 0 18 -4 18 -10 0 -5 9 -10 20 -10 11 0 20 -4 20 -10 0 -5 9 -10
20 -10 11 0 20 -4 20 -10 0 -5 9 -10 20 -10 11 0 20 -4 20 -10 0 -5 9 -10 20
-10 11 0 20 -4 20 -10 0 -5 7 -10 15 -10 8 0 15 -4 15 -10 0 -5 9 -10 20 -10
11 0 20 -4 20 -10 0 -5 9 -10 20 -10 11 0 20 -4 20 -10 0 -5 8 -10 18 -10 22
0 72 -22 72 -32 0 -5 14 -8 30 -8 17 0 30 -4 30 -10 0 -5 14 -10 30 -10 17 0
30 -4 30 -10 0 -5 9 -10 20 -10 11 0 20 -4 20 -10 0 -5 14 -10 30 -10 17 0 30
-4 30 -10 0 -5 14 -10 30 -10 17 0 30 -4 30 -10 0 -5 11 -10 25 -10 14 0 25
-4 25 -10 0 -5 14 -10 30 -10 17 0 30 -4 30 -10 0 -5 14 -10 30 -10 17 0 30
-4 30 -10 0 -5 11 -10 25 -10 14 0 25 -4 25 -10 0 -5 18 -10 40 -10 22 0 40
-4 40 -10 0 -5 18 -10 40 -10 22 0 40 -4 40 -10 0 -6 27 -10 60 -10 33 0 60
-4 60 -10 0 -5 20 -10 44 -10 27 0 46 -5 48 -12 4 -10 151 -13 686 -15 587 -2
683 0 696 12 8 8 33 15 55 15 23 0 41 5 41 10 0 6 23 10 50 10 28 0 50 5 50
10 0 6 16 10 35 10 19 0 35 5 35 10 0 6 18 10 40 10 22 0 40 5 40 10 0 6 18
10 40 10 22 0 40 5 40 10 0 6 18 10 40 10 22 0 40 5 40 10 0 6 9 10 20 10 11
0 20 5 20 10 0 6 16 10 35 10 19 0 35 5 35 10 0 6 14 10 30 10 17 0 30 5 30
10 0 6 11 10 25 10 14 0 25 5 25 10 0 6 14 10 30 10 17 0 30 5 30 10 0 6 9 10
20 10 11 0 20 5 20 10 0 6 14 10 30 10 17 0 30 5 30 10 0 6 9 10 20 10 11 0
20 5 20 10 0 6 9 10 20 10 11 0 20 5 20 10 0 6 9 10 20 10 11 0 20 5 20 10 0
6 11 10 24 10 14 0 28 5 31 10 3 6 19 10 35 10 20 0 31 6 35 20 3 11 14 20 23
20 10 0 24 9 32 20 8 11 25 20 37 20 13 0 23 5 23 10 0 6 8 10 18 10 10 0 24
9 32 20 8 11 26 20 40 20 14 0 32 9 40 20 8 11 22 20 32 20 11 0 18 7 18 20 0
13 7 20 20 20 11 0 20 5 20 10 0 6 14 10 30 10 23 0 30 5 30 19 0 10 7 24 15
31 13 11 15 -25 15 -319 l0 -331 900 0 900 0 0 5590 0 5590 -900 0 -900 0 0
-1742z"/>
<path d="M102865 40210 c-992 -69 -1806 -412 -2416 -1020 -91 -91 -193 -201
-226 -245 -254 -338 -395 -674 -442 -1055 -14 -109 -14 -394 0 -518 34 -311
142 -620 305 -870 220 -339 629 -694 1029 -895 279 -139 763 -303 1575 -532
610 -172 823 -247 1060 -372 271 -142 443 -322 514 -535 72 -215 51 -491 -50
-667 -94 -162 -281 -318 -492 -410 -339 -148 -863 -167 -1219 -45 -309 106
-592 346 -734 622 -91 177 -129 358 -129 615 l0 167 -1181 0 -1181 0 6 -92
c44 -616 137 -994 352 -1418 137 -273 306 -505 528 -725 599 -597 1400 -931
2415 -1006 206 -15 788 -6 981 15 651 72 1220 247 1696 522 139 80 340 217
469 321 131 104 333 304 428 423 215 267 383 606 456 917 104 443 67 1038 -89
1463 -213 581 -626 991 -1355 1346 -366 178 -661 283 -1340 479 -522 150 -640
188 -844 267 -310 121 -518 244 -666 393 -163 163 -204 306 -149 529 51 210
265 417 519 504 134 45 220 57 420 56 133 0 218 -5 284 -17 382 -70 624 -270
711 -590 15 -55 49 -289 50 -339 0 -5 533 -8 1185 -8 990 0 1185 2 1185 14 0
110 -35 418 -67 580 -232 1208 -1266 1987 -2808 2116 -181 15 -624 20 -780 10z"/>
<path d="M120340 40133 c-596 -42 -1093 -169 -1585 -407 -452 -219 -828 -495
-1211 -888 -347 -357 -602 -708 -810 -1113 -200 -388 -321 -732 -404 -1145
-73 -366 -94 -612 -87 -1030 6 -396 34 -618 123 -980 148 -603 434 -1211 797
-1695 257 -342 621 -702 958 -947 275 -200 652 -405 959 -522 812 -307 1818
-359 2695 -140 698 175 1317 524 1844 1039 508 497 852 1030 1192 1847 38 92
69 169 69 172 0 3 -465 6 -1032 6 l-1033 0 -54 -96 c-370 -665 -943 -1080
-1671 -1211 -132 -24 -169 -26 -420 -27 -281 -1 -365 6 -560 45 -862 174
-1578 842 -1844 1722 l-34 112 3409 3 3409 2 0 208 c-1 932 -85 1552 -291
2148 -208 603 -518 1104 -974 1573 -759 781 -1742 1239 -2835 1321 -123 9
-499 11 -610 3z m580 -1834 c823 -74 1477 -521 1867 -1274 57 -111 183 -400
183 -421 0 -2 -1051 -4 -2335 -4 -1284 0 -2335 2 -2335 4 0 2 20 54 45 115
268 667 768 1177 1397 1425 342 134 777 192 1178 155z"/>
<path d="M129410 40129 c-936 -70 -1766 -415 -2460 -1024 -140 -124 -413 -403
-531 -545 -575 -690 -911 -1458 -1018 -2328 -116 -929 38 -1813 464 -2662 223
-446 467 -788 820 -1149 466 -476 960 -804 1540 -1021 928 -348 2121 -357
3045 -23 583 210 1064 517 1511 963 395 394 680 798 949 1345 69 141 280 623
280 641 0 2 -465 4 -1034 4 l-1033 0 -69 -122 c-302 -535 -755 -915 -1310
-1097 -261 -86 -490 -121 -784 -121 -254 0 -443 23 -667 81 -700 179 -1319
717 -1613 1402 -45 107 -116 308 -134 380 l-6 27 3405 0 3405 0 0 368 c0 393
-9 591 -41 877 -98 895 -376 1631 -851 2260 -720 951 -1784 1573 -2943 1720
-272 34 -657 44 -925 24z m797 -1848 c847 -129 1493 -672 1842 -1549 23 -56
41 -109 41 -117 0 -13 -280 -15 -2331 -15 l-2330 0 6 23 c15 49 101 245 147
335 250 487 637 874 1103 1103 271 133 526 205 852 238 145 16 518 5 670 -18z"/>
<path d="M111135 40060 c-818 -54 -1547 -332 -2190 -835 l-95 -75 0 370 0 370
-940 0 -940 0 0 -5590 0 -5590 930 0 930 0 0 1680 c0 924 2 1680 5 1680 2 0
50 -36 107 -81 787 -617 1752 -910 2803 -850 876 50 1572 281 2209 734 354
252 739 627 1001 976 510 680 817 1501 885 2365 13 167 13 595 0 767 -84 1095
-488 2008 -1222 2765 -680 700 -1516 1127 -2488 1268 -290 42 -737 63 -995 46z
m595 -1814 c441 -68 837 -241 1180 -514 117 -93 343 -318 434 -432 309 -388
482 -804 558 -1340 21 -149 18 -654 -5 -800 -87 -561 -321 -1021 -725 -1427
-405 -407 -855 -645 -1387 -733 -356 -59 -744 -45 -1071 39 -306 78 -616 236
-884 449 -117 93 -353 328 -444 442 -380 477 -569 999 -592 1635 -23 641 158
1194 556 1695 99 125 351 379 470 474 221 176 522 344 753 420 122 40 294 80
412 95 44 6 94 13 110 15 74 10 535 -3 635 -18z"/>
<path d="M13367 32192 l-27 -28 -823 4 c-633 3 -832 1 -867 -8 -25 -7 -62 -13
-83 -14 l-37 -1 2 -1275 3 -1275 30 -3 c21 -2 35 -12 46 -30 30 -52 26 -52
987 -52 861 0 891 1 913 19 23 18 24 26 24 129 0 101 -2 112 -22 134 -17 18
-23 36 -23 71 0 58 -18 62 -66 16 l-31 -30 -712 1 c-458 0 -719 4 -734 11
l-22 10 3 382 c1 210 5 392 7 405 12 51 21 52 734 52 634 0 660 1 682 19 23
18 24 26 24 129 0 101 -2 112 -22 134 -17 18 -23 36 -23 71 0 58 -18 62 -70
15 l-35 -33 -642 5 c-410 3 -645 9 -650 15 -4 6 -6 168 -3 362 5 321 7 354 23
370 17 17 64 18 747 23 l729 5 23 23 c42 41 36 249 -7 266 -11 4 -15 20 -15
56 0 42 -3 50 -18 50 -10 0 -30 -13 -45 -28z"/>
<path d="M15064 32193 c-20 -26 -22 -26 -157 -26 -116 0 -141 3 -177 20 l-41
21 27 -47 c49 -84 127 -201 553 -826 233 -340 427 -630 432 -643 5 -13 9 -266
9 -563 l0 -539 25 0 c16 0 25 -6 25 -15 0 -9 11 -27 25 -40 23 -24 30 -25 143
-25 103 0 123 3 143 19 l24 19 5 529 c5 494 6 530 24 563 10 19 120 183 242
363 123 180 224 335 224 343 0 8 106 169 235 359 239 351 259 387 215 403 -20
7 -19 9 10 55 16 26 30 50 30 52 0 16 -67 0 -107 -26 -47 -30 -49 -31 -145
-25 -88 5 -99 3 -127 -17 -20 -14 -120 -160 -272 -396 -231 -361 -419 -641
-474 -708 -40 -49 -65 -44 -101 20 -41 69 -700 1083 -732 1125 -13 17 -27 32
-31 31 -3 0 -15 -12 -27 -26z"/>
<path d="M22518 32189 l-27 -30 -94 7 c-80 5 -98 4 -120 -11 -16 -10 -38 -15
-52 -13 l-25 5 2 -1276 3 -1276 32 -3 c23 -2 33 -9 37 -27 8 -30 51 -45 136
-45 84 0 129 15 141 47 5 14 9 408 9 958 0 582 4 943 10 959 12 33 49 34 71 3
9 -12 292 -438 629 -947 384 -581 628 -939 654 -962 56 -51 93 -61 220 -56 99
3 109 5 127 27 18 23 19 58 19 1270 0 1081 -2 1250 -15 1267 -9 11 -14 42 -15
77 0 53 -2 57 -23 57 -13 0 -36 -13 -51 -29 -26 -27 -32 -29 -86 -24 -44 4
-69 1 -95 -11 -20 -10 -44 -14 -56 -11 -19 6 -20 2 -19 -985 1 -546 -1 -994
-3 -996 -2 -3 -107 151 -233 341 -637 961 -1118 1682 -1133 1697 -16 17 -18
16 -43 -13z"/>
<path d="M30737 32190 c-26 -29 -28 -30 -100 -24 -60 6 -78 4 -100 -11 -17
-11 -36 -15 -52 -11 l-25 6 0 -1280 0 -1280 25 0 c16 0 25 -6 25 -15 0 -9 11
-27 25 -40 23 -24 30 -25 148 -25 106 0 128 3 148 18 17 14 22 28 20 53 -1 19
-5 298 -7 622 -3 393 -1 587 6 587 14 0 14 1246 -1 1288 -6 17 -17 33 -25 36
-9 4 -14 21 -14 56 0 46 -2 50 -23 50 -14 0 -35 -13 -50 -30z"/>
<path d="M32729 32189 l-21 -30 -98 6 c-83 6 -101 5 -124 -10 -15 -10 -37 -15
-51 -13 l-25 5 -2 -1253 c-1 -690 -2 -1264 -2 -1276 -1 -18 5 -24 27 -26 16
-2 27 -9 27 -18 0 -8 11 -26 25 -39 23 -24 31 -25 135 -25 61 0 120 5 130 10
11 6 24 27 30 48 6 24 10 354 10 962 0 513 4 931 9 939 6 9 18 11 35 7 21 -5
82 -89 310 -434 924 -1396 996 -1501 1025 -1517 23 -11 63 -15 164 -15 118 0
138 2 158 19 l24 19 3 1239 c1 681 0 1253 -3 1271 -3 18 -15 41 -26 50 -14 12
-19 29 -19 64 0 43 -2 48 -23 48 -13 0 -36 -13 -51 -29 -26 -27 -32 -29 -86
-24 -44 4 -69 1 -95 -11 -20 -10 -44 -14 -56 -11 -19 6 -20 2 -19 -980 1 -543
-2 -990 -5 -994 -4 -3 -11 1 -15 10 -12 20 -1313 1981 -1337 2014 -23 31 -27
31 -54 -6z"/>
<path d="M39725 32190 c-28 -29 -31 -30 -96 -24 -52 5 -76 3 -102 -9 -18 -9
-43 -14 -55 -10 l-22 5 0 -779 c0 -803 5 -957 41 -1138 25 -132 50 -204 99
-285 47 -78 164 -213 240 -275 172 -142 428 -205 770 -191 221 8 369 42 510
115 231 121 345 293 408 616 12 67 16 222 19 963 4 787 2 886 -11 908 -10 14
-16 45 -16 79 0 51 -2 55 -23 55 -13 0 -36 -13 -52 -30 -28 -29 -30 -29 -100
-23 -58 4 -77 2 -97 -11 -17 -11 -35 -15 -52 -10 l-25 6 -3 -853 c-2 -470 0
-858 5 -863 11 -14 9 -113 -4 -182 -39 -213 -201 -366 -444 -420 -105 -24
-331 -24 -428 -1 -76 19 -145 51 -153 71 -3 8 -31 30 -63 49 -75 47 -146 124
-178 193 -55 121 -56 137 -60 1058 -3 716 -6 853 -19 877 -7 15 -14 53 -14 84
0 51 -2 55 -23 55 -13 0 -36 -13 -52 -30z"/>
<path d="M47740 32195 c-18 -34 -44 -39 -154 -31 -138 10 -142 7 -226 -214
-67 -176 -383 -999 -639 -1665 -76 -198 -158 -411 -182 -473 -39 -103 -46
-115 -79 -132 -33 -17 -68 -65 -56 -77 3 -3 25 -8 50 -10 36 -4 46 -10 48 -26
5 -37 44 -48 160 -45 101 3 109 5 134 29 18 19 59 118 144 352 130 356 139
378 172 401 33 23 1049 24 1068 1 6 -8 72 -171 145 -362 97 -255 137 -349 150
-351 9 -2 30 -18 45 -35 l28 -32 136 0 c147 0 164 6 168 55 1 20 -950 2368
-1046 2583 -28 62 -45 71 -66 32z m-81 -497 c10 -24 96 -248 190 -498 95 -250
182 -473 193 -494 l20 -40 -26 -23 -27 -23 -393 0 c-347 0 -395 2 -407 16 -10
13 -10 19 0 36 7 12 93 243 192 515 187 516 183 508 207 536 22 26 31 21 51
-25z"/>
<path d="M50450 32212 c0 -5 -10 -19 -21 -31 -20 -22 -26 -23 -110 -16 -74 6
-96 4 -125 -10 -21 -10 -46 -14 -60 -11 l-24 6 2 -1277 3 -1278 30 -3 c21 -2
35 -12 47 -32 20 -35 57 -44 162 -38 55 2 80 8 95 22 l21 19 0 931 c0 518 4
948 10 970 10 44 26 59 50 46 9 -5 169 -240 355 -522 654 -990 953 -1435 980
-1457 25 -19 40 -21 167 -21 134 0 140 1 163 25 l25 24 0 1259 c0 1244 0 1260
-20 1285 -11 14 -20 39 -20 55 0 69 -28 81 -75 33 -27 -29 -31 -30 -91 -24
-47 4 -72 2 -97 -10 -18 -9 -43 -14 -55 -10 l-23 5 1 -987 c1 -543 -1 -989 -3
-992 -3 -2 -34 40 -68 94 -216 335 -1301 1953 -1309 1953 -5 0 -10 -4 -10 -8z"/>
<path d="M59187 32193 l-27 -28 -854 0 c-706 0 -856 -2 -869 -14 -10 -7 -30
-11 -47 -9 l-30 5 2 -1276 3 -1276 32 -3 c23 -2 33 -9 37 -27 4 -14 18 -27 37
-34 44 -15 1783 -15 1827 0 20 7 34 21 41 41 15 44 14 158 -3 190 -8 14 -17
54 -21 87 -8 72 -28 81 -67 30 l-24 -30 -714 1 c-545 0 -719 3 -739 13 l-26
12 -3 396 c-2 378 -1 398 17 420 l19 24 680 5 c801 6 722 -9 722 135 0 60 -5
105 -15 128 -8 20 -15 57 -15 82 0 55 -19 60 -66 14 l-31 -30 -628 1 c-477 0
-635 4 -654 13 l-26 12 -3 352 -2 352 24 28 24 28 732 5 c710 5 732 6 746 24
17 24 20 206 3 223 -6 6 -13 38 -16 72 -7 71 -21 78 -66 34z"/>
<path d="M19335 32199 c-127 -17 -239 -50 -350 -103 -308 -147 -518 -405 -644
-791 -43 -133 -61 -177 -76 -187 -6 -4 -9 -85 -9 -210 1 -300 38 -476 144
-693 83 -172 254 -377 414 -499 402 -307 1047 -316 1462 -20 201 143 363 366
444 613 127 388 88 905 -96 1277 -113 231 -290 417 -506 533 -53 29 -83 40
-100 36 -13 -3 -86 6 -163 20 -157 30 -399 41 -520 24z m330 -309 c249 -28
465 -152 578 -331 109 -172 157 -377 163 -699 6 -294 5 -319 -17 -403 -76
-300 -321 -548 -624 -632 -93 -26 -303 -31 -406 -11 -93 19 -186 57 -195 80
-3 8 -41 35 -85 60 -92 54 -203 155 -265 241 -60 85 -121 217 -139 300 -56
265 -34 605 54 831 82 210 233 379 426 475 108 53 189 77 300 89 103 11 112
11 210 0z"/>
<path d="M36750 32200 c-237 -33 -435 -133 -559 -280 -27 -33 -74 -109 -105
-169 -31 -61 -63 -114 -72 -119 -12 -6 -15 -30 -15 -113 0 -127 20 -206 81
-312 150 -263 331 -366 851 -486 261 -60 428 -110 536 -161 45 -21 84 -35 87
-32 4 3 20 -8 36 -23 33 -32 54 -93 65 -188 4 -32 12 -69 20 -83 25 -49 -15
-150 -91 -228 -141 -145 -399 -216 -674 -186 -134 15 -252 53 -294 95 -17 18
-55 45 -85 61 -110 59 -200 161 -222 250 -6 27 -22 68 -35 90 -13 23 -26 60
-30 83 -8 49 -25 53 -65 15 -25 -24 -37 -27 -111 -30 -46 -2 -100 -4 -122 -6
l-38 -2 6 -55 c27 -255 230 -567 454 -700 254 -151 712 -202 1040 -116 207 55
374 161 486 309 59 77 102 156 86 156 -6 0 -6 10 1 28 42 111 53 316 23 427
-9 33 -20 78 -26 100 -17 74 -79 184 -137 243 -110 114 -258 204 -317 195 -18
-3 -74 7 -135 25 -57 16 -203 53 -324 82 -358 85 -456 118 -515 177 -14 13
-47 39 -74 56 -78 50 -91 75 -91 166 0 67 5 86 33 143 18 37 49 81 70 99 20
18 36 37 35 41 -9 27 171 99 298 119 110 17 345 6 437 -20 86 -25 175 -68 222
-107 39 -34 86 -128 101 -206 10 -51 14 -58 40 -63 16 -4 29 -11 29 -15 0 -5
10 -18 22 -30 19 -18 35 -20 134 -20 141 0 149 6 141 94 -7 69 -58 239 -92
306 -39 77 -111 167 -181 224 -82 68 -213 138 -234 126 -9 -5 -74 2 -155 16
-156 27 -425 39 -535 24z"/>
<path d="M54655 32199 c-241 -33 -442 -127 -604 -283 -156 -150 -256 -319
-349 -596 -28 -80 -57 -165 -67 -190 -15 -39 -16 -75 -12 -270 5 -246 18 -339
69 -500 81 -257 268 -528 463 -673 231 -172 543 -249 870 -217 206 20 403 86
542 181 59 40 163 138 163 153 0 6 16 34 36 61 102 142 182 384 143 431 -9 12
-13 36 -11 75 5 71 -10 77 -66 28 -35 -31 -37 -31 -113 -25 -71 6 -80 4 -117
-20 -37 -24 -40 -29 -45 -84 -12 -133 -140 -297 -293 -378 -121 -62 -206 -83
-365 -89 -201 -8 -340 25 -410 96 -14 14 -54 42 -89 61 -119 66 -256 229 -301
358 -60 170 -88 423 -70 638 19 221 52 349 127 493 109 208 275 341 499 403
115 31 355 31 469 0 118 -33 216 -85 295 -158 73 -68 104 -127 117 -224 5 -40
10 -50 26 -50 10 0 22 -10 28 -24 21 -55 78 -67 235 -46 107 14 113 33 60 215
-66 225 -188 388 -390 518 -93 60 -142 80 -190 78 -22 -1 -92 8 -155 20 -132
23 -387 33 -495 18z"/>
<path d="M8220 32158 c-19 -6 -52 -11 -73 -12 l-37 -1 2 -1275 3 -1275 30 -3
c21 -2 35 -12 47 -32 11 -20 27 -31 52 -35 19 -4 275 -5 568 -2 573 5 608 8
788 63 261 79 429 250 486 492 25 102 22 268 -5 372 -60 232 -149 364 -301
451 -102 58 -99 52 -48 87 69 48 154 145 188 218 41 85 63 207 55 301 -7 89
-57 271 -92 334 -56 104 -150 194 -266 255 -50 26 -71 33 -81 25 -9 -7 -45 -5
-127 10 -71 12 -196 24 -329 29 -288 12 -816 11 -860 -2z m1108 -343 c86 -19
155 -47 199 -81 43 -33 75 -119 77 -209 0 -41 6 -76 13 -83 38 -39 -15 -183
-90 -247 -23 -20 -65 -47 -93 -60 -108 -51 -155 -57 -524 -64 -190 -3 -356 -4
-370 0 -47 11 -50 31 -50 365 0 343 3 367 54 390 46 22 680 13 784 -11z m82
-1104 c117 -25 216 -73 247 -120 34 -51 56 -136 57 -221 1 -45 6 -80 14 -88
21 -23 14 -93 -16 -157 -53 -111 -173 -200 -327 -241 -104 -28 -807 -46 -859
-23 -15 7 -26 23 -30 41 -11 57 -7 743 5 778 21 60 32 61 444 56 327 -3 381
-6 465 -25z"/>
<path d="M25930 32159 c-19 -7 -52 -12 -73 -13 l-37 -1 2 -1275 3 -1275 30 -3
c20 -2 34 -11 40 -25 22 -48 28 -48 535 -43 368 3 499 8 580 20 575 88 888
392 987 956 13 71 17 156 17 330 0 262 -10 340 -70 553 -95 333 -260 544 -530
680 -45 23 -75 32 -81 26 -6 -6 -55 0 -134 16 -236 49 -309 55 -784 60 -313 3
-461 1 -485 -6z m1038 -339 c194 -30 370 -101 453 -184 88 -86 161 -266 194
-471 12 -72 16 -152 14 -282 -2 -100 0 -186 4 -189 14 -14 6 -151 -13 -233
-11 -46 -38 -120 -59 -165 -86 -184 -210 -297 -398 -365 -166 -61 -310 -76
-715 -76 -207 0 -220 1 -234 20 -12 16 -14 155 -12 966 3 906 4 948 22 967 10
12 28 23 40 26 40 9 631 -3 704 -14z"/>
<path d="M43180 32158 c-19 -6 -52 -11 -73 -12 l-37 -1 2 -1275 3 -1275 30 -3
c21 -2 35 -12 47 -32 20 -36 55 -43 174 -39 135 6 124 -42 124 545 0 565 -1
555 71 574 31 8 141 11 369 8 317 -4 327 -5 403 -30 89 -30 190 -92 241 -149
56 -61 86 -131 222 -517 104 -297 130 -362 145 -362 10 0 26 -11 34 -24 23
-35 65 -46 174 -46 114 0 145 12 149 56 2 20 -43 155 -131 395 -74 200 -144
386 -156 412 -42 98 -108 194 -184 271 -43 43 -77 79 -75 80 2 2 52 26 112 55
93 45 120 64 185 129 187 189 235 438 146 750 -62 215 -171 368 -318 446 -39
20 -52 23 -67 14 -14 -9 -46 -8 -137 6 -65 10 -201 22 -303 27 -260 12 -1107
9 -1150 -3z m1296 -313 c61 -10 115 -28 171 -55 70 -35 87 -48 109 -86 35 -59
54 -140 54 -229 0 -39 5 -76 11 -82 22 -22 13 -110 -17 -170 -53 -109 -155
-181 -314 -219 -65 -16 -137 -19 -520 -24 -245 -3 -456 -2 -470 1 -49 11 -50
25 -48 440 3 412 3 409 53 429 11 5 214 9 451 9 341 1 450 -2 520 -14z"/>
<path d="M111030 23300 l0 -2120 255 0 255 0 1 508 1 507 159 150 c87 83 163
150 169 150 6 0 282 -295 613 -655 l602 -655 339 -3 c186 -1 336 1 334 6 -1 4
-338 369 -748 811 -410 441 -746 807 -748 812 -2 5 313 324 700 709 l703 699
-325 0 -325 1 -730 -753 c-401 -413 -733 -753 -737 -755 -4 -2 -8 606 -8 1352
l0 1356 -255 0 -255 0 0 -2120z"/>
<path d="M142910 24761 l0 -660 -102 49 c-197 92 -350 133 -572 151 -493 39
-928 -166 -1194 -565 -229 -343 -326 -753 -293 -1243 21 -313 77 -545 180
-758 153 -314 377 -513 674 -599 230 -67 522 -57 755 26 160 56 354 167 495
281 l57 47 0 -155 0 -155 260 0 260 0 0 2120 0 2120 -260 0 -260 0 0 -659z
m-417 -955 c89 -16 282 -77 370 -116 l47 -21 0 -873 0 -872 -62 -45 c-288
-206 -598 -313 -854 -295 -487 34 -716 380 -717 1086 0 289 29 457 112 650 90
209 248 369 443 447 122 50 216 63 403 59 94 -2 209 -11 258 -20z"/>
<path d="M114277 25263 c-4 -3 -7 -123 -7 -265 l0 -258 295 0 295 0 0 265 0
265 -288 0 c-159 0 -292 -3 -295 -7z"/>
<path d="M71580 25030 l0 -210 265 0 265 0 0 -1615 0 -1615 -265 0 -265 0 0
-205 0 -205 800 0 800 0 0 205 0 205 -265 0 -265 0 0 1615 0 1615 265 0 265 0
0 210 0 210 -800 0 -800 0 0 -210z"/>
<path d="M101450 23211 l0 -2032 898 4 c946 4 961 4 1169 52 321 73 643 280
795 510 132 200 186 371 195 620 12 301 -56 536 -211 732 -139 176 -363 315
-593 370 -40 9 -73 22 -73 28 0 6 19 22 43 35 356 197 527 513 488 899 -14
135 -34 208 -83 310 -33 68 -56 100 -127 170 -179 179 -424 277 -771 311 -69
7 -441 14 -922 17 l-808 5 0 -2031z m1549 1549 c164 -13 254 -32 348 -75 130
-60 194 -129 235 -255 17 -52 21 -89 20 -190 -1 -274 -90 -438 -294 -539 -174
-86 -311 -101 -910 -101 l-408 0 0 585 0 585 438 0 c240 0 497 -5 571 -10z
m256 -1629 c145 -17 247 -45 355 -97 76 -38 110 -62 171 -123 130 -130 163
-232 163 -496 0 -133 -3 -184 -18 -234 -61 -221 -233 -386 -481 -464 -188 -59
-426 -77 -1022 -77 l-433 0 0 756 0 756 583 -5 c321 -3 627 -10 682 -16z"/>
<path d="M124860 23211 l0 -2031 270 0 270 0 0 754 0 754 403 5 c416 5 522 14
699 56 259 61 486 189 666 375 101 105 151 175 214 301 94 186 131 356 131
590 0 378 -95 623 -329 845 -210 199 -482 313 -864 361 -61 7 -338 13 -777 16
l-683 5 0 -2031z m1438 1536 c107 -20 199 -51 292 -98 245 -124 363 -337 363
-654 0 -259 -73 -438 -245 -601 -113 -107 -255 -172 -458 -210 -76 -14 -170
-18 -472 -21 l-378 -5 0 807 0 807 408 -5 c303 -4 428 -9 490 -20z"/>
<path d="M135690 23210 l0 -2030 1285 0 1285 0 0 240 0 240 -1015 0 -1015 0 0
1790 0 1790 -270 0 -270 0 0 -2030z"/>
<path d="M131500 24660 l0 -440 -175 0 -175 0 0 -215 0 -215 175 0 175 0 0
-887 c0 -584 4 -919 11 -978 17 -142 54 -271 108 -380 102 -205 259 -326 507
-391 208 -55 549 -42 877 32 l67 16 0 230 0 230 -27 -4 c-16 -3 -82 -22 -148
-42 -159 -49 -288 -64 -432 -48 -61 6 -135 21 -169 33 -82 31 -165 111 -209
204 -69 143 -67 123 -72 1103 l-5 882 531 0 531 0 0 215 0 215 -527 2 -528 3
-3 438 -2 437 -255 0 -255 0 0 -440z"/>
<path d="M138770 24660 l0 -440 -175 0 -175 0 0 -215 0 -215 175 0 174 0 4
-937 c3 -905 4 -941 24 -1033 12 -52 31 -124 43 -159 89 -266 273 -433 556
-507 208 -55 549 -42 877 32 l67 16 0 230 0 230 -27 -5 c-16 -3 -82 -22 -148
-42 -161 -48 -290 -62 -432 -47 -139 14 -208 40 -277 103 -65 60 -97 110 -131
214 -38 112 -44 273 -45 1153 l0 752 530 0 530 0 0 215 0 215 -527 2 -528 3
-3 438 -2 437 -255 0 -255 0 0 -440z"/>
<path d="M75490 24303 c-261 -21 -561 -148 -832 -355 l-78 -59 0 166 0 165
-260 0 -260 0 0 -1520 0 -1520 260 0 260 0 0 1135 0 1135 61 45 c152 112 394
237 542 279 131 38 247 50 370 37 320 -32 456 -163 514 -493 14 -81 17 -229
20 -1115 l4 -1023 260 0 260 0 -4 1093 c-3 1190 -2 1153 -62 1361 -85 292
-258 496 -508 596 -154 62 -353 88 -547 73z"/>
<path d="M91071 24299 c-269 -30 -536 -150 -833 -375 l-48 -36 0 166 0 166
-255 0 -255 0 0 -1520 0 -1520 255 0 255 0 2 1137 3 1138 114 77 c328 220 598
307 866 278 334 -35 465 -182 516 -575 7 -61 13 -412 16 -1072 l5 -983 254 0
255 0 -3 1103 c-3 1013 -5 1110 -22 1197 -85 451 -326 720 -718 800 -108 23
-297 31 -407 19z"/>
<path d="M97219 24300 c-492 -44 -877 -292 -1116 -720 -187 -332 -251 -875
-158 -1336 112 -557 481 -941 1035 -1078 309 -76 725 -76 1040 0 110 27 413
125 515 167 l60 25 3 281 c2 224 0 281 -11 281 -7 0 -37 -18 -66 -40 -70 -52
-190 -117 -321 -173 -372 -158 -719 -195 -1045 -112 -353 89 -599 339 -691
703 -25 97 -50 311 -40 337 5 13 141 15 1121 15 l1115 0 0 219 c0 368 -42 595
-153 816 -131 264 -350 455 -627 548 -190 63 -430 87 -661 67z m406 -449 c263
-69 431 -243 501 -519 14 -53 28 -141 31 -195 l6 -97 -869 2 -869 3 3 35 c11
123 79 308 153 417 53 78 169 192 246 243 82 54 210 104 322 125 111 21 370
14 476 -14z"/>
<path d="M108649 24300 c-342 -33 -611 -158 -829 -386 -216 -226 -339 -498
-397 -874 -24 -159 -24 -518 1 -684 88 -598 397 -1016 878 -1185 300 -105 702
-105 1009 0 362 124 654 429 792 825 116 333 141 775 66 1163 -119 613 -528
1035 -1094 1126 -117 19 -317 26 -426 15z m391 -465 c36 -9 108 -36 160 -62
82 -39 108 -58 191 -142 84 -85 102 -110 147 -201 94 -191 131 -364 139 -656
11 -370 -43 -646 -169 -859 -61 -103 -193 -230 -294 -282 -137 -72 -212 -88
-404 -88 -180 0 -247 12 -367 66 -215 96 -382 312 -452 586 -43 166 -54 270
-55 493 -1 232 10 335 50 500 91 368 307 590 639 656 90 17 324 12 415 -11z"/>
<path d="M117270 24304 c-273 -26 -560 -148 -832 -356 l-78 -58 0 165 0 165
-260 0 -260 0 0 -1520 0 -1520 260 0 260 0 0 1135 0 1135 61 45 c152 112 394
237 542 279 131 38 247 50 370 37 354 -36 487 -193 526 -621 7 -71 11 -474 11
-1062 l0 -948 260 0 260 0 0 1004 c0 602 -4 1055 -10 1132 -46 563 -315 899
-779 973 -76 12 -267 21 -331 15z"/>
<path d="M120376 24300 c-457 -52 -841 -334 -1051 -773 -127 -264 -174 -524
-162 -892 17 -498 141 -848 392 -1101 222 -226 510 -327 877 -310 325 15 530
90 808 297 44 32 83 59 86 59 4 0 4 -105 1 -232 -6 -270 -22 -360 -87 -493
-43 -90 -131 -191 -210 -240 -215 -135 -586 -171 -975 -94 -111 22 -337 84
-471 129 -48 17 -91 30 -96 30 -4 0 -8 -119 -8 -265 l0 -264 38 -10 c631 -170
1305 -156 1687 37 334 168 518 440 607 897 22 109 22 125 25 1628 l4 1517
-240 0 -239 0 -6 -27 c-4 -16 -11 -44 -16 -63 l-10 -36 -107 53 c-138 67 -293
118 -413 137 -123 19 -334 27 -434 16z m449 -471 c117 -17 264 -58 388 -107
l117 -46 0 -832 0 -833 -92 -61 c-172 -116 -380 -201 -571 -235 -119 -21 -347
-17 -442 9 -94 25 -215 89 -272 144 -171 164 -263 467 -263 869 0 645 280
1040 782 1103 80 10 244 4 353 -11z"/>
<path d="M78460 24289 c-331 -27 -610 -140 -798 -323 -124 -119 -195 -243
-234 -405 -28 -118 -22 -340 12 -446 68 -211 189 -350 395 -453 160 -79 297
-118 711 -201 365 -73 506 -122 592 -205 70 -66 102 -148 102 -261 0 -248
-173 -400 -507 -445 -130 -18 -389 -8 -517 20 -225 48 -514 172 -709 304 -53
36 -102 66 -107 66 -6 0 -10 -108 -10 -291 l0 -290 58 -26 c183 -82 439 -161
627 -194 154 -27 494 -37 656 -19 468 51 810 258 964 582 100 210 98 524 -4
726 -102 202 -290 338 -581 423 -36 11 -210 48 -386 84 -437 88 -572 133 -676
225 -71 62 -101 133 -106 247 -5 106 11 169 59 239 60 87 201 162 374 199 163
35 428 20 634 -36 175 -47 414 -154 549 -244 37 -25 72 -45 79 -45 10 0 13 61
13 275 l0 276 -67 30 c-213 95 -511 167 -787 189 -142 11 -195 11 -336 -1z"/>
<path d="M87158 24289 c-192 -13 -572 -74 -740 -120 l-38 -10 0 -261 0 -260
28 5 c15 3 92 28 172 56 150 52 329 99 485 126 200 36 529 29 701 -15 265 -68
403 -250 404 -531 l0 -86 -112 -7 c-426 -26 -786 -63 -973 -101 -540 -109
-851 -349 -946 -728 -30 -118 -37 -370 -15 -491 59 -309 250 -552 539 -685
154 -71 307 -97 508 -87 329 16 579 106 867 311 l132 94 0 -159 0 -160 260 0
261 0 -4 1128 -3 1127 -23 100 c-66 293 -206 478 -459 608 -165 85 -356 129
-640 147 -173 11 -231 11 -404 -1z m1012 -1937 l0 -428 -62 -46 c-219 -160
-459 -270 -656 -298 -109 -16 -356 -8 -437 14 -159 44 -262 121 -320 240 -42
85 -55 149 -55 265 0 228 103 384 325 492 195 95 395 128 1080 178 61 5 113 9
118 10 4 0 7 -192 7 -427z"/>
<path d="M94230 24276 c-598 -86 -1023 -466 -1174 -1048 -68 -263 -82 -651
-32 -934 100 -568 405 -943 896 -1104 188 -61 289 -75 560 -75 217 1 257 3
350 23 144 32 298 83 478 159 l152 65 0 284 c0 244 -2 284 -15 284 -8 0 -52
-26 -97 -59 -189 -134 -387 -231 -565 -276 -371 -93 -710 -31 -931 171 -222
203 -325 496 -325 929 0 438 94 711 317 923 226 213 555 280 921 187 188 -47
362 -129 558 -262 60 -40 115 -73 123 -73 12 0 14 46 14 285 l0 284 -77 36
c-172 79 -423 161 -583 190 -128 23 -443 29 -570 11z"/>
<path d="M80483 23133 c4 -1154 4 -1148 53 -1335 59 -228 193 -428 367 -547
290 -197 776 -214 1141 -38 131 63 258 140 379 230 l87 66 0 -165 0 -164 260
0 260 0 0 1520 0 1520 -260 0 -260 0 0 -1137 0 -1138 -73 -51 c-311 -221 -614
-328 -877 -310 -254 18 -381 93 -472 281 -83 173 -88 249 -88 1403 l0 952
-261 0 -260 0 4 -1087z"/>
<path d="M84040 22700 l0 -1520 255 0 255 0 0 1079 0 1078 58 45 c159 126 411
260 557 298 175 45 430 47 651 5 43 -8 89 -15 102 -15 l22 0 0 260 c0 143 -3
260 -7 260 -5 0 -51 7 -103 15 -123 19 -344 19 -453 0 -231 -40 -462 -153
-729 -358 -48 -37 -90 -67 -93 -67 -3 0 -5 99 -5 220 l0 220 -255 0 -255 0 0
-1520z"/>
<path d="M105230 22700 l0 -1520 260 0 260 0 0 1079 0 1080 43 34 c146 120
396 257 549 301 177 51 442 55 671 11 131 -25 117 -54 117 245 l0 259 -32 6
c-170 29 -382 33 -523 10 -229 -37 -477 -160 -750 -372 l-70 -54 -3 220 -2
221 -260 0 -260 0 0 -1520z"/>
<path d="M114310 22700 l0 -1520 255 0 255 0 0 1520 0 1520 -255 0 -255 0 0
-1520z"/>
<path d="M128454 22700 l611 -1520 261 0 261 0 364 898 c200 493 476 1176 615
1517 l251 620 -265 3 c-146 1 -269 -1 -273 -5 -4 -5 -213 -541 -464 -1193
-251 -652 -461 -1192 -465 -1200 -7 -13 -10 -12 -16 5 -4 11 -215 553 -470
1205 l-462 1185 -280 3 -279 2 611 -1520z"/>
</g>
</svg>
