<svg width="204" height="40" viewBox="0 0 204 40" fill="none" xmlns="http://www.w3.org/2000/svg">
<g id="Group 2">
<path id="Vector" d="M163.799 7.08516C161.153 7.28561 158.807 8.27357 156.845 10.0175C156.45 10.3726 155.678 11.1716 155.344 11.5782C153.719 13.5541 152.769 15.7534 152.467 18.2448C152.139 20.9051 152.574 23.4365 153.779 25.8678C154.409 27.1449 155.099 28.1243 156.096 29.1581C157.414 30.5212 158.81 31.4604 160.449 32.0819C163.073 33.0784 166.445 33.1042 169.057 32.1477C170.705 31.5464 172.064 30.6672 173.328 29.39C174.444 28.2618 175.25 27.1049 176.01 25.5384C176.205 25.1347 176.802 23.7544 176.802 23.7028C176.802 23.6971 175.487 23.6914 173.879 23.6914H170.959L170.764 24.0408C169.91 25.5728 168.63 26.661 167.061 27.1822C166.323 27.4284 165.676 27.5287 164.845 27.5287C164.127 27.5287 163.593 27.4628 162.96 27.2967C160.981 26.7841 159.231 25.2435 158.4 23.2819C158.273 22.9755 158.072 22.3999 158.021 22.1937L158.004 22.1164H167.629H177.254V21.0626C177.254 19.9372 177.229 19.3702 177.138 18.5512C176.861 15.9882 176.075 13.8806 174.733 12.0793C172.697 9.35602 169.69 7.57484 166.414 7.15388C165.645 7.05652 164.557 7.02788 163.799 7.08516ZM166.052 12.3772C168.446 12.7466 170.272 14.3015 171.259 16.8129C171.324 16.9733 171.375 17.1251 171.375 17.148C171.375 17.1852 170.583 17.1909 164.786 17.1909H158.199L158.216 17.1251C158.259 16.9848 158.502 16.4235 158.632 16.1658C159.339 14.7712 160.432 13.6629 161.75 13.0072C162.516 12.6263 163.237 12.4201 164.158 12.3256C164.568 12.2798 165.622 12.3113 166.052 12.3772Z" fill="black"/>
<path id="Vector_2" d="M138.161 7.07372C136.476 7.19399 135.072 7.55767 133.681 8.23922C132.403 8.86635 131.34 9.65672 130.258 10.7821C129.277 11.8044 128.556 12.8096 127.968 13.9694C127.403 15.0804 127.061 16.0655 126.826 17.2482C126.62 18.2963 126.56 19.0008 126.58 20.1978C126.597 21.3318 126.676 21.9675 126.928 23.0041C127.346 24.7309 128.155 26.472 129.181 27.858C129.907 28.8374 130.936 29.8683 131.889 30.5698C132.666 31.1426 133.732 31.7296 134.6 32.0647C136.895 32.9438 139.738 33.0927 142.217 32.4656C144.19 31.9644 145.94 30.965 147.43 29.4903C148.866 28.067 149.838 26.5407 150.799 24.2011C150.907 23.9377 150.994 23.7172 150.994 23.7086C150.994 23.7 149.68 23.6914 148.077 23.6914H145.157L145.004 23.9663C143.959 25.8706 142.339 27.059 140.281 27.4342C139.908 27.5029 139.803 27.5086 139.094 27.5115C138.3 27.5144 138.062 27.4943 137.511 27.3826C135.074 26.8844 133.05 24.9714 132.299 22.4514L132.202 22.1307L141.839 22.1221L151.475 22.1164V21.5208C151.472 18.8519 151.234 17.0764 150.652 15.3697C150.064 13.6429 149.188 12.2082 147.899 10.8652C145.754 8.62867 142.975 7.31712 139.885 7.08231C139.538 7.05653 138.475 7.05081 138.161 7.07372ZM139.801 12.3256C142.127 12.5375 143.976 13.8176 145.078 15.9739C145.239 16.2918 145.595 17.1194 145.595 17.1795C145.595 17.1852 142.624 17.1909 138.995 17.1909C135.366 17.1909 132.395 17.1852 132.395 17.1795C132.395 17.1738 132.451 17.0249 132.522 16.8502C133.279 14.9401 134.693 13.4797 136.471 12.7695C137.437 12.3858 138.667 12.2197 139.801 12.3256Z" fill="black"/>
<path id="Vector_3" d="M88.7652 6.85323C85.9612 7.05082 83.6603 8.03304 81.936 9.77413C81.6788 10.0347 81.3905 10.3497 81.2972 10.4757C80.5792 11.4436 80.1806 12.4058 80.0478 13.4969C80.0082 13.809 80.0082 14.6251 80.0478 14.9802C80.1439 15.8708 80.4492 16.7557 80.9099 17.4716C81.5318 18.4424 82.6879 19.459 83.8186 20.0345C84.6072 20.4326 85.9753 20.9022 88.2706 21.558C89.9948 22.0505 90.5969 22.2653 91.2668 22.6233C92.0328 23.0299 92.519 23.5454 92.7197 24.1553C92.9232 24.771 92.8639 25.5614 92.5784 26.0654C92.3127 26.5293 91.7841 26.976 91.1877 27.2395C90.2294 27.6633 88.7483 27.7177 87.742 27.3683C86.8685 27.0648 86.0686 26.3775 85.6672 25.5871C85.41 25.0803 85.3026 24.562 85.3026 23.826V23.3478H81.9643H78.626L78.6429 23.6112C78.7673 25.3752 79.0302 26.4577 79.6379 27.6719C80.0252 28.4536 80.5029 29.118 81.1304 29.748C82.8236 31.4576 85.0877 32.414 87.9568 32.6288C88.5391 32.6718 90.1842 32.646 90.7297 32.5859C92.5699 32.3797 94.1783 31.8785 95.5238 31.091C95.9167 30.862 96.4848 30.4696 96.8495 30.1718C97.2198 29.874 97.7908 29.3013 98.0593 28.9605C98.667 28.1959 99.1419 27.2251 99.3482 26.3345C99.6422 25.066 99.5376 23.3621 99.0967 22.145C98.4946 20.4813 97.3272 19.3072 95.2665 18.2906C94.232 17.7809 93.3981 17.4802 91.4788 16.9189C90.0033 16.4894 89.6697 16.3805 89.0931 16.1543C88.2168 15.8078 87.6289 15.4556 87.2106 15.0289C86.7498 14.5621 86.6339 14.1526 86.7894 13.514C86.9335 12.9127 87.5384 12.3199 88.2564 12.0708C88.6352 11.9419 88.8783 11.9075 89.4436 11.9104C89.8196 11.9104 90.0598 11.9247 90.2464 11.9591C91.3262 12.1595 92.0102 12.7323 92.2561 13.6486C92.2985 13.8061 92.3947 14.4762 92.3975 14.6194C92.3975 14.6337 93.9041 14.6423 95.7471 14.6423C98.5455 14.6423 99.0967 14.6366 99.0967 14.6022C99.0967 14.2872 98.9977 13.4052 98.9073 12.9413C98.2515 9.48204 95.3287 7.25127 90.97 6.88186C90.4584 6.83891 89.2062 6.82459 88.7652 6.85323Z" fill="black"/>
<path id="Vector_4" d="M198.115 5.00618C198.115 7.64359 198.106 9.80277 198.098 9.80277C198.086 9.80277 197.931 9.68822 197.75 9.5479C195.938 8.15045 193.934 7.37727 191.633 7.194C191.085 7.15104 189.587 7.17681 189.069 7.23695C187.187 7.46031 185.74 7.94427 184.289 8.83486C182.848 9.71972 181.353 11.1773 180.4 12.6234C178.995 14.7626 178.271 17.2339 178.271 19.9171C178.271 23.7659 179.634 27.0218 182.28 29.4931C184.371 31.4519 186.87 32.5229 189.847 32.7434C190.5 32.792 191.817 32.7605 192.362 32.6861C194.287 32.4198 195.995 31.7153 197.507 30.5641C197.71 30.4095 197.917 30.2491 197.968 30.2062L198.058 30.1317V31.1913V32.2537H200.715H203.372V16.2316V0.209587H200.743H198.115V5.00618ZM191.839 12.4115C193.086 12.5461 194.296 13.0673 195.345 13.9178C195.678 14.187 196.303 14.8256 196.588 15.1864C197.448 16.2746 197.979 17.5174 198.188 18.9149C198.25 19.3301 198.273 20.4498 198.228 20.9051C198.064 22.6061 197.334 24.1095 196.037 25.4239C195.395 26.0768 194.759 26.5464 194.044 26.9101C193.377 27.2452 192.764 27.4399 192.023 27.5459C191.61 27.606 190.669 27.6146 190.214 27.5602C188.507 27.3626 187.13 26.6839 185.903 25.4382C185.479 25.0087 185.248 24.7223 184.911 24.2097C184.326 23.322 183.959 22.3283 183.778 21.1628C183.724 20.8106 183.716 20.6388 183.713 19.8828C183.713 18.9893 183.727 18.8118 183.843 18.2219C184.063 17.1136 184.549 16.0684 185.273 15.1578C185.703 14.6137 186.409 13.9608 187.003 13.557C188.374 12.6234 190.07 12.2197 191.839 12.4115Z" fill="black"/>
<path id="Vector_5" d="M72.9782 6.22893C72.9753 11.1143 72.9753 11.2203 72.9244 11.1544C72.8934 11.12 72.8538 11.0914 72.8312 11.0914C72.8114 11.0914 72.7746 11.0656 72.752 11.0341C72.7294 11.0026 72.6898 10.9768 72.6616 10.9768C72.6333 10.9768 72.6107 10.9625 72.6107 10.9482C72.6107 10.931 72.5881 10.9196 72.5598 10.9196C72.5315 10.9196 72.492 10.8938 72.4694 10.8623C72.4467 10.8308 72.4072 10.805 72.3789 10.805C72.3506 10.805 72.328 10.7907 72.328 10.7764C72.328 10.7592 72.3026 10.7478 72.2715 10.7478C72.2404 10.7478 72.215 10.7334 72.215 10.7191C72.215 10.7019 72.1895 10.6905 72.1584 10.6905C72.1273 10.6905 72.1019 10.6762 72.1019 10.6618C72.1019 10.6447 72.0849 10.6332 72.0651 10.6332C72.0454 10.6332 72.0114 10.6074 71.9888 10.5759C71.9662 10.5416 71.9153 10.5187 71.8701 10.5187C71.8192 10.5187 71.7881 10.5015 71.7768 10.4614C71.7655 10.427 71.7344 10.4041 71.6949 10.4041C71.6242 10.4041 71.48 10.344 71.48 10.3096C71.48 10.2982 71.4433 10.2896 71.3952 10.2896C71.35 10.2896 71.3104 10.2753 71.3104 10.2609C71.3104 10.2438 71.285 10.2323 71.2539 10.2323C71.2228 10.2323 71.1974 10.218 71.1974 10.2037C71.1974 10.1865 71.1747 10.175 71.1465 10.175C71.1182 10.175 71.0786 10.1493 71.056 10.1178C71.0334 10.0863 70.9938 10.0605 70.9656 10.0605C70.9373 10.0605 70.9147 10.0462 70.9147 10.0318C70.9147 10.0147 70.8525 10.0032 70.7734 10.0032C70.697 10.0032 70.632 9.98889 70.632 9.97457C70.632 9.95739 70.6009 9.94593 70.5614 9.94593C70.5218 9.94593 70.4907 9.93162 70.4907 9.9173C70.4907 9.90012 70.4539 9.88866 70.4087 9.88866C70.3494 9.88866 70.3183 9.87148 70.307 9.83139C70.2957 9.7913 70.2646 9.77412 70.2052 9.77412C70.16 9.77412 70.1232 9.7598 70.1232 9.74548C70.1232 9.7283 70.0865 9.71684 70.0384 9.71684C69.9932 9.71684 69.9536 9.70253 69.9536 9.68821C69.9536 9.67103 69.9169 9.65957 69.8688 9.65957C69.8236 9.65957 69.784 9.64525 69.784 9.63093C69.784 9.61375 69.7331 9.6023 69.671 9.6023C69.6088 9.6023 69.5579 9.58798 69.5579 9.57366C69.5579 9.55648 69.507 9.54503 69.4448 9.54503C69.3826 9.54503 69.3318 9.53071 69.3318 9.51639C69.3318 9.49921 69.2865 9.48775 69.2328 9.48775C69.1791 9.48775 69.1339 9.47343 69.1339 9.45912C69.1339 9.44193 69.0717 9.43048 68.9926 9.43048C68.9162 9.43048 68.8512 9.41616 68.8512 9.40184C68.8512 9.38466 68.7947 9.37321 68.7269 9.37321C68.6505 9.37321 68.5968 9.35889 68.5912 9.33598C68.5799 9.31021 68.1644 9.30162 66.6323 9.30162C65.1003 9.30162 64.6847 9.31021 64.6763 9.33598C64.6678 9.35889 64.6141 9.37321 64.5377 9.37321C64.4699 9.37321 64.4134 9.38466 64.4134 9.40184C64.4134 9.41616 64.3512 9.43048 64.272 9.43048C64.1957 9.43048 64.1307 9.44193 64.1307 9.45912C64.1307 9.47343 64.0798 9.48775 64.0176 9.48775C63.9555 9.48775 63.9046 9.49921 63.9046 9.51639C63.9046 9.53071 63.8424 9.54503 63.7632 9.54503C63.6869 9.54503 63.6219 9.55362 63.6219 9.56507C63.6219 9.6023 63.4749 9.65957 63.3901 9.65957C63.3477 9.65957 63.311 9.67103 63.311 9.68821C63.311 9.70253 63.2742 9.71684 63.2262 9.71684C63.1809 9.71684 63.1414 9.7283 63.1414 9.74548C63.1414 9.7598 63.0961 9.77412 63.0424 9.77412C62.9379 9.77412 62.9209 9.79703 62.9774 9.8543C63.0029 9.88007 62.9972 9.88866 62.9492 9.88866C62.9152 9.88866 62.887 9.87434 62.887 9.86003C62.887 9.84284 62.8587 9.83139 62.8276 9.83139C62.7824 9.83139 62.7711 9.84571 62.7824 9.88866C62.7937 9.93734 62.7824 9.94593 62.7004 9.94593C62.6467 9.94593 62.6043 9.95739 62.6043 9.97457C62.6043 9.98889 62.5534 10.0032 62.4912 10.0032C62.4291 10.0032 62.3782 10.0147 62.3782 10.0318C62.3782 10.0462 62.3584 10.0605 62.333 10.0605C62.3075 10.0605 62.2651 10.0834 62.2397 10.1092C62.1747 10.1808 62.0786 10.2323 62.0107 10.2323C61.9796 10.2323 61.9542 10.2438 61.9542 10.2609C61.9542 10.2753 61.9287 10.2896 61.8976 10.2896C61.8666 10.2896 61.8411 10.301 61.8411 10.3182C61.8411 10.3325 61.8157 10.3468 61.7846 10.3468C61.7535 10.3468 61.728 10.3583 61.728 10.3755C61.728 10.3898 61.7083 10.4041 61.6856 10.4041C61.663 10.4041 61.6432 10.4156 61.6432 10.4328C61.6432 10.4471 61.6178 10.4614 61.5867 10.4614C61.5556 10.4614 61.5302 10.4728 61.5302 10.49C61.5302 10.5043 61.5047 10.5187 61.4736 10.5187C61.4426 10.5187 61.4171 10.5301 61.4171 10.5473C61.4171 10.5616 61.3917 10.5759 61.3606 10.5759C61.3295 10.5759 61.304 10.5874 61.304 10.6046C61.304 10.6189 61.2814 10.6332 61.2532 10.6332C61.2249 10.6332 61.1853 10.659 61.1627 10.6905C61.1401 10.722 61.1005 10.7478 61.0723 10.7478C61.044 10.7478 61.0214 10.7592 61.0214 10.7764C61.0214 10.7907 60.9959 10.805 60.9648 10.805C60.9338 10.805 60.9083 10.8165 60.9083 10.8337C60.9083 10.848 60.8857 10.8623 60.8574 10.8623C60.832 10.8623 60.7924 10.8881 60.7726 10.9196C60.7528 10.9511 60.7189 10.9768 60.6963 10.9768C60.6737 10.9768 60.6539 10.9883 60.6539 11.0055C60.6539 11.0198 60.6285 11.0341 60.5974 11.0341C60.5663 11.0341 60.5408 11.0456 60.5408 11.0628C60.5408 11.0771 60.5154 11.0914 60.4843 11.0914C60.4532 11.0914 60.4278 11.1028 60.4278 11.12C60.4278 11.1343 60.3939 11.1487 60.3543 11.1487C60.2949 11.1487 60.2836 11.1601 60.2949 11.2059C60.3034 11.2432 60.2949 11.2632 60.2695 11.2632C60.2469 11.2632 60.2299 11.2747 60.2299 11.2918C60.2299 11.3062 60.2045 11.3205 60.1734 11.3205C60.1423 11.3205 60.1168 11.3319 60.1168 11.3491C60.1168 11.3634 60.0914 11.3778 60.0603 11.3778C60.0236 11.3778 60.0038 11.3978 60.0038 11.435C60.0038 11.4723 59.984 11.4923 59.9472 11.4923C59.9162 11.4923 59.8907 11.5038 59.8907 11.5209C59.8907 11.5353 59.8653 11.5496 59.8342 11.5496C59.8031 11.5496 59.7776 11.561 59.7776 11.5782C59.7776 11.5925 59.7522 11.6068 59.7211 11.6068C59.6872 11.6068 59.6646 11.6269 59.6646 11.6527C59.6646 11.7157 59.5939 11.7787 59.5232 11.7787C59.4526 11.7787 59.3932 11.8331 59.3791 11.9104C59.3734 11.939 59.3395 11.9763 59.3028 11.9934C59.2688 12.0078 59.2406 12.0307 59.2406 12.0421C59.2406 12.0564 59.218 12.065 59.1869 12.065C59.1586 12.065 59.0879 12.1166 59.0314 12.1796C58.9749 12.2426 58.9099 12.2941 58.8873 12.2941C58.8646 12.2941 58.8449 12.3056 58.8449 12.3228C58.8449 12.3371 58.8251 12.3514 58.8025 12.3514C58.7516 12.3514 58.7487 12.3858 58.794 12.4316C58.8194 12.4573 58.8138 12.4659 58.7657 12.4659C58.7318 12.4659 58.7035 12.4774 58.7035 12.4946C58.7035 12.5089 58.6837 12.5232 58.6583 12.5232C58.6074 12.5232 58.5339 12.5891 58.5339 12.6378C58.5339 12.6893 58.4576 12.7523 58.3926 12.7523C58.3332 12.7523 57.8273 13.2391 57.8273 13.2964C57.8273 13.3136 57.8046 13.325 57.7792 13.325C57.7029 13.3279 57.6407 13.388 57.6181 13.4739C57.6068 13.5283 57.5813 13.5541 57.5446 13.5541C57.5135 13.5541 57.4881 13.5656 57.4881 13.5799C57.4881 13.6257 57.211 13.8978 57.1658 13.8978C57.1404 13.8978 57.1206 13.9207 57.1206 13.9493C57.1206 13.9779 57.0951 14.018 57.0641 14.0409C57.033 14.0638 57.0075 14.1039 57.0075 14.1326C57.0075 14.1612 56.9877 14.1841 56.9651 14.1841C56.9142 14.1841 56.6683 14.4247 56.6683 14.4733C56.6683 14.4905 56.6174 14.5535 56.5553 14.6137C56.4931 14.6738 56.4422 14.7454 56.4422 14.7683C56.4422 14.7941 56.4196 14.8141 56.3857 14.8141C56.3546 14.8141 56.3291 14.8256 56.3291 14.837C56.3291 14.8743 56.0549 15.1578 56.0182 15.1578C56.0012 15.1578 55.9871 15.1921 55.9899 15.2351C55.9984 15.3639 55.9927 15.3868 55.9447 15.3868C55.8938 15.3868 55.8203 15.4527 55.8203 15.5014C55.8203 15.5472 55.6875 15.6732 55.6366 15.6732C55.6112 15.6732 55.5942 15.699 55.5942 15.7477C55.5942 15.8221 55.5377 15.9023 55.4811 15.9023C55.4387 15.9023 55.3681 15.9739 55.3681 16.0168C55.3681 16.0655 55.2946 16.1314 55.2437 16.1314C55.2182 16.1314 55.1985 16.1543 55.1985 16.1887C55.1985 16.2202 55.2182 16.2459 55.2409 16.2459C55.2917 16.2459 55.4246 16.3719 55.4246 16.4206C55.4246 16.4378 55.4642 16.4893 55.5094 16.5323C55.5574 16.5753 55.5942 16.6268 55.5942 16.6468C55.5942 16.6669 55.6338 16.7184 55.679 16.7614C55.727 16.8043 55.7638 16.8559 55.7638 16.8759C55.7638 16.896 55.8034 16.9475 55.8486 16.9905C55.8966 17.0334 55.9334 17.0878 55.9334 17.105C55.9334 17.1251 55.956 17.1623 55.9843 17.1881C56.0097 17.2138 56.0634 17.2826 56.103 17.3398C56.1426 17.4 56.1821 17.4487 56.1963 17.4487C56.2076 17.4487 56.2161 17.4658 56.2161 17.4888C56.2161 17.5088 56.2556 17.5661 56.3009 17.6148C56.3489 17.6663 56.3857 17.7178 56.3857 17.7293C56.3857 17.7436 56.4252 17.7952 56.4705 17.8438C56.5185 17.8954 56.5553 17.9498 56.5553 17.967C56.5553 17.9842 56.5948 18.0357 56.6401 18.0787C56.6881 18.1216 56.7249 18.1703 56.7249 18.1846C56.7249 18.1989 56.7757 18.2677 56.8379 18.3364C56.9001 18.4051 56.951 18.4738 56.951 18.4853C56.951 18.4996 56.9906 18.5483 57.0358 18.5998C57.0838 18.6485 57.1206 18.7001 57.1206 18.7144C57.1206 18.7258 57.1602 18.7774 57.2054 18.8289C57.2534 18.8776 57.2902 18.9292 57.2902 18.9435C57.2902 18.9578 57.3213 19.0008 57.3609 19.0408C57.4004 19.0809 57.4315 19.1239 57.4315 19.1382C57.4315 19.1525 57.4485 19.1812 57.4683 19.2012C57.4881 19.2213 57.5361 19.2843 57.5729 19.3387C57.6096 19.3931 57.6577 19.4561 57.6774 19.4761C57.6972 19.4962 57.7142 19.5248 57.7142 19.5363C57.7142 19.5506 57.7594 19.6107 57.8131 19.6708C57.8668 19.731 57.9121 19.7911 57.9121 19.8054C57.9121 19.8198 57.9516 19.8684 57.9969 19.9114C58.0449 19.9543 58.0817 20.0059 58.0817 20.0259C58.0817 20.046 58.1212 20.0975 58.1665 20.1405C58.2145 20.1834 58.2513 20.235 58.2513 20.255C58.2513 20.2751 58.2908 20.3266 58.3361 20.3696C58.3841 20.4125 58.4209 20.4612 58.4209 20.4784C58.4209 20.4927 58.4604 20.5443 58.5057 20.5929C58.5537 20.6445 58.5905 20.7046 58.5905 20.7275C58.5905 20.7504 58.6102 20.7705 58.6329 20.7705C58.6555 20.7705 58.6753 20.7562 58.6753 20.7418C58.6753 20.7247 58.6894 20.7132 58.7035 20.7132C58.7431 20.7132 58.9297 20.5242 58.9297 20.4841C58.9297 20.4641 58.9805 20.4011 59.0427 20.3409C59.1049 20.2808 59.1558 20.2178 59.1558 20.2006C59.1558 20.1806 59.1925 20.1262 59.2378 20.0746C59.283 20.0259 59.3452 19.9543 59.3763 19.9171C59.4074 19.8828 59.4469 19.8541 59.4639 19.8541C59.4837 19.8541 59.495 19.8312 59.4893 19.8026C59.478 19.7482 59.4893 19.7281 59.6589 19.5534C59.7239 19.4818 59.7776 19.4131 59.7776 19.3959C59.7776 19.3788 59.8935 19.2499 60.032 19.1096C60.1734 18.9693 60.2864 18.8404 60.2864 18.8232C60.2864 18.8032 60.3373 18.7402 60.3995 18.68C60.4617 18.6199 60.5126 18.5483 60.5126 18.5254C60.5126 18.4996 60.5352 18.4796 60.5635 18.4796C60.5889 18.4767 60.6511 18.4252 60.6963 18.365C60.75 18.2963 60.8037 18.2533 60.8461 18.2505C60.9083 18.2505 60.9394 18.1646 60.8772 18.1646C60.8603 18.1646 60.8659 18.1445 60.8914 18.1216C60.914 18.0987 60.9535 18.0787 60.9762 18.0787C61.0299 18.0787 61.0355 18.0472 60.9875 17.9985C60.962 17.9727 60.9648 17.9641 61.0016 17.9641C61.0638 17.9641 61.304 17.7236 61.304 17.6634C61.304 17.6405 61.3238 17.6205 61.3493 17.6205C61.3719 17.6205 61.468 17.5432 61.5584 17.4487C61.6489 17.3542 61.7394 17.2768 61.7563 17.2768C61.8015 17.2768 62.039 17.0277 62.039 16.9762C62.039 16.9533 62.0588 16.9332 62.0814 16.9332C62.104 16.9332 62.1238 16.9189 62.1238 16.9046C62.1238 16.8874 62.1464 16.8759 62.1747 16.8759C62.2029 16.8759 62.2425 16.8502 62.2651 16.8158C62.3471 16.7013 62.398 16.6468 62.4319 16.6468C62.4517 16.6468 62.5167 16.5953 62.576 16.5323C62.6354 16.4693 62.7004 16.4178 62.7174 16.4178C62.7372 16.4178 62.788 16.3777 62.8304 16.3318C62.8728 16.2832 62.9265 16.2459 62.9492 16.2459C62.9689 16.2459 63.0057 16.2202 63.0283 16.1887C63.0509 16.1572 63.0905 16.1314 63.1188 16.1314C63.147 16.1314 63.1696 16.1171 63.1696 16.1028C63.1696 16.0856 63.1894 16.0741 63.2149 16.0741C63.2629 16.0741 63.3675 15.971 63.3675 15.9252C63.3675 15.9138 63.3929 15.9023 63.424 15.9023C63.4551 15.9023 63.4947 15.8765 63.5145 15.845C63.5343 15.8135 63.5739 15.7878 63.5993 15.7878C63.6276 15.7878 63.6502 15.7734 63.6502 15.7591C63.6502 15.7419 63.67 15.7305 63.6926 15.7305C63.7152 15.7305 63.735 15.7162 63.735 15.7018C63.735 15.6847 63.7576 15.6732 63.7859 15.6732C63.8141 15.6732 63.8537 15.6474 63.8763 15.6159C63.8989 15.5844 63.9385 15.5587 63.9668 15.5587C63.995 15.5587 64.0176 15.5443 64.0176 15.53C64.0176 15.5128 64.0431 15.5014 64.0742 15.5014C64.1053 15.5014 64.1307 15.4871 64.1307 15.4728C64.1307 15.4556 64.1703 15.4441 64.2155 15.4441C64.2636 15.4441 64.3003 15.4298 64.3003 15.4155C64.3003 15.3983 64.3257 15.3868 64.3568 15.3868C64.3879 15.3868 64.4134 15.3725 64.4134 15.3582C64.4134 15.341 64.4388 15.3296 64.4699 15.3296C64.501 15.3296 64.5264 15.3153 64.5264 15.3009C64.5264 15.2838 64.5717 15.2723 64.6254 15.2723C64.6791 15.2723 64.7243 15.258 64.7243 15.2437C64.7243 15.2265 64.7497 15.215 64.7808 15.215C64.8119 15.215 64.8374 15.2007 64.8374 15.1864C64.8374 15.1692 64.8769 15.1578 64.9222 15.1578C64.9702 15.1578 65.007 15.1434 65.007 15.1291C65.007 15.1119 65.0522 15.1005 65.1059 15.1005C65.1596 15.1005 65.2048 15.0862 65.2048 15.0718C65.2048 15.0547 65.2557 15.0432 65.3179 15.0432C65.3801 15.0432 65.431 15.0289 65.431 15.0146C65.431 14.9974 65.4819 14.9859 65.544 14.9859C65.6062 14.9859 65.6571 14.9716 65.6571 14.9573C65.6571 14.9401 65.7249 14.9287 65.8097 14.9287C65.8945 14.9287 65.9737 14.9143 65.9822 14.9C65.9935 14.8828 66.2422 14.8714 66.6351 14.8714C67.0393 14.8714 67.2683 14.8828 67.2683 14.9C67.2683 14.9143 67.3248 14.9287 67.3955 14.9287C67.4662 14.9287 67.5227 14.9401 67.5227 14.9573C67.5227 14.9745 67.599 14.9859 67.6923 14.9859C67.7856 14.9859 67.8619 14.9974 67.8619 15.0146C67.8619 15.0289 67.9128 15.0432 67.975 15.0432C68.0372 15.0432 68.088 15.0547 68.088 15.0718C68.088 15.0862 68.1276 15.1005 68.1728 15.1005C68.2209 15.1005 68.2576 15.1119 68.2576 15.1291C68.2576 15.1434 68.3085 15.1578 68.3707 15.1578C68.4329 15.1578 68.4838 15.1692 68.4838 15.1864C68.4838 15.2007 68.5092 15.215 68.5403 15.215C68.5714 15.215 68.5968 15.2265 68.5968 15.2437C68.5968 15.258 68.6279 15.2723 68.6675 15.2723C68.7071 15.2723 68.7382 15.2838 68.7382 15.3009C68.7382 15.3153 68.7777 15.3296 68.823 15.3296C68.871 15.3296 68.9078 15.341 68.9078 15.3582C68.9078 15.3725 68.9332 15.3868 68.9643 15.3868C68.9954 15.3868 69.0208 15.3983 69.0208 15.4098C69.0208 15.4241 69.0661 15.4498 69.1198 15.4728C69.1735 15.4957 69.2187 15.5214 69.2187 15.5358C69.2187 15.5472 69.2583 15.5587 69.3035 15.5587C69.3515 15.5587 69.3883 15.5701 69.3883 15.5873C69.3883 15.6016 69.4137 15.6159 69.4448 15.6159C69.4759 15.6159 69.5014 15.6274 69.5014 15.6446C69.5014 15.6589 69.5268 15.6732 69.5579 15.6732C69.5946 15.6732 69.6144 15.6933 69.6144 15.7305C69.6144 15.7677 69.6342 15.7878 69.671 15.7878C69.7021 15.7878 69.7275 15.7992 69.7275 15.8164C69.7275 15.8307 69.7642 15.845 69.8066 15.845C69.8547 15.845 69.8999 15.8679 69.9254 15.9052C70.0102 16.0283 70.061 16.0741 70.1063 16.0741C70.1317 16.0741 70.1515 16.0856 70.1515 16.1028C70.1515 16.1171 70.1769 16.1314 70.2052 16.1314C70.2363 16.1314 70.2702 16.1572 70.2787 16.1887C70.2872 16.2202 70.3098 16.2459 70.3239 16.2459C70.3381 16.2459 70.3494 16.2717 70.3494 16.3032C70.3494 16.3462 70.3691 16.3605 70.42 16.3605C70.4992 16.3605 70.8016 16.644 70.8016 16.7184C70.8016 16.7413 70.8214 16.7614 70.844 16.7614C70.9006 16.7614 71.0843 16.9475 71.0843 17.0048C71.0843 17.0277 71.1041 17.0478 71.1295 17.0478C71.2002 17.0478 71.2482 17.1165 71.2341 17.1995C71.2228 17.2568 71.2313 17.2768 71.2652 17.2768C71.2906 17.2768 71.3104 17.2883 71.3104 17.3055C71.3104 17.3198 71.3359 17.3341 71.367 17.3341C71.4263 17.3341 71.432 17.3542 71.4235 17.483C71.4207 17.5489 71.432 17.5632 71.4885 17.5632C71.5479 17.5632 71.5535 17.5747 71.5422 17.6491C71.5309 17.7207 71.5394 17.735 71.5903 17.735C71.6383 17.735 71.6496 17.7522 71.6496 17.8209C71.6496 17.8868 71.6609 17.9068 71.7062 17.9068C71.7514 17.9068 71.7627 17.9269 71.7627 17.9928C71.7627 18.0386 71.7768 18.0787 71.791 18.0787C71.8079 18.0787 71.8192 18.1044 71.8192 18.1359C71.8192 18.1732 71.839 18.1932 71.8758 18.1932C71.9125 18.1932 71.9323 18.2133 71.9323 18.2505C71.9323 18.282 71.9464 18.3078 71.9606 18.3078C71.9775 18.3078 71.9888 18.345 71.9888 18.3937C71.9888 18.4395 72.003 18.4796 72.0171 18.4796C72.0341 18.4796 72.0454 18.5053 72.0454 18.5368C72.0454 18.5683 72.0595 18.5941 72.0736 18.5941C72.0906 18.5941 72.1019 18.6313 72.1019 18.6743C72.1019 18.7201 72.1245 18.7717 72.1584 18.7946C72.1895 18.8175 72.215 18.8576 72.215 18.8862C72.215 18.9148 72.2291 18.9378 72.2432 18.9378C72.2602 18.9378 72.2715 18.9864 72.2715 19.0466C72.2715 19.121 72.2885 19.1668 72.328 19.1955C72.3619 19.2184 72.3846 19.2699 72.3846 19.3158C72.3846 19.3587 72.3987 19.3959 72.4128 19.3959C72.4298 19.3959 72.4411 19.4332 72.4411 19.4818C72.4411 19.5277 72.4552 19.5678 72.4694 19.5678C72.4863 19.5678 72.4976 19.6193 72.4976 19.6823C72.4976 19.7453 72.5118 19.7968 72.5259 19.7968C72.5429 19.7968 72.5542 19.8484 72.5542 19.9114C72.5542 19.9744 72.5683 20.0259 72.5824 20.0259C72.5994 20.0259 72.6107 20.1033 72.6107 20.1978C72.6107 20.3123 72.622 20.3696 72.6446 20.3696C72.67 20.3696 72.67 20.3782 72.6446 20.4039C72.6248 20.424 72.6107 20.5242 72.6107 20.6473C72.6107 20.8392 72.6163 20.8593 72.6757 20.885C72.7096 20.8993 72.7209 20.9108 72.704 20.9108C72.6757 20.9137 72.6672 21.0082 72.6672 21.2859C72.6672 21.5637 72.6757 21.6582 72.704 21.6611C72.7209 21.6611 72.7096 21.6725 72.6757 21.6868C72.6163 21.7126 72.6107 21.7327 72.6107 21.9245C72.6107 22.0477 72.6248 22.1479 72.6446 22.1679C72.67 22.1937 72.67 22.2023 72.6446 22.2023C72.622 22.2023 72.6107 22.2596 72.6107 22.3741C72.6107 22.4686 72.5994 22.5459 72.5824 22.5459C72.5683 22.5459 72.5542 22.5975 72.5542 22.6605C72.5542 22.7235 72.5429 22.775 72.5259 22.775C72.5118 22.775 72.4976 22.838 72.4976 22.9182C72.4976 22.9955 72.4863 23.0614 72.4694 23.0614C72.4552 23.0614 72.4411 23.0986 72.4411 23.1473C72.4411 23.1931 72.4298 23.2332 72.4128 23.2332C72.3987 23.2332 72.3846 23.2704 72.3846 23.3191C72.3846 23.385 72.3733 23.405 72.328 23.405C72.28 23.405 72.2715 23.4251 72.2715 23.5482C72.2715 23.6255 72.2602 23.6914 72.2432 23.6914C72.2291 23.6914 72.215 23.7143 72.215 23.7429C72.215 23.7716 72.1895 23.8117 72.1584 23.8346C72.1273 23.8575 72.1019 23.8976 72.1019 23.9262C72.1019 23.9548 72.0906 23.9778 72.0736 23.9778C72.0595 23.9778 72.0454 24.0035 72.0454 24.035C72.0454 24.0665 72.0341 24.0923 72.0171 24.0923C72.003 24.0923 71.9888 24.1181 71.9888 24.1496C71.9888 24.1811 71.9775 24.2068 71.9606 24.2068C71.9464 24.2068 71.9323 24.2441 71.9323 24.287C71.9323 24.3328 71.9097 24.3844 71.8758 24.4073C71.8447 24.4302 71.8192 24.4703 71.8192 24.4989C71.8192 24.5276 71.8079 24.5505 71.791 24.5505C71.7768 24.5505 71.7627 24.5734 71.7627 24.602C71.7627 24.6307 71.7373 24.6708 71.7062 24.6937C71.6751 24.7166 71.6496 24.7567 71.6496 24.7853C71.6496 24.8111 71.627 24.8512 71.5987 24.8712C71.5705 24.8913 71.5366 24.9428 71.5253 24.9858C71.5168 25.0316 71.4885 25.0659 71.4631 25.0659C71.432 25.0659 71.4207 25.0831 71.432 25.1232C71.4405 25.1547 71.4348 25.1805 71.4235 25.1805C71.4094 25.1805 71.3896 25.2063 71.3811 25.2378C71.3726 25.2693 71.3387 25.295 71.3076 25.295C71.2793 25.295 71.2539 25.3151 71.2539 25.338C71.2539 25.3609 71.268 25.3809 71.2878 25.3809C71.3048 25.3809 71.2906 25.4038 71.2595 25.4353C71.2256 25.464 71.1974 25.5098 71.1974 25.5356C71.1974 25.5613 71.1776 25.5814 71.155 25.5814C71.1295 25.5814 70.9712 25.7217 70.8016 25.8964C70.632 26.0682 70.4794 26.2114 70.4596 26.2114C70.4229 26.2114 70.2646 26.3775 70.2646 26.4147C70.2646 26.429 70.2419 26.4405 70.2109 26.4405C70.1826 26.4405 70.1289 26.4777 70.0921 26.5264C70.0554 26.5722 70.0102 26.6123 69.996 26.6123C69.9791 26.6123 69.948 26.6381 69.9254 26.6696C69.9027 26.7011 69.8632 26.7268 69.8349 26.7268C69.8066 26.7268 69.784 26.7383 69.784 26.7555C69.784 26.7698 69.7642 26.7841 69.7388 26.7841C69.7134 26.7841 69.6568 26.8213 69.6144 26.87C69.5664 26.9216 69.507 26.9559 69.4618 26.9559C69.4222 26.9559 69.3883 26.9674 69.3883 26.9846C69.3883 26.9989 69.3629 27.0132 69.3318 27.0132C69.3007 27.0132 69.2752 27.0247 69.2752 27.0418C69.2752 27.0562 69.2526 27.0705 69.2243 27.0705C69.1989 27.0705 69.1593 27.0963 69.1396 27.1278C69.1198 27.1593 69.0858 27.185 69.0632 27.185C69.0406 27.185 69.0208 27.1965 69.0208 27.2137C69.0208 27.228 68.9841 27.2423 68.936 27.2423C68.8908 27.2423 68.8512 27.2538 68.8512 27.2709C68.8512 27.2853 68.8258 27.2996 68.7947 27.2996C68.7636 27.2996 68.7382 27.311 68.7382 27.3282C68.7382 27.3425 68.7071 27.3568 68.6675 27.3568C68.6279 27.3568 68.5968 27.3683 68.5968 27.3855C68.5968 27.3998 68.5714 27.4141 68.5403 27.4141C68.5092 27.4141 68.4838 27.4256 68.4838 27.4428C68.4838 27.4571 68.447 27.4714 68.399 27.4714C68.3537 27.4714 68.3142 27.4828 68.3142 27.5C68.3142 27.5143 68.252 27.5287 68.1728 27.5287C68.0965 27.5287 68.0315 27.5401 68.0315 27.5573C68.0315 27.5716 67.9806 27.5859 67.9184 27.5859C67.8562 27.5859 67.8054 27.5974 67.8054 27.6146C67.8054 27.6289 67.7488 27.6432 67.6782 27.6432C67.6075 27.6432 67.551 27.6547 67.551 27.6718C67.551 27.6862 67.4803 27.7005 67.3955 27.7005C67.3107 27.7005 67.24 27.7119 67.24 27.7291C67.24 27.7463 67.0252 27.7578 66.6493 27.7578C66.2846 27.7578 66.05 27.7463 66.0387 27.7291C66.0302 27.7119 65.9398 27.7005 65.838 27.7005C65.7363 27.7005 65.6571 27.689 65.6571 27.6718C65.6571 27.6547 65.5949 27.6432 65.5158 27.6432C65.4395 27.6432 65.3744 27.6289 65.3744 27.6146C65.3744 27.5974 65.3377 27.5859 65.2896 27.5859C65.2444 27.5859 65.2048 27.5716 65.2048 27.5573C65.2048 27.5401 65.1596 27.5287 65.1059 27.5287C65.0522 27.5287 65.007 27.5143 65.007 27.5C65.007 27.4828 64.9702 27.4714 64.9222 27.4714C64.8769 27.4714 64.8374 27.4571 64.8374 27.4428C64.8374 27.4256 64.8006 27.4141 64.7526 27.4141C64.7073 27.4141 64.6678 27.4027 64.6678 27.3912C64.6678 27.3769 64.6225 27.3511 64.5688 27.3282C64.5151 27.3053 64.4699 27.2795 64.4699 27.2652C64.4699 27.2538 64.4332 27.2423 64.3851 27.2423C64.3399 27.2423 64.3003 27.228 64.3003 27.2137C64.3003 27.1965 64.2664 27.185 64.2268 27.185C64.1816 27.185 64.1222 27.1507 64.0742 27.0991C64.0318 27.0504 63.9752 27.0132 63.9498 27.0132C63.9244 27.0132 63.9046 26.9989 63.9046 26.9846C63.9046 26.9674 63.8678 26.9559 63.8198 26.9559C63.7745 26.9559 63.735 26.9416 63.735 26.9273C63.735 26.9101 63.718 26.8987 63.6982 26.8987C63.6784 26.8987 63.6445 26.8729 63.6219 26.8414C63.5993 26.8099 63.5625 26.7841 63.5371 26.7841C63.5145 26.7841 63.4777 26.7583 63.458 26.7268C63.4382 26.6953 63.3986 26.6696 63.3675 26.6696C63.3364 26.6696 63.311 26.6581 63.311 26.6438C63.311 26.5865 63.1442 26.4405 63.0792 26.4405C63.0424 26.4405 62.9944 26.4147 62.9718 26.3832C62.9492 26.3517 62.9124 26.3259 62.887 26.3259C62.8615 26.3259 62.8248 26.3002 62.8022 26.2687C62.7796 26.2372 62.7428 26.2114 62.723 26.2114C62.7032 26.2114 62.6354 26.1598 62.576 26.0968C62.5167 26.0338 62.4488 25.9823 62.4291 25.9823C62.4093 25.9823 62.3725 25.9565 62.3499 25.9222C62.2651 25.799 62.2142 25.7532 62.169 25.7532C62.1436 25.7532 62.1238 25.7418 62.1238 25.7303C62.1238 25.6931 61.8496 25.4096 61.8157 25.4096C61.7818 25.4096 60.9705 24.5877 60.7811 24.3615C60.7189 24.287 60.5691 24.1267 60.4504 24.0007C60.3288 23.8775 60.2299 23.763 60.2299 23.7458C60.2299 23.7315 60.1282 23.6169 60.0038 23.4909C59.8398 23.3248 59.7776 23.2447 59.7776 23.1903C59.7776 23.1416 59.7635 23.1187 59.7296 23.1187C59.7013 23.1187 59.6504 23.0814 59.6137 23.0385C59.5798 22.9955 59.5261 22.9297 59.495 22.8924C59.4639 22.8552 59.4384 22.7865 59.4384 22.7407C59.4384 22.6777 59.4243 22.6605 59.3791 22.6605C59.3028 22.6605 59.2151 22.5517 59.2123 22.4514C59.2123 22.3884 59.201 22.3741 59.1416 22.3741C59.1021 22.3741 59.071 22.3627 59.071 22.3455C59.071 22.3312 59.0399 22.2882 59.0003 22.2481C58.9607 22.208 58.9297 22.1422 58.9297 22.1021C58.9297 22.0563 58.9127 22.0305 58.8873 22.0305C58.8109 22.0305 58.6329 21.8272 58.6413 21.7527C58.647 21.7069 58.6357 21.6868 58.6046 21.6868C58.5396 21.6868 58.4209 21.558 58.4209 21.4864C58.4209 21.4205 58.3587 21.3432 58.3078 21.3432C58.2541 21.3432 58.1749 21.2487 58.2173 21.2344C58.2767 21.2143 58.2569 21.1141 58.1947 21.1141C58.1636 21.1141 58.1382 21.0998 58.1382 21.0855C58.1382 21.0683 58.1184 21.0568 58.0958 21.0568C58.0703 21.0568 58.0449 21.0225 58.0364 20.9709C58.0251 20.9223 58.0082 20.885 57.994 20.885C57.9799 20.885 57.9686 20.8593 57.9686 20.8278C57.9686 20.7848 57.9488 20.7705 57.8979 20.7705C57.8414 20.7705 57.8216 20.7533 57.8103 20.6846C57.799 20.6359 57.782 20.5987 57.7679 20.5987C57.7538 20.5987 57.7425 20.5729 57.7425 20.5414C57.7425 20.5042 57.7227 20.4841 57.6916 20.4841C57.6181 20.4841 57.5729 20.4268 57.5729 20.3352C57.5729 20.2808 57.5587 20.255 57.5305 20.255C57.4654 20.255 57.3467 20.1233 57.3467 20.0546C57.3467 19.9858 57.228 19.8541 57.163 19.8541C57.1347 19.8541 57.1206 19.8255 57.1206 19.7682C57.1206 19.7023 57.1093 19.6823 57.0641 19.6823C57.0273 19.6823 57.0075 19.6623 57.0075 19.625C57.0075 19.5935 56.9962 19.5678 56.9793 19.5678C56.9651 19.5678 56.951 19.542 56.951 19.5105C56.951 19.4704 56.9312 19.4532 56.8916 19.4532C56.8407 19.4532 56.8351 19.4475 56.8662 19.4074C56.8973 19.3702 56.8945 19.3616 56.8436 19.3473C56.7814 19.3329 56.7701 19.31 56.7786 19.2155C56.7842 19.1812 56.7644 19.1668 56.7164 19.1668C56.6598 19.1668 56.6485 19.1554 56.6598 19.1096C56.6711 19.0723 56.6598 19.0523 56.6316 19.0523C56.5835 19.0523 56.5553 18.9922 56.5553 18.8919C56.5553 18.8375 56.5411 18.8232 56.4874 18.8232C56.4422 18.8232 56.4111 18.8032 56.3998 18.7659C56.3913 18.7344 56.3687 18.7087 56.3546 18.7087C56.3404 18.7087 56.3291 18.6886 56.3291 18.6628C56.3291 18.6399 56.2782 18.5683 56.2161 18.5082C56.1539 18.4481 56.103 18.3851 56.103 18.365C56.103 18.3192 55.9701 18.1932 55.9193 18.1932C55.8938 18.1932 55.8769 18.1674 55.8769 18.1216C55.8769 18.0386 55.7638 17.9068 55.6931 17.9068C55.6677 17.9068 55.6507 17.8811 55.6507 17.8353C55.6507 17.7522 55.5377 17.6205 55.4642 17.6205C55.4274 17.6205 55.4246 17.6119 55.4529 17.5775C55.4953 17.526 55.4698 17.4487 55.4105 17.4487C55.3878 17.4487 55.3681 17.4372 55.3681 17.4258C55.3681 17.4114 55.3426 17.3713 55.3115 17.3341C55.2804 17.2969 55.255 17.2453 55.255 17.2138C55.255 17.1852 55.238 17.1623 55.2211 17.1623C55.2013 17.1623 55.1589 17.1222 55.1278 17.0764C55.0967 17.0306 55.0628 16.9905 55.0515 16.9905C55.0373 16.9905 55.0289 16.9704 55.0289 16.9447C55.0289 16.9218 54.9525 16.8244 54.8593 16.7328C54.766 16.6411 54.6897 16.5495 54.6897 16.5323C54.6897 16.5151 54.6275 16.4378 54.5483 16.3605C54.472 16.2832 54.407 16.2058 54.407 16.1887C54.407 16.1715 54.3165 16.0684 54.2091 15.9596C54.0989 15.8479 54.0226 15.7591 54.0395 15.7591C54.0537 15.7591 54.0678 15.7391 54.0678 15.7162C54.0678 15.6933 54.0424 15.6732 54.0113 15.6732C53.9802 15.6732 53.9547 15.6618 53.9547 15.6474C53.9547 15.6331 53.9067 15.5673 53.8501 15.5043C53.6805 15.321 53.6721 15.3067 53.6721 15.2293C53.6721 15.1721 53.6579 15.1578 53.6014 15.1578C53.5618 15.1578 53.5307 15.1463 53.5307 15.1291C53.5307 15.1148 53.3979 14.9659 53.2339 14.7998C53.07 14.6337 52.9371 14.4877 52.9371 14.4705C52.9371 14.4533 52.858 14.3588 52.7619 14.2586C52.6629 14.1555 52.5357 14.018 52.4792 13.9493C52.287 13.7202 51.9535 13.3823 51.9224 13.3823C51.9026 13.3823 51.7641 13.2534 51.6086 13.0959C51.4531 12.9384 51.3118 12.8096 51.292 12.8096C51.2694 12.8096 51.2355 12.7809 51.2129 12.7494C51.1281 12.6263 50.9613 12.4659 50.9189 12.4659C50.8935 12.4659 50.8737 12.4545 50.8737 12.4402C50.8737 12.4001 50.7154 12.2368 50.6758 12.2368C50.6588 12.2368 50.5938 12.1853 50.5345 12.1223C50.4751 12.0593 50.4101 12.0078 50.3931 12.0078C50.3762 12.0078 50.3112 11.9562 50.2518 11.8932C50.1924 11.8302 50.1274 11.7787 50.1105 11.7787C50.0907 11.7787 50.0398 11.7386 49.9974 11.6928C49.955 11.6441 49.9013 11.6068 49.8787 11.6068C49.8589 11.6068 49.8221 11.5811 49.7995 11.5496C49.7769 11.5181 49.7458 11.4923 49.7289 11.4923C49.7119 11.4923 49.6808 11.4665 49.6582 11.435C49.6356 11.4035 49.596 11.3778 49.5677 11.3778C49.5423 11.3778 49.5112 11.352 49.5027 11.3205C49.4914 11.2833 49.4603 11.2632 49.4179 11.2632C49.3755 11.2632 49.3444 11.2432 49.3331 11.2059C49.3247 11.1744 49.2936 11.1487 49.2681 11.1487C49.2399 11.1487 49.2003 11.1229 49.1777 11.0914C49.1551 11.0599 49.1155 11.0341 49.0872 11.0341C49.0589 11.0341 49.0363 11.0198 49.0363 11.0055C49.0363 10.9883 49.0137 10.9768 48.9855 10.9768C48.9572 10.9768 48.9176 10.9511 48.895 10.9196C48.8724 10.8881 48.8328 10.8623 48.8046 10.8623C48.7763 10.8623 48.7537 10.848 48.7537 10.8337C48.7537 10.8165 48.7198 10.805 48.6802 10.805C48.635 10.805 48.5756 10.7707 48.5275 10.7191C48.4851 10.6704 48.423 10.6332 48.389 10.6332C48.3551 10.6332 48.3297 10.6189 48.3297 10.6046C48.3297 10.5874 48.3042 10.5759 48.2731 10.5759C48.242 10.5759 48.2166 10.5616 48.2166 10.5473C48.2166 10.5301 48.1912 10.5187 48.1601 10.5187C48.129 10.5187 48.1035 10.5043 48.1035 10.49C48.1035 10.4728 48.0781 10.4614 48.047 10.4614C48.0159 10.4614 47.9905 10.4499 47.9905 10.4385C47.9905 10.4242 47.9452 10.3984 47.8915 10.3755C47.8378 10.3526 47.7926 10.3268 47.7926 10.3125C47.7926 10.301 47.7756 10.2896 47.753 10.2896C47.7276 10.2896 47.7191 10.2695 47.7276 10.2323C47.7389 10.1893 47.7276 10.175 47.6824 10.175C47.6513 10.175 47.623 10.1865 47.623 10.2037C47.623 10.218 47.5976 10.2323 47.5665 10.2323C47.5354 10.2323 47.5099 10.218 47.5099 10.2037C47.5099 10.1865 47.4873 10.175 47.4591 10.175C47.4308 10.175 47.3912 10.1493 47.3686 10.1178C47.346 10.0863 47.3064 10.0605 47.2782 10.0605C47.2499 10.0605 47.2273 10.0462 47.2273 10.0318C47.2273 10.0147 47.1764 10.0032 47.1142 10.0032C47.052 10.0032 47.0011 9.98889 47.0011 9.97457C47.0011 9.95739 46.97 9.94593 46.9305 9.94593C46.8909 9.94593 46.8598 9.93162 46.8598 9.9173C46.8598 9.90012 46.8146 9.88866 46.7609 9.88866C46.6817 9.88866 46.6619 9.87721 46.6619 9.83139C46.6619 9.78843 46.6422 9.77412 46.58 9.77412C46.5319 9.77412 46.4867 9.7598 46.4782 9.74548C46.4697 9.7283 46.4302 9.71684 46.3906 9.71684C46.3538 9.71684 46.3227 9.70253 46.3227 9.68821C46.3227 9.67103 46.286 9.65957 46.2379 9.65957C46.1927 9.65957 46.1531 9.64525 46.1531 9.63093C46.1531 9.61375 46.1023 9.6023 46.0401 9.6023C45.9779 9.6023 45.927 9.58798 45.927 9.57366C45.927 9.55648 45.8903 9.54503 45.8422 9.54503C45.797 9.54503 45.7574 9.53071 45.7574 9.51639C45.7574 9.49921 45.7122 9.48775 45.6585 9.48775C45.6048 9.48775 45.5595 9.47343 45.5595 9.45912C45.5595 9.44193 45.4832 9.43048 45.3899 9.43048C45.2967 9.43048 45.2203 9.41902 45.2203 9.40184C45.2203 9.38466 45.1779 9.37321 45.1242 9.37321C45.0705 9.37321 45.0225 9.35602 45.0168 9.33598C45.0055 9.31021 44.5957 9.30162 43.0862 9.30162C41.5768 9.30162 41.1669 9.31021 41.1584 9.33598C41.15 9.36175 41.0878 9.37321 40.9775 9.37321C40.8842 9.37321 40.8108 9.38466 40.8108 9.40184C40.8108 9.41616 40.7542 9.43048 40.6836 9.43048C40.6129 9.43048 40.5564 9.44193 40.5564 9.45912C40.5564 9.47343 40.5055 9.48775 40.4433 9.48775C40.3811 9.48775 40.3302 9.49921 40.3302 9.51639C40.3302 9.53071 40.2793 9.54503 40.2172 9.54503C40.155 9.54503 40.1041 9.55648 40.1041 9.57366C40.1041 9.58798 40.0476 9.6023 39.9797 9.6023C39.909 9.6023 39.844 9.61375 39.8356 9.63093C39.8271 9.64525 39.7875 9.65957 39.7479 9.65957C39.7112 9.65957 39.6801 9.67103 39.6801 9.68821C39.6801 9.70253 39.6433 9.71684 39.5953 9.71684C39.5501 9.71684 39.5105 9.7283 39.5105 9.74548C39.5105 9.7598 39.4653 9.77412 39.4087 9.77412C39.3211 9.77412 39.3098 9.78271 39.3268 9.83139C39.3409 9.87721 39.3324 9.88866 39.273 9.88866C39.2335 9.88866 39.1996 9.90012 39.1996 9.9173C39.1996 9.93162 39.1487 9.94593 39.0865 9.94593C39.0243 9.94593 38.9734 9.95739 38.9734 9.97457C38.9734 9.98889 38.9225 10.0032 38.8604 10.0032C38.7982 10.0032 38.7473 10.0147 38.7473 10.0318C38.7473 10.0462 38.7134 10.0605 38.6738 10.0605C38.6314 10.0605 38.5777 10.0834 38.5523 10.112C38.5268 10.1407 38.4646 10.1836 38.4166 10.2065C38.3657 10.2266 38.3233 10.2552 38.3233 10.2667C38.3233 10.281 38.2979 10.2896 38.2668 10.2896C38.2357 10.2896 38.2102 10.301 38.2102 10.3182C38.2102 10.3325 38.1848 10.3468 38.1537 10.3468C38.1226 10.3468 38.0972 10.3583 38.0972 10.3755C38.0972 10.3898 38.0661 10.4041 38.0265 10.4041C37.9869 10.4041 37.9558 10.4156 37.9558 10.4328C37.9558 10.4471 37.9332 10.4614 37.9049 10.4614C37.8767 10.4614 37.8371 10.4872 37.8145 10.5187C37.7919 10.5502 37.7523 10.5759 37.724 10.5759C37.6958 10.5759 37.6732 10.5874 37.6732 10.6046C37.6732 10.6189 37.6477 10.6332 37.6166 10.6332C37.5855 10.6332 37.5601 10.6447 37.5601 10.6618C37.5601 10.6762 37.5347 10.6905 37.5036 10.6905C37.4725 10.6905 37.447 10.7019 37.447 10.7191C37.447 10.7334 37.4216 10.7478 37.3905 10.7478C37.3594 10.7478 37.334 10.7592 37.334 10.7764C37.334 10.7907 37.3085 10.805 37.2774 10.805C37.2463 10.805 37.2209 10.8165 37.2209 10.8337C37.2209 10.848 37.2011 10.8623 37.1757 10.8623C37.1276 10.8623 37.023 10.9654 37.023 11.0112C37.023 11.0227 36.9976 11.0341 36.9665 11.0341C36.9354 11.0341 36.91 11.0456 36.91 11.0628C36.91 11.0771 36.8647 11.0914 36.8082 11.0914C36.7206 11.0914 36.7064 11.1 36.7206 11.1487C36.7319 11.1973 36.7206 11.2059 36.6556 11.2059C36.599 11.2059 36.5679 11.2231 36.5566 11.2632C36.5481 11.2947 36.5199 11.3205 36.4944 11.3205C36.4718 11.3205 36.4153 11.3577 36.3729 11.4064C36.3305 11.4522 36.2796 11.4923 36.2627 11.4923C36.2146 11.4923 36.0902 11.6269 36.0902 11.6784C36.0902 11.7013 36.0648 11.7214 36.0337 11.7214C36.0026 11.7214 35.9772 11.7328 35.9772 11.75C35.9772 11.7643 35.9545 11.7787 35.9263 11.7787C35.898 11.7787 35.8584 11.8044 35.8358 11.8359C35.8132 11.8674 35.7765 11.8932 35.7567 11.8932C35.7143 11.8932 35.3836 12.2311 35.3836 12.2712C35.3836 12.2827 35.3609 12.2941 35.3355 12.2941C35.3072 12.2941 35.2535 12.3342 35.214 12.3829C35.1744 12.4316 34.9991 12.6177 34.8267 12.7981C34.6515 12.9757 34.5073 13.1389 34.5073 13.1561C34.5073 13.1733 34.4706 13.2248 34.4225 13.2678C34.3773 13.3107 34.3377 13.3623 34.3377 13.3794C34.3377 13.4338 34.2162 13.5541 34.1624 13.5541C34.1314 13.5541 34.1116 13.5742 34.1116 13.6114C34.1116 13.6429 34.1003 13.6687 34.0861 13.6687C34.072 13.6687 34.055 13.7059 34.0466 13.7546C34.0324 13.8233 34.0126 13.8405 33.9561 13.8405C33.9052 13.8405 33.8854 13.8548 33.8854 13.8978C33.8854 13.9293 33.8713 13.955 33.8543 13.955C33.8374 13.955 33.8289 13.9808 33.8374 14.0123C33.8487 14.0581 33.8374 14.0696 33.7808 14.0696C33.7328 14.0696 33.713 14.0839 33.7187 14.1183C33.7271 14.2128 33.7158 14.2357 33.6536 14.25C33.6028 14.2643 33.5999 14.2729 33.631 14.3101C33.6536 14.3416 33.6565 14.3559 33.6339 14.3559C33.6169 14.3559 33.6028 14.3817 33.6028 14.4132C33.6028 14.4504 33.583 14.4705 33.5462 14.4705C33.5095 14.4705 33.4897 14.4905 33.4897 14.5278C33.4897 14.5593 33.4784 14.585 33.4614 14.585C33.4473 14.585 33.4332 14.6079 33.4332 14.6366C33.4332 14.6652 33.4077 14.7053 33.3766 14.7282C33.3427 14.7511 33.3201 14.8027 33.3201 14.8485C33.3201 14.9086 33.306 14.9287 33.2636 14.9287C33.2268 14.9287 33.207 14.9487 33.207 14.9859C33.207 15.0174 33.1957 15.0432 33.1788 15.0432C33.1646 15.0432 33.1505 15.069 33.1505 15.1005C33.1505 15.132 33.1392 15.1578 33.1222 15.1578C33.1081 15.1578 33.094 15.1807 33.094 15.2093C33.094 15.2379 33.0685 15.278 33.0374 15.3009C33.0063 15.3238 32.9809 15.3639 32.9809 15.3926C32.9809 15.4212 32.9696 15.4441 32.9526 15.4441C32.9385 15.4441 32.9244 15.4813 32.9244 15.53C32.9244 15.5758 32.9131 15.6159 32.8961 15.6159C32.882 15.6159 32.8678 15.6417 32.8678 15.6732C32.8678 15.7047 32.8565 15.7305 32.8396 15.7305C32.8254 15.7305 32.8113 15.7563 32.8113 15.7878C32.8113 15.825 32.7915 15.845 32.7548 15.845C32.7067 15.845 32.6982 15.8651 32.6982 15.9596C32.6982 16.0226 32.6869 16.0741 32.67 16.0741C32.6558 16.0741 32.6417 16.0999 32.6417 16.1314C32.6417 16.1629 32.6276 16.1887 32.6106 16.1887C32.5936 16.1887 32.5852 16.2144 32.5936 16.2459C32.605 16.2918 32.5936 16.3032 32.5399 16.3032C32.4693 16.3032 32.4438 16.3719 32.5088 16.3977C32.5258 16.4063 32.5117 16.4149 32.4749 16.4149C32.4184 16.4178 32.4099 16.4292 32.4212 16.5037C32.4297 16.5609 32.4212 16.5896 32.3958 16.5896C32.3477 16.5896 32.3477 16.6955 32.3958 16.7127C32.4156 16.7242 32.4043 16.7356 32.3647 16.7499C32.3195 16.7643 32.3025 16.7843 32.311 16.8215C32.3195 16.8502 32.3082 16.8788 32.2855 16.8874C32.2403 16.9046 32.2318 17.0363 32.2742 17.0621C32.294 17.0735 32.2827 17.1022 32.246 17.1337C32.2092 17.1652 32.1894 17.2196 32.1894 17.2883C32.1894 17.3456 32.1781 17.3914 32.1612 17.3914C32.147 17.3914 32.1329 17.4286 32.1329 17.4773C32.1329 17.5231 32.1216 17.5632 32.1046 17.5632C32.0905 17.5632 32.0764 17.6148 32.0764 17.6778C32.0764 17.7408 32.0651 17.7923 32.0481 17.7923C32.034 17.7923 32.0198 17.8295 32.0198 17.8782C32.0198 17.924 32.0085 17.9641 31.9916 17.9641C31.9774 17.9641 31.9633 18.0157 31.9633 18.0787C31.9633 18.1417 31.952 18.1932 31.935 18.1932C31.9209 18.1932 31.9068 18.2448 31.9068 18.3078C31.9068 18.3708 31.8955 18.4223 31.8785 18.4223C31.8644 18.4223 31.8502 18.4738 31.8502 18.5368C31.8502 18.5998 31.8389 18.6514 31.822 18.6514C31.8078 18.6514 31.7937 18.7144 31.7937 18.7946C31.7937 18.8719 31.7824 18.9378 31.7654 18.9378C31.7485 18.9378 31.7372 19.0237 31.7372 19.1353C31.7372 19.2699 31.7259 19.3387 31.7033 19.3444C31.675 19.3558 31.6665 19.7739 31.6665 21.3146C31.6665 22.8552 31.675 23.2733 31.7033 23.2819C31.7259 23.2905 31.7372 23.3535 31.7372 23.4652C31.7372 23.5597 31.7485 23.6341 31.7654 23.6341C31.7824 23.6341 31.7937 23.6971 31.7937 23.7773C31.7937 23.8546 31.8078 23.9205 31.822 23.9205C31.8389 23.9205 31.8502 23.972 31.8502 24.035C31.8502 24.098 31.8644 24.1496 31.8785 24.1496C31.8955 24.1496 31.9068 24.2126 31.9068 24.2928C31.9068 24.3701 31.9209 24.4359 31.935 24.4359C31.952 24.4359 31.9633 24.4875 31.9633 24.5505C31.9633 24.6135 31.9774 24.665 31.9916 24.665C32.0085 24.665 32.0198 24.7023 32.0198 24.7509C32.0198 24.8025 32.034 24.8368 32.0566 24.8368C32.082 24.8368 32.0905 24.8655 32.082 24.9228C32.0735 24.9743 32.082 25.0087 32.1018 25.0087C32.1188 25.0087 32.1329 25.0573 32.1329 25.1232C32.1329 25.1862 32.147 25.2378 32.1612 25.2378C32.1781 25.2378 32.1894 25.275 32.1894 25.3237C32.1894 25.3695 32.2007 25.4096 32.2177 25.4096C32.2318 25.4096 32.2375 25.4468 32.229 25.4955C32.2149 25.5642 32.2205 25.5814 32.2601 25.5814C32.2997 25.5814 32.3025 25.59 32.2742 25.6243C32.246 25.6587 32.2516 25.6702 32.3053 25.6931C32.3421 25.7074 32.3562 25.7217 32.3392 25.7217C32.2884 25.7246 32.2912 25.8678 32.3421 25.8678C32.3675 25.8678 32.376 25.8878 32.3675 25.925C32.3562 25.9623 32.3675 25.9823 32.393 25.9823C32.4212 25.9823 32.4297 26.0052 32.4212 26.0682C32.4127 26.1198 32.4212 26.1541 32.441 26.1541C32.458 26.1541 32.4721 26.1799 32.4721 26.2114C32.4721 26.2429 32.4919 26.2687 32.5145 26.2687C32.5399 26.2687 32.5654 26.303 32.5767 26.3546C32.5852 26.4004 32.6021 26.4405 32.6163 26.4405C32.6304 26.4405 32.6417 26.4663 32.6417 26.4978C32.6417 26.5293 32.6558 26.555 32.67 26.555C32.6869 26.555 32.6982 26.5808 32.6982 26.6123C32.6982 26.6438 32.7124 26.6696 32.7265 26.6696C32.7435 26.6696 32.7548 26.6953 32.7548 26.7268C32.7548 26.7583 32.7689 26.7841 32.783 26.7841C32.8 26.7841 32.8113 26.8099 32.8113 26.8414C32.8113 26.8729 32.8254 26.8987 32.8396 26.8987C32.8565 26.8987 32.8678 26.9244 32.8678 26.9559C32.8678 26.9874 32.882 27.0132 32.8961 27.0132C32.9131 27.0132 32.9244 27.039 32.9244 27.0705C32.9244 27.102 32.9385 27.1278 32.9526 27.1278C32.9696 27.1278 32.9809 27.1535 32.9809 27.185C32.9809 27.2165 32.995 27.2423 33.0092 27.2423C33.0261 27.2423 33.0374 27.2652 33.0374 27.2938C33.0374 27.3225 33.0629 27.3626 33.094 27.3855C33.1251 27.4084 33.1505 27.4485 33.1505 27.4771C33.1505 27.5058 33.1646 27.5287 33.1788 27.5287C33.1957 27.5287 33.207 27.5516 33.207 27.5802C33.207 27.6088 33.2325 27.6489 33.2636 27.6718C33.2947 27.6948 33.3201 27.7348 33.3201 27.7635C33.3201 27.7921 33.3342 27.815 33.3484 27.815C33.3653 27.815 33.3766 27.8523 33.3766 27.9009C33.3766 27.9668 33.3879 27.9868 33.4332 27.9868C33.4671 27.9868 33.4897 28.0069 33.4897 28.0327C33.4897 28.0584 33.5264 28.1128 33.5717 28.1587C33.6339 28.2131 33.648 28.2446 33.6254 28.2675C33.5745 28.319 33.6226 28.3878 33.7074 28.3878C33.7667 28.3878 33.7752 28.3963 33.7498 28.4221C33.6904 28.4823 33.7102 28.5596 33.7837 28.5596C33.8543 28.5596 33.8854 28.6054 33.8854 28.7199C33.8854 28.7743 33.8996 28.7887 33.9533 28.7887C33.9985 28.7887 34.0296 28.8087 34.0409 28.8459C34.0494 28.8774 34.072 28.9032 34.0861 28.9032C34.1003 28.9032 34.1116 28.9404 34.1116 28.9891C34.1116 29.0493 34.1257 29.075 34.1596 29.075C34.2077 29.075 34.4508 29.3127 34.4508 29.3643C34.4508 29.3786 34.5525 29.4931 34.6769 29.6191C34.8013 29.7451 34.903 29.8654 34.903 29.8912C34.903 29.9141 34.9228 29.9341 34.9454 29.9341C34.9709 29.9341 35.0218 29.9656 35.0613 30.0057C35.1009 30.0458 35.1179 30.0773 35.1009 30.0773C35.0868 30.0773 35.0726 30.0973 35.0726 30.1203C35.0726 30.146 35.0981 30.1632 35.132 30.1632C35.1659 30.1632 35.2281 30.2033 35.2705 30.2491C35.3129 30.2978 35.3694 30.335 35.392 30.335C35.4203 30.335 35.4288 30.3551 35.4203 30.3923C35.409 30.4381 35.4203 30.4496 35.4797 30.4496C35.5192 30.4496 35.5532 30.461 35.5532 30.4753C35.5532 30.5154 35.7115 30.6787 35.751 30.6787C35.768 30.6787 35.833 30.7302 35.8924 30.7932C35.9517 30.8562 36.0167 30.9078 36.0337 30.9078C36.0535 30.9078 36.1044 30.945 36.1468 30.9937C36.1892 31.0395 36.24 31.0796 36.2598 31.0796C36.2796 31.0796 36.3305 31.1168 36.3729 31.1655C36.4153 31.2113 36.4718 31.2514 36.4944 31.2514C36.5199 31.2514 36.5481 31.2772 36.5566 31.3087C36.5651 31.3402 36.5962 31.3659 36.6216 31.3659C36.6471 31.3659 36.7008 31.406 36.7375 31.4518C36.7743 31.5005 36.828 31.5378 36.8563 31.5378C36.8873 31.5378 36.91 31.5492 36.91 31.5664C36.91 31.5807 36.9297 31.595 36.9524 31.595C36.975 31.595 36.9948 31.6208 36.9948 31.6523C36.9948 31.6953 37.0145 31.7096 37.0739 31.7096C37.1191 31.7096 37.17 31.7325 37.1926 31.7668C37.2152 31.7983 37.2548 31.8241 37.2831 31.8241C37.3113 31.8241 37.334 31.8356 37.334 31.8528C37.334 31.8671 37.3594 31.8814 37.3905 31.8814C37.4216 31.8814 37.447 31.8928 37.447 31.91C37.447 31.9243 37.4725 31.9387 37.5036 31.9387C37.5347 31.9387 37.5601 31.9501 37.5601 31.9673C37.5601 31.9816 37.5827 31.9959 37.611 31.9959C37.6392 31.9959 37.6788 32.0217 37.7014 32.0532C37.724 32.0847 37.7636 32.1105 37.7919 32.1105C37.8201 32.1105 37.8428 32.1219 37.8428 32.1391C37.8428 32.1534 37.8682 32.1678 37.8993 32.1678C37.9304 32.1678 37.9558 32.1792 37.9558 32.1964C37.9558 32.2107 37.9756 32.225 37.9982 32.225C38.0208 32.225 38.0406 32.2365 38.0406 32.2537C38.0406 32.268 38.0802 32.2823 38.1254 32.2823C38.1735 32.2823 38.2102 32.2938 38.2102 32.3109C38.2102 32.3253 38.2357 32.3396 38.2668 32.3396C38.2979 32.3396 38.3233 32.351 38.3233 32.3625C38.3233 32.3768 38.3685 32.4026 38.4222 32.4255C38.4759 32.4484 38.5212 32.4742 38.5212 32.4885C38.5212 32.4999 38.5607 32.5114 38.606 32.5114C38.654 32.5114 38.6908 32.5228 38.6908 32.54C38.6908 32.5543 38.7162 32.5687 38.7473 32.5687C38.7784 32.5687 38.8038 32.5801 38.8038 32.5973C38.8038 32.6116 38.8547 32.6259 38.9169 32.6259C38.9791 32.6259 39.03 32.6374 39.03 32.6546C39.03 32.6689 39.0695 32.6832 39.1148 32.6832C39.1628 32.6832 39.1996 32.6947 39.1996 32.7118C39.1996 32.7262 39.2391 32.7405 39.2844 32.7405C39.3324 32.7405 39.3692 32.7519 39.3692 32.7691C39.3692 32.7834 39.4002 32.7978 39.4398 32.7978C39.4794 32.7978 39.5105 32.8092 39.5105 32.8264C39.5105 32.8407 39.5501 32.855 39.5953 32.855C39.6433 32.855 39.6801 32.8665 39.6801 32.8837C39.6801 32.898 39.7112 32.9123 39.7479 32.9123C39.7875 32.9123 39.8271 32.9238 39.8356 32.9409C39.844 32.9553 39.8977 32.9696 39.9514 32.9696C40.0052 32.9696 40.0476 32.981 40.0476 32.9982C40.0476 33.0125 40.0984 33.0268 40.1606 33.0268C40.2228 33.0268 40.2737 33.0383 40.2737 33.0555C40.2737 33.0698 40.3246 33.0841 40.3868 33.0841C40.4489 33.0841 40.4998 33.0956 40.4998 33.1128C40.4998 33.1271 40.5705 33.1414 40.6553 33.1414C40.7401 33.1414 40.8108 33.1528 40.8108 33.17C40.8108 33.1843 40.8616 33.1987 40.921 33.1987C40.9917 33.1987 41.0369 33.213 41.0482 33.2416C41.0623 33.2788 41.3054 33.2846 43.0325 33.276C44.5787 33.2731 45.0055 33.2617 45.0168 33.233C45.0281 33.1929 45.1638 33.1843 45.1638 33.2273C45.1638 33.2416 45.1949 33.2559 45.2345 33.2559C45.2854 33.2559 45.3051 33.2416 45.3051 33.1987C45.3051 33.15 45.3249 33.1414 45.4323 33.1414C45.503 33.1414 45.5595 33.1271 45.5595 33.1128C45.5595 33.0956 45.6048 33.0841 45.6585 33.0841C45.7122 33.0841 45.7574 33.0698 45.7574 33.0555C45.7574 33.0383 45.8083 33.0268 45.8705 33.0268C45.9327 33.0268 45.9835 33.0125 45.9835 32.9982C45.9835 32.981 46.0231 32.9696 46.0683 32.9696C46.1164 32.9696 46.1531 32.9553 46.1531 32.9409C46.1531 32.9238 46.1927 32.9123 46.2379 32.9123C46.286 32.9123 46.3227 32.898 46.3227 32.8837C46.3227 32.8665 46.3538 32.855 46.3906 32.855C46.4302 32.855 46.4697 32.8407 46.4782 32.8264C46.4867 32.8092 46.5263 32.7978 46.5658 32.7978C46.6026 32.7978 46.6337 32.7834 46.6337 32.7691C46.6337 32.7519 46.6846 32.7405 46.7467 32.7405C46.8089 32.7405 46.8598 32.7262 46.8598 32.7118C46.8598 32.6947 46.8909 32.6832 46.9305 32.6832C46.97 32.6832 47.0011 32.6689 47.0011 32.6546C47.0011 32.6374 47.0266 32.6259 47.0577 32.6259C47.0888 32.6259 47.1142 32.6116 47.1142 32.5973C47.1142 32.5801 47.1538 32.5687 47.199 32.5687C47.2471 32.5687 47.2838 32.5543 47.2838 32.54C47.2838 32.5228 47.3092 32.5114 47.3403 32.5114C47.3714 32.5114 47.3969 32.4971 47.3969 32.4828C47.3969 32.4656 47.4223 32.4541 47.4534 32.4541C47.4845 32.4541 47.5099 32.4398 47.5099 32.4255C47.5099 32.4083 47.5495 32.3968 47.5947 32.3968C47.6428 32.3968 47.6795 32.3825 47.6795 32.3682C47.6795 32.351 47.705 32.3396 47.7361 32.3396C47.7672 32.3396 47.7926 32.3281 47.7926 32.3167C47.7926 32.3023 47.8378 32.2766 47.8915 32.2537C47.9452 32.2308 47.9905 32.205 47.9905 32.1907C47.9905 32.1792 48.0159 32.1678 48.047 32.1678C48.0781 32.1678 48.1035 32.1534 48.1035 32.1391C48.1035 32.1219 48.129 32.1105 48.1601 32.1105C48.1912 32.1105 48.2166 32.0962 48.2166 32.0818C48.2166 32.0647 48.242 32.0532 48.2731 32.0532C48.3042 32.0532 48.3297 32.0389 48.3297 32.0246C48.3297 32.0074 48.3664 31.9959 48.4088 31.9959C48.5078 31.9959 48.536 31.9702 48.4964 31.9186C48.471 31.89 48.4767 31.8814 48.5247 31.8814C48.5558 31.8814 48.5841 31.8671 48.5841 31.8528C48.5841 31.8356 48.6095 31.8241 48.6406 31.8241C48.6717 31.8241 48.6971 31.8098 48.6971 31.7955C48.6971 31.7783 48.7169 31.7668 48.7424 31.7668C48.7678 31.7668 48.8243 31.7268 48.8667 31.6809C48.912 31.6323 48.9741 31.595 49.0137 31.595C49.0505 31.595 49.0985 31.5693 49.1211 31.5378C49.1437 31.5063 49.1805 31.4805 49.2031 31.4805C49.2427 31.4805 49.3473 31.3745 49.3473 31.3316C49.3473 31.3201 49.3727 31.3087 49.4038 31.3087C49.4349 31.3087 49.4603 31.2943 49.4603 31.28C49.4603 31.2628 49.5027 31.2514 49.5564 31.2514C49.6384 31.2514 49.6525 31.2399 49.6695 31.1655C49.678 31.1168 49.7006 31.0796 49.7232 31.0796C49.743 31.0796 49.7769 31.0538 49.7995 31.0223C49.8221 30.9879 49.873 30.965 49.9183 30.965C49.972 30.965 49.9974 30.9507 49.9974 30.9192C49.9974 30.8562 50.0681 30.7932 50.1387 30.7932C50.2094 30.7932 50.2801 30.7302 50.2801 30.6672C50.2801 30.6386 50.3055 30.6214 50.3536 30.6214C50.4271 30.6214 50.5062 30.5641 50.5062 30.5068C50.5062 30.4524 50.6617 30.335 50.7352 30.335C50.7719 30.335 50.8737 30.2262 50.8737 30.1861C50.8737 30.1747 50.9076 30.1632 50.9472 30.1632C51.0065 30.1632 51.0178 30.1518 51.0065 30.1059C50.9952 30.0658 51.0065 30.0487 51.0404 30.0487C51.0659 30.0487 51.1055 30.0229 51.1281 29.9914C51.1507 29.9599 51.1846 29.9341 51.2072 29.9341C51.227 29.9341 51.2411 29.9112 51.2383 29.8826C51.2298 29.7823 51.2411 29.7623 51.3146 29.7623C51.3881 29.7623 51.4673 29.705 51.4673 29.6478C51.4673 29.6019 51.6001 29.4759 51.651 29.4759C51.6736 29.4759 51.6934 29.4559 51.6934 29.433C51.6934 29.3671 51.8234 29.2468 51.8913 29.2468C51.9619 29.2468 52.0326 29.1838 52.0326 29.1208C52.0326 29.0951 52.0524 29.075 52.0778 29.075C52.1202 29.075 52.4538 28.74 52.4566 28.6942C52.4566 28.6827 52.4764 28.6741 52.5018 28.6741C52.5329 28.6741 52.5442 28.6569 52.5329 28.6168C52.5244 28.5825 52.5329 28.5596 52.5527 28.5596C52.5697 28.5596 52.6036 28.5338 52.6262 28.5023C52.6488 28.4708 52.6856 28.445 52.7053 28.445C52.7308 28.445 52.7393 28.4278 52.728 28.3992C52.7082 28.3477 52.7704 28.2732 52.8354 28.2732C52.8608 28.2732 52.8806 28.2503 52.8806 28.2217C52.8806 28.193 52.906 28.1529 52.9371 28.13C52.9682 28.1071 52.9937 28.067 52.9937 28.0384C52.9937 28.0098 53.0134 27.9868 53.0361 27.9868C53.0869 27.9868 53.2198 27.8608 53.2198 27.815C53.2198 27.7692 53.3526 27.6432 53.4035 27.6432C53.4261 27.6432 53.4459 27.6203 53.4459 27.5917C53.4459 27.5258 53.4996 27.4714 53.5646 27.4714C53.5957 27.4714 53.6155 27.4513 53.6155 27.4141C53.6155 27.3826 53.6268 27.3568 53.641 27.3568C53.6551 27.3568 53.6721 27.3168 53.6834 27.2709C53.6947 27.2137 53.7145 27.185 53.7512 27.185C53.7766 27.185 53.819 27.1593 53.8417 27.1278C53.8643 27.0963 53.8982 27.0705 53.9208 27.0705C53.9462 27.0705 53.9519 27.0504 53.9406 27.0132C53.9265 26.9674 53.9349 26.9559 53.9943 26.9559C54.0537 26.9559 54.0678 26.9416 54.0678 26.8843C54.0678 26.8443 54.0537 26.8128 54.0395 26.8128C54.0226 26.8128 54.0537 26.7669 54.1074 26.7125C54.1639 26.6581 54.2204 26.6123 54.2374 26.6123C54.2939 26.6123 54.3505 26.5321 54.3505 26.4577C54.3505 26.4176 54.3392 26.3832 54.3222 26.3832C54.3081 26.3832 54.2939 26.366 54.2939 26.346C54.2939 26.3259 54.2487 26.2601 54.195 26.1999C54.1413 26.1398 54.0961 26.0797 54.0961 26.0653C54.0961 26.0539 54.0678 26.0138 54.031 25.9766C53.9971 25.9393 53.9378 25.8649 53.8982 25.8105C53.8614 25.7561 53.8077 25.6902 53.7795 25.6644C53.7512 25.6387 53.7286 25.6043 53.7286 25.59C53.7286 25.5757 53.6834 25.5155 53.6297 25.4554C53.576 25.3953 53.5307 25.3351 53.5307 25.3237C53.5307 25.3093 53.4798 25.2463 53.4177 25.1805C53.3555 25.1146 53.3046 25.0516 53.3046 25.0373C53.3046 25.023 53.2537 24.96 53.1915 24.8941C53.1293 24.8283 53.0785 24.7624 53.0785 24.7509C53.0785 24.7366 53.0332 24.6793 52.9795 24.6249C52.9258 24.5677 52.8806 24.5133 52.8806 24.4989C52.8806 24.4875 52.8297 24.4188 52.7675 24.35C52.7053 24.2813 52.6545 24.2126 52.6545 24.1983C52.6545 24.1868 52.6234 24.1438 52.5838 24.1038C52.5442 24.0637 52.5131 24.0236 52.5131 24.0121C52.5131 24.0007 52.4679 23.9405 52.4142 23.8833C52.3605 23.826 52.3153 23.7658 52.3153 23.7515C52.3153 23.7372 52.2644 23.6742 52.2022 23.6083C52.14 23.5453 52.0891 23.4766 52.0891 23.4594C52.0891 23.4423 52.0383 23.3793 51.9761 23.3191C51.9139 23.259 51.863 23.1931 51.863 23.1759C51.863 23.1588 51.8121 23.0929 51.7499 23.0328C51.6877 22.9726 51.6369 22.9068 51.6369 22.8896C51.6369 22.8695 51.6001 22.818 51.5521 22.775C51.5068 22.7321 51.4673 22.6834 51.4673 22.6662C51.4673 22.6519 51.4333 22.6032 51.3881 22.5574C51.3457 22.5116 51.2807 22.4285 51.2411 22.3741C51.2044 22.3197 51.1648 22.2682 51.1563 22.2596C51.0941 22.2023 50.9613 22.0018 50.9867 22.0018C51.0009 22.0018 51.015 21.9818 51.015 21.9589C51.015 21.9331 50.9896 21.9159 50.9443 21.9159C50.9048 21.9159 50.8737 21.9274 50.8737 21.9446C50.8737 21.9589 50.8595 21.9732 50.8426 21.9732C50.8002 21.9732 50.7323 22.0477 50.7323 22.0935C50.7323 22.1422 50.5232 22.3741 50.4779 22.3741C50.4553 22.3741 50.4497 22.397 50.4581 22.4343C50.4695 22.4772 50.4355 22.5316 50.3196 22.6462C50.2348 22.7321 50.167 22.8151 50.167 22.8323C50.167 22.8495 50.0794 22.9526 49.9691 23.0614C49.8617 23.1702 49.7713 23.2733 49.7713 23.2905C49.7713 23.3077 49.6695 23.4222 49.5451 23.5482C49.4208 23.6742 49.319 23.7945 49.319 23.8174C49.319 23.8603 49.2229 23.972 48.9035 24.3071C48.7904 24.4245 48.6971 24.539 48.6971 24.5648C48.6971 24.5877 48.6774 24.6078 48.6547 24.6078C48.5982 24.6078 48.1883 25.023 48.1883 25.0803C48.1883 25.1032 48.1686 25.1232 48.1459 25.1232C48.0809 25.1232 47.9537 25.2607 47.9735 25.3093C47.9848 25.3408 47.9679 25.3523 47.9113 25.3523C47.8604 25.3523 47.8096 25.3838 47.7643 25.4411C47.6174 25.6186 47.4845 25.7532 47.4534 25.7532C47.4364 25.7532 47.3714 25.8048 47.3121 25.8678C47.2527 25.9308 47.1877 25.9823 47.1707 25.9823C47.151 25.9823 47.1001 26.0195 47.0577 26.0682C47.0153 26.114 46.9616 26.1541 46.939 26.1541C46.9192 26.1541 46.8711 26.1942 46.8344 26.24C46.7976 26.2887 46.7467 26.3259 46.7185 26.3259C46.6902 26.3259 46.6563 26.3517 46.6478 26.3832C46.6393 26.4147 46.6054 26.4405 46.5743 26.4405C46.546 26.4405 46.5065 26.4663 46.4867 26.4978C46.4612 26.535 46.4188 26.555 46.3595 26.555C46.2606 26.555 46.2436 26.5779 46.3001 26.6352C46.3256 26.661 46.3227 26.6696 46.2775 26.6696C46.2464 26.6696 46.204 26.6953 46.1814 26.7268C46.1588 26.7583 46.122 26.7841 46.0966 26.7841C46.0712 26.7841 46.0344 26.8099 46.0118 26.8414C45.9892 26.8729 45.9496 26.8987 45.9214 26.8987C45.8931 26.8987 45.8705 26.9101 45.8705 26.9273C45.8705 26.9416 45.8337 26.9559 45.7913 26.9559C45.7461 26.9559 45.6952 26.9788 45.6726 27.0132C45.65 27.0447 45.5991 27.0705 45.5595 27.0705C45.52 27.0705 45.4719 27.0963 45.4521 27.1278C45.4323 27.1593 45.3984 27.185 45.3758 27.185C45.3532 27.185 45.3334 27.1965 45.3334 27.2137C45.3334 27.228 45.2967 27.2423 45.2486 27.2423C45.1949 27.2423 45.1525 27.2623 45.1299 27.2996C45.1101 27.3311 45.0649 27.3568 45.031 27.3568C44.9942 27.3568 44.9659 27.3683 44.9659 27.3855C44.9659 27.3998 44.9405 27.4141 44.9094 27.4141C44.8783 27.4141 44.8529 27.4256 44.8529 27.4428C44.8529 27.4571 44.802 27.4714 44.7398 27.4714C44.6776 27.4714 44.6267 27.4828 44.6267 27.5C44.6267 27.5143 44.5759 27.5287 44.5137 27.5287C44.4515 27.5287 44.4006 27.5401 44.4006 27.5573C44.4006 27.5716 44.3752 27.5859 44.3441 27.5859C44.313 27.5859 44.2875 27.5974 44.2875 27.6146C44.2875 27.6289 44.2169 27.6432 44.1321 27.6432C44.0473 27.6432 43.9766 27.6547 43.9766 27.6718C43.9766 27.689 43.9003 27.7005 43.807 27.7005C43.7137 27.7005 43.6374 27.7119 43.6374 27.7291C43.6374 27.7463 43.4113 27.7578 43.0155 27.7578C42.6198 27.7578 42.3937 27.7463 42.3937 27.7291C42.3937 27.7119 42.3145 27.7005 42.2099 27.7005C42.1054 27.7005 42.0262 27.689 42.0262 27.6718C42.0262 27.6547 41.9753 27.6432 41.9132 27.6432C41.851 27.6432 41.8001 27.6289 41.8001 27.6146C41.8001 27.5974 41.7492 27.5859 41.687 27.5859C41.6248 27.5859 41.574 27.5716 41.574 27.5573C41.574 27.5401 41.5372 27.5287 41.4892 27.5287C41.4439 27.5287 41.4044 27.5143 41.4044 27.5C41.4044 27.4828 41.3591 27.4714 41.3054 27.4714C41.2517 27.4714 41.2065 27.4571 41.2065 27.4428C41.2065 27.4256 41.1697 27.4141 41.1217 27.4141C41.0765 27.4141 41.0369 27.4027 41.0369 27.3912C41.0369 27.3769 40.9917 27.3511 40.938 27.3282C40.8842 27.3053 40.839 27.2795 40.839 27.2652C40.839 27.2538 40.7881 27.2423 40.726 27.2423C40.6638 27.2423 40.6129 27.228 40.6129 27.2137C40.6129 27.1965 40.5903 27.185 40.562 27.185C40.5337 27.185 40.4942 27.1593 40.4716 27.1278C40.4489 27.0963 40.4094 27.0705 40.3811 27.0705C40.3528 27.0705 40.3302 27.0562 40.3302 27.0418C40.3302 27.0247 40.3048 27.0132 40.2737 27.0132C40.2426 27.0132 40.2172 26.9989 40.2172 26.9846C40.2172 26.9674 40.1804 26.9559 40.1324 26.9559C40.0871 26.9559 40.0476 26.9445 40.0476 26.9302C40.0476 26.87 39.8808 26.7268 39.8101 26.7268C39.7705 26.7268 39.7366 26.7154 39.7366 26.7039C39.7366 26.6581 39.632 26.555 39.584 26.555C39.5585 26.555 39.5246 26.5293 39.5048 26.4978C39.485 26.4663 39.4511 26.4405 39.4313 26.4405C39.4087 26.4405 39.355 26.4004 39.3126 26.3546C39.2702 26.3059 39.2193 26.2687 39.2024 26.2687C39.1826 26.2687 39.0413 26.1369 38.8886 25.9737C38.4335 25.5012 38.442 25.5127 38.4561 25.4268C38.4703 25.3609 38.4618 25.3523 38.3968 25.3523C38.3572 25.3523 38.3233 25.3408 38.3233 25.3237C38.3233 25.3093 38.2922 25.2664 38.2526 25.2263C38.2131 25.1862 38.182 25.1404 38.182 25.1203C38.182 25.1032 38.1452 25.0516 38.0972 25.0087C38.0519 24.9657 38.0124 24.9084 38.0124 24.8827C38.0124 24.8569 38.0011 24.8368 37.9841 24.8368C37.97 24.8368 37.9558 24.7968 37.9558 24.7509C37.9558 24.6851 37.9445 24.665 37.8993 24.665C37.8625 24.665 37.8428 24.645 37.8428 24.6135C37.8428 24.5848 37.8173 24.5448 37.7862 24.5218C37.7523 24.4989 37.7297 24.4474 37.7297 24.4016C37.7297 24.3586 37.7184 24.3214 37.7014 24.3214C37.6873 24.3214 37.6732 24.2956 37.6732 24.2641C37.6732 24.2326 37.6619 24.2068 37.6449 24.2068C37.6308 24.2068 37.6166 24.1811 37.6166 24.1496C37.6166 24.1181 37.6053 24.0923 37.5884 24.0923C37.5742 24.0923 37.5601 24.0665 37.5601 24.035C37.5601 24.0035 37.5488 23.9778 37.5318 23.9778C37.5177 23.9778 37.5036 23.9377 37.5036 23.8918C37.5036 23.8432 37.4923 23.8059 37.4753 23.8059C37.4612 23.8059 37.447 23.7802 37.447 23.7487C37.447 23.7172 37.4329 23.6914 37.4159 23.6914C37.399 23.6914 37.3933 23.6656 37.4046 23.6341C37.4188 23.5912 37.4103 23.5768 37.3735 23.5768C37.334 23.5768 37.3311 23.5683 37.3566 23.5425C37.4103 23.4881 37.3961 23.4337 37.3283 23.405C37.2916 23.3907 37.2803 23.3793 37.3 23.3793C37.3453 23.3764 37.3453 23.2332 37.2972 23.2332C37.2718 23.2332 37.2633 23.2046 37.2718 23.1473C37.2803 23.0872 37.2718 23.0614 37.2435 23.0614C37.2152 23.0614 37.2068 23.0299 37.2152 22.9468C37.2237 22.8581 37.2181 22.8323 37.1841 22.8323C37.122 22.8323 37.1078 22.7693 37.1078 22.5001C37.1078 22.3598 37.0965 22.2596 37.0796 22.2596C37.0626 22.2596 37.0513 22.1536 37.0513 22.0018C37.0513 21.7556 37.0485 21.7441 36.9891 21.7413C36.9524 21.7413 36.9411 21.7327 36.9608 21.7241C36.9891 21.7126 36.9976 21.6067 36.9919 21.2773C36.9891 20.9853 37.0004 20.8392 37.0202 20.8335C37.04 20.8278 37.0513 20.7361 37.0513 20.5958C37.0513 20.4641 37.0626 20.3696 37.0796 20.3696C37.122 20.3696 37.1163 20.0918 37.0739 20.0746C37.0456 20.0632 37.0456 20.0517 37.0767 20.0317C37.1022 20.0145 37.1107 19.9687 37.1022 19.8999C37.0909 19.8054 37.0965 19.7968 37.1587 19.7968C37.2209 19.7968 37.2265 19.7883 37.2152 19.6823C37.2068 19.5993 37.2152 19.5678 37.2435 19.5678C37.2718 19.5678 37.2803 19.542 37.2718 19.4818C37.2633 19.4246 37.2718 19.3959 37.2972 19.3959C37.3453 19.3959 37.3453 19.2528 37.3 19.2499C37.2803 19.2499 37.2916 19.2384 37.3283 19.2241C37.3961 19.1955 37.4103 19.1411 37.3566 19.0867C37.3311 19.0609 37.334 19.0523 37.3735 19.0523C37.4103 19.0523 37.4188 19.038 37.4046 18.995C37.3933 18.9635 37.399 18.9378 37.4159 18.9378C37.4329 18.9378 37.447 18.912 37.447 18.8805C37.447 18.849 37.4612 18.8232 37.4753 18.8232C37.4923 18.8232 37.5036 18.7717 37.5036 18.7087C37.5036 18.6457 37.5177 18.5941 37.5318 18.5941C37.5488 18.5941 37.5601 18.5683 37.5601 18.5368C37.5601 18.5053 37.5742 18.4796 37.5884 18.4796C37.6053 18.4796 37.6166 18.4538 37.6166 18.4223C37.6166 18.3908 37.6308 18.365 37.6449 18.365C37.6619 18.365 37.6732 18.3421 37.6732 18.3135C37.6732 18.2848 37.6986 18.2448 37.7297 18.2218C37.7608 18.1989 37.7862 18.1588 37.7862 18.1302C37.7862 18.1016 37.8004 18.0787 37.8145 18.0787C37.8315 18.0787 37.8428 18.0558 37.8428 18.0271C37.8428 17.9985 37.8682 17.9584 37.8993 17.9355C37.9304 17.9126 37.9558 17.8725 37.9558 17.8438C37.9558 17.8152 37.97 17.7923 37.9841 17.7923C38.0011 17.7923 38.0124 17.7723 38.0124 17.7465C38.0124 17.7207 38.0519 17.6634 38.0972 17.6205C38.1452 17.5775 38.182 17.526 38.182 17.5059C38.182 17.4859 38.2215 17.4343 38.2668 17.3914C38.3148 17.3484 38.3516 17.2969 38.3516 17.2768C38.3516 17.2597 38.3685 17.2282 38.3883 17.2081C38.4053 17.1852 38.442 17.1423 38.4646 17.1079C38.4872 17.0764 38.524 17.0478 38.5438 17.0478C38.5692 17.0478 38.5777 17.0277 38.5692 16.9905C38.5607 16.959 38.5664 16.9332 38.5805 16.9332C38.6257 16.9332 38.8038 16.7385 38.8038 16.6898C38.8038 16.6669 38.8236 16.6468 38.8462 16.6468C38.8971 16.6468 39.03 16.5208 39.03 16.475C39.03 16.4206 39.1063 16.3605 39.1713 16.3605C39.242 16.3605 39.3126 16.2975 39.3126 16.2345C39.3126 16.2087 39.3352 16.1887 39.3692 16.1887C39.4002 16.1887 39.4257 16.1743 39.4257 16.16C39.4257 16.1428 39.4455 16.1314 39.4709 16.1314C39.519 16.1314 39.6236 16.0283 39.6236 15.9825C39.6236 15.971 39.6546 15.9596 39.6914 15.9596C39.7366 15.9596 39.7677 15.9395 39.779 15.9023C39.7875 15.8708 39.8214 15.845 39.8525 15.845C39.8808 15.845 39.9062 15.8307 39.9062 15.8164C39.9062 15.7992 39.9317 15.7878 39.9599 15.7878C39.991 15.7878 40.0249 15.762 40.0334 15.7305C40.0419 15.699 40.0758 15.6732 40.1069 15.6732C40.1352 15.6732 40.1606 15.6589 40.1606 15.6446C40.1606 15.6274 40.1861 15.6159 40.2172 15.6159C40.2482 15.6159 40.2737 15.6016 40.2737 15.5873C40.2737 15.5701 40.2991 15.5587 40.3302 15.5587C40.3613 15.5587 40.3868 15.5443 40.3868 15.53C40.3868 15.5128 40.4122 15.5014 40.4433 15.5014C40.4744 15.5014 40.4998 15.4871 40.4998 15.4728C40.4998 15.4556 40.5253 15.4441 40.5564 15.4441C40.5874 15.4441 40.6129 15.4298 40.6129 15.4155C40.6129 15.3983 40.6383 15.3868 40.6694 15.3868C40.7005 15.3868 40.726 15.3725 40.726 15.3582C40.726 15.341 40.7655 15.3296 40.8108 15.3296C40.8588 15.3296 40.8956 15.3153 40.8956 15.3009C40.8956 15.2838 40.9153 15.2723 40.938 15.2723C40.9606 15.2723 40.9804 15.258 40.9804 15.2437C40.9804 15.2265 41.0199 15.215 41.0652 15.215C41.1132 15.215 41.15 15.2007 41.15 15.1864C41.15 15.1692 41.2008 15.1578 41.263 15.1578C41.3252 15.1578 41.3761 15.1434 41.3761 15.1291C41.3761 15.1119 41.4072 15.1005 41.4468 15.1005C41.4863 15.1005 41.5174 15.0862 41.5174 15.0718C41.5174 15.0547 41.5683 15.0432 41.6305 15.0432C41.6927 15.0432 41.7436 15.0289 41.7436 15.0146C41.7436 14.9974 41.8199 14.9859 41.9132 14.9859C42.0064 14.9859 42.0828 14.9745 42.0828 14.9573C42.0828 14.9401 42.1534 14.9287 42.2382 14.9287C42.323 14.9287 42.3937 14.9143 42.3937 14.9C42.3937 14.8828 42.6113 14.8714 42.9873 14.8714C43.3632 14.8714 43.5809 14.8828 43.5809 14.9C43.5809 14.9172 43.6657 14.9287 43.7787 14.9287C43.8918 14.9287 43.9766 14.9401 43.9766 14.9573C43.9766 14.9716 44.0331 14.9859 44.1038 14.9859C44.1745 14.9859 44.231 14.9974 44.231 15.0146C44.231 15.0289 44.2819 15.0432 44.3441 15.0432C44.4063 15.0432 44.4571 15.0547 44.4571 15.0718C44.4571 15.0862 44.508 15.1005 44.5702 15.1005C44.6324 15.1005 44.6833 15.1119 44.6833 15.1291C44.6833 15.1434 44.7229 15.1578 44.7681 15.1578C44.8161 15.1578 44.8529 15.1692 44.8529 15.1864C44.8529 15.2007 44.8783 15.215 44.9094 15.215C44.9405 15.215 44.9659 15.2265 44.9659 15.2437C44.9659 15.258 44.997 15.2723 45.0366 15.2723C45.0762 15.2723 45.1073 15.2838 45.1073 15.3009C45.1073 15.3153 45.1327 15.3296 45.1638 15.3296C45.1949 15.3296 45.2203 15.341 45.2203 15.3582C45.2203 15.3725 45.2458 15.3868 45.2769 15.3868C45.308 15.3868 45.3334 15.3954 45.3334 15.4069C45.3334 15.4355 45.4719 15.5014 45.5313 15.5014C45.5539 15.5014 45.5935 15.5272 45.6161 15.5587C45.6387 15.5902 45.6896 15.6159 45.7291 15.6159C45.7687 15.6159 45.8196 15.6417 45.8422 15.6732C45.8648 15.7047 45.9044 15.7305 45.9327 15.7305C45.9609 15.7305 45.9835 15.7419 45.9835 15.7591C45.9835 15.7734 46.009 15.7878 46.0401 15.7878C46.0712 15.7878 46.0966 15.7992 46.0966 15.8164C46.0966 15.8307 46.122 15.845 46.1531 15.845C46.1842 15.845 46.2097 15.8565 46.2097 15.8737C46.2097 15.888 46.2379 15.9023 46.2719 15.9023C46.3199 15.9023 46.3256 15.9109 46.3001 15.9367C46.2464 15.9911 46.2606 16.0168 46.3369 16.0168C46.3764 16.0168 46.4075 16.0283 46.4075 16.0455C46.4075 16.0598 46.433 16.0741 46.4641 16.0741C46.4952 16.0741 46.5206 16.0856 46.5206 16.1028C46.5206 16.1171 46.5404 16.1314 46.563 16.1314C46.5856 16.1314 46.6054 16.1572 46.6054 16.1887C46.6054 16.2316 46.6252 16.2459 46.6732 16.2459C46.7185 16.2459 46.7496 16.266 46.7609 16.3032C46.7694 16.3347 46.8033 16.3605 46.8344 16.3605C46.8626 16.3605 46.8881 16.3719 46.8881 16.3891C46.8881 16.4034 46.9135 16.4178 46.9446 16.4178C46.9757 16.4178 47.0011 16.4378 47.0011 16.4607C47.0011 16.5266 47.1312 16.6468 47.199 16.6468C47.264 16.6468 47.3403 16.7098 47.3403 16.7614C47.3403 16.8101 47.4138 16.8759 47.4647 16.8759C47.4902 16.8759 47.5099 16.8874 47.5099 16.9046C47.5099 16.9189 47.5382 16.9332 47.5693 16.9332C47.6174 16.9332 47.623 16.9418 47.5976 16.9704C47.5608 17.0191 47.5834 17.0478 47.6654 17.0478C47.7276 17.0478 47.7926 17.1451 47.7926 17.2339C47.7926 17.2625 47.8237 17.2768 47.8915 17.2768C47.9452 17.2768 47.9905 17.2883 47.9905 17.3055C47.9905 17.3198 48.242 17.589 48.5502 17.904C49.1579 18.5254 49.2059 18.5798 49.2059 18.6571C49.2059 18.6858 49.2201 18.7087 49.2342 18.7087C49.2512 18.7087 49.2625 18.7287 49.2625 18.7545C49.2625 18.8175 49.3331 18.8805 49.401 18.8805C49.4321 18.8805 49.4632 18.9063 49.4745 18.9378C49.4829 18.9693 49.5056 18.995 49.5197 18.995C49.5338 18.995 49.5451 19.0208 49.5451 19.0523C49.5451 19.0838 49.5649 19.1096 49.5875 19.1096C49.6582 19.1096 49.7713 19.2413 49.7713 19.3243C49.7713 19.3702 49.7882 19.3959 49.8137 19.3959C49.8702 19.3959 49.9974 19.5248 49.9974 19.5821C49.9974 19.605 50.0172 19.625 50.0426 19.625C50.1076 19.625 50.167 19.6966 50.167 19.7797C50.167 19.8283 50.184 19.8541 50.2094 19.8541C50.2348 19.8541 50.297 19.8999 50.3536 19.9543C50.4073 20.0088 50.4384 20.0546 50.4214 20.0546C50.4073 20.0546 50.3931 20.0746 50.3931 20.0975C50.3931 20.1204 50.4101 20.1405 50.4327 20.1405C50.4581 20.1405 50.4666 20.1605 50.4581 20.1978C50.4468 20.2436 50.4581 20.255 50.5062 20.255C50.5797 20.255 50.6758 20.3553 50.6758 20.4326C50.6758 20.4612 50.6899 20.4841 50.7041 20.4841C50.721 20.4841 50.7323 20.5042 50.7323 20.5299C50.7323 20.5528 50.7973 20.6359 50.8737 20.7132C50.9528 20.7905 51.015 20.8678 51.015 20.885C51.015 20.9022 51.0659 20.9681 51.1281 21.0282C51.1903 21.0883 51.2411 21.1542 51.2411 21.1714C51.2411 21.2201 51.3146 21.2859 51.3655 21.2859C51.3909 21.2859 51.4107 21.3088 51.4107 21.3432C51.4107 21.3747 51.4249 21.4005 51.439 21.4005C51.456 21.4005 51.4673 21.4205 51.4673 21.4463C51.4673 21.5036 51.5351 21.5723 51.5916 21.5723C51.6171 21.5723 51.6369 21.5952 51.6369 21.6296C51.6369 21.6611 51.651 21.6868 51.6651 21.6868C51.6821 21.6868 51.6934 21.7069 51.6934 21.7298C51.6934 21.7556 51.7245 21.8071 51.7612 21.8443C51.8065 21.8902 51.8234 21.9331 51.8149 21.9732C51.8065 22.0076 51.8149 22.0305 51.8347 22.0305C51.8856 22.0305 52.0326 22.2023 52.0326 22.2624C52.0326 22.2968 52.0524 22.3168 52.0891 22.3168C52.1231 22.3168 52.1457 22.3369 52.1457 22.3627C52.1457 22.3884 52.1852 22.4457 52.2305 22.4887C52.2785 22.5316 52.3153 22.5832 52.3153 22.6032C52.3153 22.6233 52.3548 22.6748 52.4001 22.7178C52.4481 22.7607 52.4849 22.8123 52.4849 22.8323C52.4849 22.8495 52.5357 22.9153 52.5979 22.9755C52.6601 23.0356 52.711 23.1015 52.711 23.1187C52.711 23.1358 52.7619 23.2017 52.8241 23.2618C52.8862 23.322 52.9371 23.3878 52.9371 23.405C52.9371 23.4251 52.9767 23.4766 53.0219 23.5196C53.07 23.5625 53.1067 23.6141 53.1067 23.6341C53.1067 23.6542 53.1463 23.7057 53.1915 23.7487C53.2424 23.7973 53.2763 23.8575 53.2763 23.9033C53.2763 23.9434 53.2905 23.9778 53.3074 23.9778C53.3696 23.9778 53.5025 24.1553 53.5025 24.2383C53.5025 24.3071 53.5138 24.3214 53.5703 24.3214C53.6155 24.3214 53.6466 24.3414 53.6579 24.3787C53.6664 24.4102 53.689 24.4359 53.7032 24.4359C53.7173 24.4359 53.7286 24.4732 53.7286 24.5218C53.7286 24.582 53.7427 24.6078 53.7738 24.6078C53.8388 24.6078 53.8982 24.6793 53.8982 24.7624C53.8982 24.8111 53.9152 24.8368 53.9406 24.8368C53.9915 24.8368 54.1809 25.0201 54.1809 25.0659C54.1809 25.086 54.2317 25.149 54.2939 25.2091C54.3561 25.2693 54.407 25.3351 54.407 25.3523C54.407 25.3695 54.4607 25.4382 54.5257 25.5012C54.6246 25.5957 54.6444 25.6329 54.6388 25.7131C54.6331 25.7933 54.6416 25.8105 54.6897 25.8105C54.7688 25.8105 54.913 25.9794 54.9158 26.0739C54.9158 26.1398 54.9271 26.1541 54.9865 26.1541C55.026 26.1541 55.0571 26.1656 55.0571 26.1828C55.0571 26.1971 55.0882 26.24 55.1278 26.2801C55.1674 26.3202 55.1985 26.3861 55.1985 26.4262C55.1985 26.472 55.2154 26.4978 55.2409 26.4978C55.3144 26.4978 55.5377 26.744 55.5377 26.8271C55.5377 26.8729 55.5546 26.8987 55.5801 26.8987C55.6055 26.8987 55.6931 26.9674 55.7751 27.0533C55.8995 27.1793 55.9249 27.2194 55.9136 27.2824C55.8995 27.3483 55.9079 27.3568 55.973 27.3568C56.0125 27.3568 56.0465 27.3683 56.0465 27.3826C56.0465 27.4055 56.2217 27.6088 56.4365 27.8322C56.5015 27.9009 56.5553 27.984 56.5553 28.0155C56.5553 28.0813 56.6174 28.1587 56.6683 28.1587C56.7135 28.1587 56.8379 28.2933 56.8379 28.3448C56.8379 28.3677 56.8577 28.3878 56.8803 28.3878C56.9397 28.3878 57.7029 29.181 57.7368 29.2783C57.7425 29.2927 57.7792 29.3041 57.8159 29.3041C57.8527 29.3041 57.8838 29.3156 57.8838 29.3328C57.8838 29.37 58.3276 29.8196 58.3643 29.8196C58.3813 29.8196 58.483 29.9083 58.5905 30.02C58.6979 30.1288 58.8053 30.2205 58.8307 30.2205C58.8533 30.2205 58.8731 30.2319 58.8731 30.2434C58.8731 30.2949 59.0258 30.4496 59.0738 30.4496C59.1049 30.4496 59.1275 30.461 59.1275 30.4725C59.1275 30.5183 59.2321 30.6214 59.2773 30.6214C59.2999 30.6214 59.348 30.6586 59.3847 30.7073C59.4215 30.7531 59.4695 30.7932 59.4893 30.7932C59.5119 30.7932 59.5656 30.8304 59.608 30.8791C59.6504 30.9249 59.7042 30.965 59.7268 30.965C59.7466 30.965 59.7833 30.9908 59.8059 31.0223C59.8285 31.0538 59.8653 31.0796 59.8851 31.0796C59.9077 31.0796 59.9614 31.1168 60.0038 31.1655C60.0462 31.2113 60.0999 31.2514 60.1225 31.2514C60.1423 31.2514 60.179 31.2772 60.2016 31.3087C60.2243 31.3402 60.2554 31.3659 60.2723 31.3659C60.2893 31.3659 60.3204 31.3917 60.343 31.4232C60.3656 31.4547 60.4052 31.4805 60.4334 31.4805C60.4617 31.4805 60.4843 31.4919 60.4843 31.5091C60.4843 31.5234 60.5098 31.5378 60.5408 31.5378C60.5719 31.5378 60.5974 31.5492 60.5974 31.5607C60.5974 31.6065 60.702 31.7096 60.75 31.7096C60.7755 31.7096 60.7952 31.721 60.7952 31.7382C60.7952 31.7525 60.8207 31.7668 60.8518 31.7668C60.8829 31.7668 60.9083 31.7783 60.9083 31.7955C60.9083 31.8098 60.9309 31.8241 60.9592 31.8241C60.9875 31.8241 61.027 31.8499 61.0496 31.8814C61.0723 31.9129 61.1118 31.9387 61.1401 31.9387C61.1684 31.9387 61.191 31.9501 61.191 31.9673C61.191 31.9816 61.2164 31.9959 61.2475 31.9959C61.2786 31.9959 61.304 32.0074 61.304 32.0246C61.304 32.0389 61.3295 32.0532 61.3606 32.0532C61.3917 32.0532 61.4171 32.0647 61.4171 32.0818C61.4171 32.0962 61.4426 32.1105 61.4736 32.1105C61.5047 32.1105 61.5302 32.1219 61.5302 32.1391C61.5302 32.1534 61.5556 32.1678 61.5867 32.1678C61.6178 32.1678 61.6432 32.1792 61.6432 32.1964C61.6432 32.2107 61.663 32.225 61.6856 32.225C61.7083 32.225 61.728 32.2365 61.728 32.2537C61.728 32.268 61.7535 32.2823 61.7846 32.2823C61.8157 32.2823 61.8411 32.2938 61.8411 32.3109C61.8411 32.3253 61.8666 32.3396 61.8976 32.3396C61.9287 32.3396 61.9542 32.351 61.9542 32.3682C61.9542 32.3825 61.9768 32.3968 62.0051 32.3968C62.0672 32.3968 62.2086 32.4598 62.2086 32.4885C62.2086 32.5028 62.2482 32.5114 62.2934 32.5114C62.3414 32.5114 62.3782 32.5228 62.3782 32.54C62.3782 32.5543 62.4178 32.5687 62.463 32.5687C62.511 32.5687 62.5478 32.5801 62.5478 32.5973C62.5478 32.6116 62.5732 32.6259 62.6043 32.6259C62.6354 32.6259 62.6608 32.6374 62.6608 32.6546C62.6608 32.6689 62.7004 32.6832 62.7456 32.6832C62.7937 32.6832 62.8304 32.6947 62.8304 32.7118C62.8304 32.7262 62.87 32.7405 62.9152 32.7405C62.9633 32.7405 63 32.7519 63 32.7691C63 32.7834 63.0311 32.7978 63.0707 32.7978C63.1103 32.7978 63.1414 32.8092 63.1414 32.8264C63.1414 32.8407 63.1809 32.855 63.2262 32.855C63.2742 32.855 63.311 32.8665 63.311 32.8837C63.311 32.898 63.3505 32.9123 63.3958 32.9123C63.4438 32.9123 63.4806 32.9238 63.4806 32.9409C63.4806 32.9553 63.5117 32.9696 63.5512 32.9696C63.5908 32.9696 63.6219 32.981 63.6219 32.9982C63.6219 33.0125 63.6728 33.0268 63.735 33.0268C63.7972 33.0268 63.848 33.0383 63.848 33.0555C63.848 33.0698 63.8989 33.0841 63.9611 33.0841C64.0233 33.0841 64.0742 33.0956 64.0742 33.1128C64.0742 33.1299 64.1505 33.1414 64.2438 33.1414C64.3371 33.1414 64.4134 33.1528 64.4134 33.17C64.4134 33.1843 64.4699 33.1987 64.5377 33.1987C64.6141 33.1987 64.6678 33.213 64.6734 33.233C64.6847 33.2617 65.1003 33.2703 66.6125 33.276C68.2718 33.2817 68.5431 33.276 68.5799 33.2416C68.6025 33.2187 68.6732 33.1987 68.7353 33.1987C68.8004 33.1987 68.8512 33.1843 68.8512 33.17C68.8512 33.1528 68.9162 33.1414 68.9926 33.1414C69.0717 33.1414 69.1339 33.1271 69.1339 33.1128C69.1339 33.0956 69.1791 33.0841 69.2328 33.0841C69.2865 33.0841 69.3318 33.0698 69.3318 33.0555C69.3318 33.0383 69.3826 33.0268 69.4448 33.0268C69.507 33.0268 69.5579 33.0125 69.5579 32.9982C69.5579 32.981 69.6088 32.9696 69.671 32.9696C69.7331 32.9696 69.784 32.9553 69.784 32.9409C69.784 32.9238 69.8349 32.9123 69.8971 32.9123C69.9593 32.9123 70.0102 32.898 70.0102 32.8837C70.0102 32.8665 70.0356 32.855 70.0667 32.855C70.0978 32.855 70.1232 32.8407 70.1232 32.8264C70.1232 32.8092 70.1685 32.7978 70.2222 32.7978C70.2759 32.7978 70.3211 32.7834 70.3211 32.7691C70.3211 32.7519 70.3607 32.7405 70.4059 32.7405C70.4539 32.7405 70.4907 32.7262 70.4907 32.7118C70.4907 32.6947 70.5218 32.6832 70.5614 32.6832C70.6009 32.6832 70.632 32.6689 70.632 32.6546C70.632 32.6374 70.6716 32.6259 70.7168 32.6259C70.7649 32.6259 70.8016 32.6116 70.8016 32.5973C70.8016 32.5801 70.8271 32.5687 70.8582 32.5687C70.8893 32.5687 70.9147 32.5543 70.9147 32.54C70.9147 32.5228 70.9543 32.5114 70.9995 32.5114C71.0475 32.5114 71.0843 32.4971 71.0843 32.4828C71.0843 32.4656 71.1097 32.4541 71.1408 32.4541C71.1719 32.4541 71.1974 32.4398 71.1974 32.4255C71.1974 32.4083 71.2228 32.3968 71.2539 32.3968C71.285 32.3968 71.3104 32.3825 71.3104 32.3682C71.3104 32.351 71.3359 32.3396 71.367 32.3396C71.3981 32.3396 71.4235 32.3253 71.4235 32.3109C71.4235 32.2938 71.4546 32.2823 71.4913 32.2823C71.5309 32.2823 71.5705 32.268 71.579 32.2537C71.5874 32.2365 71.6327 32.225 71.6779 32.225C71.7344 32.225 71.7655 32.2078 71.7768 32.1678C71.7853 32.1363 71.8164 32.1105 71.8418 32.1105C71.8701 32.1105 71.9097 32.0847 71.9323 32.0532C71.9549 32.0217 72.003 31.9959 72.0369 31.9959C72.0736 31.9959 72.1019 31.9816 72.1019 31.9673C72.1019 31.9501 72.1245 31.9387 72.1528 31.9387C72.181 31.9387 72.2206 31.9129 72.2432 31.8814C72.2658 31.8499 72.3167 31.8241 72.3563 31.8241C72.3959 31.8241 72.4467 31.7983 72.4694 31.7668C72.492 31.7353 72.5315 31.7096 72.5598 31.7096C72.5909 31.7096 72.6107 31.6895 72.6107 31.6523C72.6107 31.6151 72.6305 31.595 72.6672 31.595C72.6983 31.595 72.7238 31.5807 72.7238 31.5664C72.7238 31.5492 72.7633 31.5378 72.8086 31.5378C72.8736 31.5378 72.8934 31.5234 72.8934 31.4833C72.8934 31.4547 72.9131 31.4146 72.9358 31.3946C72.9725 31.3631 72.9782 31.4662 72.9782 32.3081V33.2559H75.5222H78.0661V17.2482V1.24048H75.5222H72.9782V6.22893Z" fill="black"/>
<path id="Vector_6" d="M14.763 1.17177C11.8204 1.36077 9.40928 2.1454 7.17339 3.64308C5.51696 4.75417 3.79835 6.49813 2.6479 8.24208C1.50593 9.97458 0.677713 12.0421 0.318727 14.0553C0.126514 15.1406 0.064327 15.9882 0.0869403 17.2912C0.118034 19.1984 0.361127 20.6874 0.92646 22.4028C1.57377 24.3729 2.50939 26.0367 3.85771 27.6117C4.25062 28.0699 5.06187 28.9061 5.46326 29.2612C7.832 31.3659 10.5032 32.5801 13.6041 32.9524C14.5679 33.0698 16.2329 33.0841 17.2081 32.9868C20.1082 32.6918 22.5872 31.7353 24.7383 30.083C25.9905 29.118 27.1805 27.8465 28.1048 26.4834C29.6793 24.1582 30.6573 21.2487 30.9315 18.0787C30.9654 17.6778 31.0304 16.6239 31.0304 16.4521C31.0304 16.4264 29.0857 16.4178 21.4056 16.4178H11.7809V19.0523V21.6869H18.2539C21.8155 21.6869 24.727 21.6983 24.727 21.7098C24.727 21.7241 24.6394 21.8902 24.5291 22.082C22.7596 25.212 20.323 27.0676 17.3211 27.5688C15.2972 27.9067 13.474 27.6862 11.6678 26.8815C10.4834 26.3546 9.46582 25.6444 8.53019 24.6965C7.85179 24.0093 7.39104 23.3964 6.95008 22.5946C6.00315 20.8822 5.50566 18.7402 5.57067 16.6898C5.62155 15.1807 5.95227 13.8204 6.61371 12.38C7.33734 10.8136 8.58672 9.29304 9.97179 8.29649C11.9307 6.88472 14.404 6.30054 16.9621 6.63845C18.6694 6.86467 20.1789 7.49467 21.448 8.51126C21.8268 8.81767 22.6352 9.6424 22.9462 10.0376L23.1836 10.3469H26.3438C28.0822 10.3469 29.504 10.3411 29.504 10.3354C29.504 10.3154 29.1366 9.48776 28.9698 9.13267C28.1585 7.39731 26.912 5.73354 25.5411 4.55658C23.3165 2.64081 20.7103 1.55836 17.519 1.22331C17.1006 1.18036 15.1955 1.14599 14.763 1.17177Z" fill="black"/>
<path id="Vector_7" d="M112.142 7.28275C109.829 7.43738 107.769 8.23347 105.951 9.67388L105.683 9.88866V8.82911V7.76957H103.026H100.369V23.7773V39.785H102.997H105.626V34.9741C105.626 32.3281 105.632 30.1632 105.64 30.1632C105.646 30.1632 105.782 30.2663 105.943 30.3952C108.167 32.162 110.895 33.0011 113.866 32.8293C116.342 32.6861 118.309 32.0246 120.11 30.7273C121.111 30.0057 122.199 28.9318 122.94 27.9324C124.381 25.9852 125.249 23.6341 125.441 21.1599C125.478 20.6817 125.478 19.4561 125.441 18.9635C125.204 15.8278 124.062 13.2133 121.987 11.0456C120.065 9.04102 117.702 7.81825 114.954 7.41447C114.134 7.2942 112.871 7.23407 112.142 7.28275ZM113.824 12.4774C115.07 12.6721 116.189 13.1675 117.159 13.9493C117.49 14.2156 118.129 14.8599 118.386 15.1864C119.259 16.2975 119.748 17.4888 119.963 19.0237C120.022 19.4503 120.014 20.8965 119.949 21.3146C119.703 22.9211 119.042 24.2383 117.9 25.401C116.755 26.5665 115.483 27.248 113.979 27.5C112.973 27.669 111.876 27.6289 110.952 27.3883C110.087 27.165 109.21 26.7125 108.453 26.1026C108.122 25.8363 107.455 25.1633 107.198 24.8368C106.124 23.4709 105.589 21.9761 105.524 20.1548C105.459 18.3192 105.971 16.7356 107.096 15.3009C107.376 14.943 108.088 14.2156 108.425 13.9436C109.049 13.4396 109.9 12.9585 110.553 12.7408C110.898 12.6263 111.384 12.5117 111.718 12.4688C111.842 12.4516 111.983 12.4316 112.029 12.4258C112.238 12.3972 113.541 12.4344 113.824 12.4774Z" fill="black"/>
</g>
</svg>
